%TF.GenerationSoftware,KiCad,Pcbnew,7.0.2-27-g7a50654f3b*%
%TF.CreationDate,2023-07-25T18:12:13-07:00*%
%TF.ProjectId,open_gamma_low_noise_v2,6f70656e-5f67-4616-9d6d-615f6c6f775f,rev?*%
%TF.SameCoordinates,Original*%
%TF.FileFunction,Soldermask,Top*%
%TF.FilePolarity,Negative*%
%FSLAX46Y46*%
G04 Gerber Fmt 4.6, Leading zero omitted, Abs format (unit mm)*
G04 Created by KiCad (PCBNEW 7.0.2-27-g7a50654f3b) date 2023-07-25 18:12:13*
%MOMM*%
%LPD*%
G01*
G04 APERTURE LIST*
G04 Aperture macros list*
%AMRoundRect*
0 Rectangle with rounded corners*
0 $1 Rounding radius*
0 $2 $3 $4 $5 $6 $7 $8 $9 X,Y pos of 4 corners*
0 Add a 4 corners polygon primitive as box body*
4,1,4,$2,$3,$4,$5,$6,$7,$8,$9,$2,$3,0*
0 Add four circle primitives for the rounded corners*
1,1,$1+$1,$2,$3*
1,1,$1+$1,$4,$5*
1,1,$1+$1,$6,$7*
1,1,$1+$1,$8,$9*
0 Add four rect primitives between the rounded corners*
20,1,$1+$1,$2,$3,$4,$5,0*
20,1,$1+$1,$4,$5,$6,$7,0*
20,1,$1+$1,$6,$7,$8,$9,0*
20,1,$1+$1,$8,$9,$2,$3,0*%
%AMFreePoly0*
4,1,19,0.500000,-0.750000,0.000000,-0.750000,0.000000,-0.744911,-0.071157,-0.744911,-0.207708,-0.704816,-0.327430,-0.627875,-0.420627,-0.520320,-0.479746,-0.390866,-0.500000,-0.250000,-0.500000,0.250000,-0.479746,0.390866,-0.420627,0.520320,-0.327430,0.627875,-0.207708,0.704816,-0.071157,0.744911,0.000000,0.744911,0.000000,0.750000,0.500000,0.750000,0.500000,-0.750000,0.500000,-0.750000,
$1*%
%AMFreePoly1*
4,1,19,0.000000,0.744911,0.071157,0.744911,0.207708,0.704816,0.327430,0.627875,0.420627,0.520320,0.479746,0.390866,0.500000,0.250000,0.500000,-0.250000,0.479746,-0.390866,0.420627,-0.520320,0.327430,-0.627875,0.207708,-0.704816,0.071157,-0.744911,0.000000,-0.744911,0.000000,-0.750000,-0.500000,-0.750000,-0.500000,0.750000,0.000000,0.750000,0.000000,0.744911,0.000000,0.744911,
$1*%
G04 Aperture macros list end*
%ADD10RoundRect,0.150000X0.150000X-0.587500X0.150000X0.587500X-0.150000X0.587500X-0.150000X-0.587500X0*%
%ADD11R,1.700000X1.700000*%
%ADD12O,1.700000X1.700000*%
%ADD13R,0.760000X0.820000*%
%ADD14R,1.200000X0.600000*%
%ADD15C,0.700000*%
%ADD16C,4.400000*%
%ADD17RoundRect,0.200000X0.200000X0.275000X-0.200000X0.275000X-0.200000X-0.275000X0.200000X-0.275000X0*%
%ADD18RoundRect,0.200000X-0.200000X-0.275000X0.200000X-0.275000X0.200000X0.275000X-0.200000X0.275000X0*%
%ADD19RoundRect,0.225000X0.225000X0.250000X-0.225000X0.250000X-0.225000X-0.250000X0.225000X-0.250000X0*%
%ADD20R,1.550000X4.500000*%
%ADD21RoundRect,0.225000X-0.225000X-0.250000X0.225000X-0.250000X0.225000X0.250000X-0.225000X0.250000X0*%
%ADD22C,1.269000*%
%ADD23RoundRect,0.200000X0.275000X-0.200000X0.275000X0.200000X-0.275000X0.200000X-0.275000X-0.200000X0*%
%ADD24RoundRect,0.225000X-0.250000X0.225000X-0.250000X-0.225000X0.250000X-0.225000X0.250000X0.225000X0*%
%ADD25RoundRect,0.150000X-0.587500X-0.150000X0.587500X-0.150000X0.587500X0.150000X-0.587500X0.150000X0*%
%ADD26RoundRect,0.243750X-0.243750X-0.456250X0.243750X-0.456250X0.243750X0.456250X-0.243750X0.456250X0*%
%ADD27RoundRect,0.200000X-0.275000X0.200000X-0.275000X-0.200000X0.275000X-0.200000X0.275000X0.200000X0*%
%ADD28RoundRect,0.218750X0.256250X-0.218750X0.256250X0.218750X-0.256250X0.218750X-0.256250X-0.218750X0*%
%ADD29FreePoly0,0.000000*%
%ADD30FreePoly1,0.000000*%
%ADD31RoundRect,0.218750X-0.218750X-0.256250X0.218750X-0.256250X0.218750X0.256250X-0.218750X0.256250X0*%
%ADD32O,1.800000X1.800000*%
%ADD33O,1.500000X1.500000*%
%ADD34R,3.500000X1.700000*%
%ADD35RoundRect,0.225000X0.250000X-0.225000X0.250000X0.225000X-0.250000X0.225000X-0.250000X-0.225000X0*%
%ADD36RoundRect,0.218750X0.218750X0.256250X-0.218750X0.256250X-0.218750X-0.256250X0.218750X-0.256250X0*%
%ADD37R,0.600000X1.250000*%
%ADD38RoundRect,0.250000X-0.250000X-0.475000X0.250000X-0.475000X0.250000X0.475000X-0.250000X0.475000X0*%
%ADD39R,0.600000X1.200000*%
%ADD40R,0.990600X1.041400*%
%ADD41R,1.041400X2.209800*%
%ADD42RoundRect,0.250000X0.250000X0.475000X-0.250000X0.475000X-0.250000X-0.475000X0.250000X-0.475000X0*%
G04 APERTURE END LIST*
D10*
%TO.C,D2*%
X187645000Y-82520000D03*
X189545000Y-82520000D03*
X188595000Y-80645000D03*
%TD*%
D11*
%TO.C,I2C1*%
X149860000Y-60960000D03*
D12*
X149860000Y-58420000D03*
X149860000Y-55880000D03*
X149860000Y-53340000D03*
%TD*%
D13*
%TO.C,D1*%
X158230000Y-104470000D03*
X158230000Y-101270000D03*
%TD*%
D14*
%TO.C,U4*%
X193695000Y-67630000D03*
X193695000Y-68580000D03*
X193695000Y-69530000D03*
X196195000Y-69530000D03*
X196195000Y-68580000D03*
X196195000Y-67630000D03*
%TD*%
D15*
%TO.C,H3*%
X149100000Y-118364000D03*
X149583274Y-117197274D03*
X149583274Y-119530726D03*
X150750000Y-116714000D03*
D16*
X150750000Y-118364000D03*
D15*
X150750000Y-120014000D03*
X151916726Y-117197274D03*
X151916726Y-119530726D03*
X152400000Y-118364000D03*
%TD*%
D17*
%TO.C,R1*%
X191960000Y-71755000D03*
X190310000Y-71755000D03*
%TD*%
D18*
%TO.C,R17*%
X183960000Y-108585000D03*
X185610000Y-108585000D03*
%TD*%
D19*
%TO.C,C4*%
X195720000Y-64770000D03*
X194170000Y-64770000D03*
%TD*%
D20*
%TO.C,L1*%
X156325000Y-89535000D03*
X152475000Y-89535000D03*
%TD*%
D18*
%TO.C,R6*%
X183960000Y-104775000D03*
X185610000Y-104775000D03*
%TD*%
D21*
%TO.C,C3*%
X191630000Y-100330000D03*
X193180000Y-100330000D03*
%TD*%
%TO.C,C6*%
X191630000Y-102235000D03*
X193180000Y-102235000D03*
%TD*%
D18*
%TO.C,R14*%
X190310000Y-97790000D03*
X191960000Y-97790000D03*
%TD*%
D19*
%TO.C,C8*%
X191910000Y-69850000D03*
X190360000Y-69850000D03*
%TD*%
D18*
%TO.C,R15*%
X183960000Y-106680000D03*
X185610000Y-106680000D03*
%TD*%
D21*
%TO.C,C2*%
X160135000Y-110490000D03*
X161685000Y-110490000D03*
%TD*%
D22*
%TO.C,R8*%
X194310000Y-111760000D03*
X194310000Y-109220000D03*
X194310000Y-106680000D03*
%TD*%
D23*
%TO.C,R9*%
X155690000Y-104520000D03*
X155690000Y-102870000D03*
%TD*%
D24*
%TO.C,C14*%
X189865000Y-57010000D03*
X189865000Y-58560000D03*
%TD*%
D11*
%TO.C,UART1*%
X149975000Y-78740000D03*
D12*
X149975000Y-76200000D03*
%TD*%
D22*
%TO.C,R2*%
X151130000Y-107315000D03*
X151130000Y-104775000D03*
X151130000Y-102235000D03*
%TD*%
D14*
%TO.C,U8*%
X187345000Y-100650000D03*
X187345000Y-101600000D03*
X187345000Y-102550000D03*
X189845000Y-102550000D03*
X189845000Y-101600000D03*
X189845000Y-100650000D03*
%TD*%
D15*
%TO.C,H4*%
X192914000Y-118364000D03*
X193397274Y-117197274D03*
X193397274Y-119530726D03*
X194564000Y-116714000D03*
D16*
X194564000Y-118364000D03*
D15*
X194564000Y-120014000D03*
X195730726Y-117197274D03*
X195730726Y-119530726D03*
X196214000Y-118364000D03*
%TD*%
D25*
%TO.C,D3*%
X182577500Y-100650000D03*
X182577500Y-102550000D03*
X184452500Y-101600000D03*
%TD*%
D15*
%TO.C,H2*%
X193296000Y-48260000D03*
X193779274Y-47093274D03*
X193779274Y-49426726D03*
X194946000Y-46610000D03*
D16*
X194946000Y-48260000D03*
D15*
X194946000Y-49910000D03*
X196112726Y-47093274D03*
X196112726Y-49426726D03*
X196596000Y-48260000D03*
%TD*%
D26*
%TO.C,ACT1*%
X176862500Y-100965000D03*
X178737500Y-100965000D03*
%TD*%
D27*
%TO.C,R11*%
X189865000Y-104585000D03*
X189865000Y-106235000D03*
%TD*%
D21*
%TO.C,C7*%
X190360000Y-95885000D03*
X191910000Y-95885000D03*
%TD*%
D28*
%TO.C,L2*%
X152515000Y-84607500D03*
X152515000Y-83032500D03*
%TD*%
D25*
%TO.C,Q1*%
X189230000Y-73665000D03*
X189230000Y-75565000D03*
X191105000Y-74615000D03*
%TD*%
D29*
%TO.C,JP1*%
X188580000Y-64770000D03*
D30*
X189880000Y-64770000D03*
%TD*%
D19*
%TO.C,C10*%
X190005000Y-85725000D03*
X188455000Y-85725000D03*
%TD*%
D18*
%TO.C,R12*%
X190310000Y-93345000D03*
X191960000Y-93345000D03*
%TD*%
D31*
%TO.C,L3*%
X186537500Y-57150000D03*
X188112500Y-57150000D03*
%TD*%
D32*
%TO.C,U3*%
X169995000Y-47120000D03*
D33*
X170295000Y-50150000D03*
X175145000Y-50150000D03*
D32*
X175445000Y-47120000D03*
D34*
X162930000Y-46990000D03*
X162930000Y-49530000D03*
X162930000Y-52070000D03*
X162930000Y-54610000D03*
X162930000Y-57150000D03*
X162930000Y-59690000D03*
X162930000Y-62230000D03*
X162930000Y-64770000D03*
X162930000Y-67310000D03*
X162930000Y-69850000D03*
X162930000Y-72390000D03*
X162930000Y-74930000D03*
X162930000Y-77470000D03*
X162930000Y-80010000D03*
X162930000Y-82550000D03*
X162930000Y-85090000D03*
X162930000Y-87630000D03*
X162930000Y-90170000D03*
X162930000Y-92710000D03*
X162930000Y-95250000D03*
X182510000Y-95250000D03*
X182510000Y-92710000D03*
X182510000Y-90170000D03*
X182510000Y-87630000D03*
X182510000Y-85090000D03*
X182510000Y-82550000D03*
X182510000Y-80010000D03*
X182510000Y-77470000D03*
X182510000Y-74930000D03*
X182510000Y-72390000D03*
X182510000Y-69850000D03*
X182510000Y-67310000D03*
X182510000Y-64770000D03*
X182510000Y-62230000D03*
X182510000Y-59690000D03*
X182510000Y-57150000D03*
X182510000Y-54610000D03*
X182510000Y-52070000D03*
X182510000Y-49530000D03*
X182510000Y-46990000D03*
%TD*%
D35*
%TO.C,C9*%
X188595000Y-93485000D03*
X188595000Y-91935000D03*
%TD*%
D11*
%TO.C,J3*%
X189230000Y-46990000D03*
D12*
X189230000Y-49530000D03*
X189230000Y-52070000D03*
%TD*%
D36*
%TO.C,L4*%
X161557500Y-106680000D03*
X159982500Y-106680000D03*
%TD*%
D24*
%TO.C,C11*%
X191770000Y-57010000D03*
X191770000Y-58560000D03*
%TD*%
D37*
%TO.C,U6*%
X193995000Y-94395000D03*
X195895000Y-94395000D03*
X194945000Y-92295000D03*
%TD*%
D38*
%TO.C,C5*%
X161725000Y-104140000D03*
X163625000Y-104140000D03*
%TD*%
D39*
%TO.C,U5*%
X154625000Y-97135000D03*
X155575000Y-97135000D03*
X156525000Y-97135000D03*
X156525000Y-94635000D03*
X155575000Y-94635000D03*
X154625000Y-94635000D03*
%TD*%
D27*
%TO.C,R10*%
X191770000Y-87440000D03*
X191770000Y-89090000D03*
%TD*%
D17*
%TO.C,R13*%
X157035000Y-99695000D03*
X155385000Y-99695000D03*
%TD*%
D40*
%TO.C,J1*%
X160135000Y-112779200D03*
D41*
X161614300Y-114300000D03*
X158655700Y-114300000D03*
%TD*%
D23*
%TO.C,R16*%
X189865000Y-112585000D03*
X189865000Y-110935000D03*
%TD*%
D17*
%TO.C,R19*%
X161785000Y-108585000D03*
X160135000Y-108585000D03*
%TD*%
D18*
%TO.C,R3*%
X188405000Y-78105000D03*
X190055000Y-78105000D03*
%TD*%
D17*
%TO.C,R5*%
X181800000Y-98425000D03*
X180150000Y-98425000D03*
%TD*%
D24*
%TO.C,C13*%
X154420000Y-83045000D03*
X154420000Y-84595000D03*
%TD*%
D42*
%TO.C,C1*%
X157910000Y-110490000D03*
X156010000Y-110490000D03*
%TD*%
D35*
%TO.C,C15*%
X150610000Y-84595000D03*
X150610000Y-83045000D03*
%TD*%
D23*
%TO.C,R7*%
X187960000Y-106235000D03*
X187960000Y-104585000D03*
%TD*%
D14*
%TO.C,U1*%
X186075000Y-95570000D03*
X186075000Y-96520000D03*
X186075000Y-97470000D03*
X188575000Y-97470000D03*
X188575000Y-95570000D03*
%TD*%
D37*
%TO.C,U2*%
X181290000Y-108805000D03*
X179390000Y-108805000D03*
X180340000Y-110905000D03*
%TD*%
D18*
%TO.C,R4*%
X185675000Y-110490000D03*
X187325000Y-110490000D03*
%TD*%
D15*
%TO.C,H1*%
X149100000Y-48260000D03*
X149583274Y-47093274D03*
X149583274Y-49426726D03*
X150750000Y-46610000D03*
D16*
X150750000Y-48260000D03*
D15*
X150750000Y-49910000D03*
X151916726Y-47093274D03*
X151916726Y-49426726D03*
X152400000Y-48260000D03*
%TD*%
D42*
%TO.C,C16*%
X157910000Y-106680000D03*
X156010000Y-106680000D03*
%TD*%
D11*
%TO.C,SPI1*%
X149860000Y-72390000D03*
D12*
X149860000Y-69850000D03*
X149860000Y-67310000D03*
X149860000Y-64770000D03*
%TD*%
D14*
%TO.C,U7*%
X187345000Y-87315000D03*
X187345000Y-88265000D03*
X187345000Y-89215000D03*
X189845000Y-89215000D03*
X189845000Y-88265000D03*
X189845000Y-87315000D03*
%TD*%
D24*
%TO.C,C12*%
X193675000Y-57010000D03*
X193675000Y-58560000D03*
%TD*%
D40*
%TO.C,J2*%
X185535000Y-112779200D03*
D41*
X187014300Y-114300000D03*
X184055700Y-114300000D03*
%TD*%
M02*
