M48
; DRILL file {KiCad 7.0.2-27-g7a50654f3b} date Tue Jul 25 18:12:16 2023
; FORMAT={-:-/ absolute / inch / decimal}
; #@! TF.CreationDate,2023-07-25T18:12:16-07:00
; #@! TF.GenerationSoftware,Kicad,Pcbnew,7.0.2-27-g7a50654f3b
; #@! TF.FileFunction,Plated,1,4,PTH
FMAT,2
INCH
; #@! TA.AperFunction,Plated,PTH,ViaDrill
T1C0.0157
; #@! TA.AperFunction,Plated,PTH,ComponentDrill
T2C0.0157
; #@! TA.AperFunction,Plated,PTH,ComponentDrill
T3C0.0291
; #@! TA.AperFunction,Plated,PTH,ComponentDrill
T4C0.0394
; #@! TA.AperFunction,Plated,PTH,ComponentDrill
T5C0.0866
%
G90
G05
T1
X5.875Y-3.275
X6.025Y-3.825
X6.1Y-3.875
X6.125Y-3.325
X6.125Y-4.25
X6.125Y-4.4
X6.175Y-4.5
X6.3Y-3.2
X6.3Y-3.55
X6.425Y-4.35
X6.425Y-4.5
X6.5Y-4.1
X6.525Y-2.05
X6.525Y-2.55
X6.525Y-3.05
X6.55Y-3.15
X6.9Y-3.975
X7.0Y-4.275
X7.025Y-3.375
X7.075Y-2.45
X7.1Y-4.2
X7.15Y-4.075
X7.175Y-4.5
X7.225Y-3.9
X7.275Y-2.95
X7.275Y-3.05
X7.275Y-3.8
X7.3Y-3.55
X7.325Y-4.0
X7.375Y-2.9
X7.375Y-2.975
X7.425Y-2.75
X7.425Y-3.325
X7.425Y-4.35
X7.425Y-4.5
X7.475Y-3.6
X7.475Y-3.725
X7.475Y-3.9
X7.475Y-4.475
X7.5Y-3.325
X7.55Y-2.55
X7.55Y-2.7
X7.575Y-3.725
X7.6Y-2.875
X7.625Y-3.15
X7.65Y-3.95
X7.65Y-4.025
X7.7Y-2.225
X7.7Y-2.3
X7.7Y-3.775
X7.725Y-2.6
T2
X5.8701Y-1.9
X5.8701Y-4.66
X5.8891Y-1.8541
X5.8891Y-1.9459
X5.8891Y-4.6141
X5.8891Y-4.7059
X5.935Y-1.835
X5.935Y-1.965
X5.935Y-4.595
X5.935Y-4.725
X5.981Y-1.8541
X5.981Y-1.9459
X5.981Y-4.6141
X5.981Y-4.7059
X6.0Y-1.9
X6.0Y-4.66
X7.595Y-4.66
X7.6101Y-1.9
X7.6141Y-4.6141
X7.6141Y-4.7059
X7.6291Y-1.8541
X7.6291Y-1.9459
X7.66Y-4.595
X7.66Y-4.725
X7.675Y-1.835
X7.675Y-1.965
X7.7059Y-4.6141
X7.7059Y-4.7059
X7.721Y-1.8541
X7.721Y-1.9459
X7.725Y-4.66
X7.74Y-1.9
T3
X5.95Y-4.025
X5.95Y-4.125
X5.95Y-4.225
X7.65Y-4.2
X7.65Y-4.3
X7.65Y-4.4
T4
X5.9Y-2.1
X5.9Y-2.2
X5.9Y-2.3
X5.9Y-2.4
X5.9Y-2.55
X5.9Y-2.65
X5.9Y-2.75
X5.9Y-2.85
X5.9045Y-3.0
X5.9045Y-3.1
X7.45Y-1.85
X7.45Y-1.95
X7.45Y-2.05
T5
X5.935Y-1.9
X5.935Y-4.66
X7.66Y-4.66
X7.675Y-1.9
T0
M30
