%TF.GenerationSoftware,KiCad,Pcbnew,7.0.2-27-g7a50654f3b*%
%TF.CreationDate,2023-07-25T18:12:13-07:00*%
%TF.ProjectId,open_gamma_low_noise_v2,6f70656e-5f67-4616-9d6d-615f6c6f775f,rev?*%
%TF.SameCoordinates,Original*%
%TF.FileFunction,Copper,L3,Inr*%
%TF.FilePolarity,Positive*%
%FSLAX46Y46*%
G04 Gerber Fmt 4.6, Leading zero omitted, Abs format (unit mm)*
G04 Created by KiCad (PCBNEW 7.0.2-27-g7a50654f3b) date 2023-07-25 18:12:13*
%MOMM*%
%LPD*%
G01*
G04 APERTURE LIST*
%TA.AperFunction,ComponentPad*%
%ADD10R,1.700000X1.700000*%
%TD*%
%TA.AperFunction,ComponentPad*%
%ADD11O,1.700000X1.700000*%
%TD*%
%TA.AperFunction,ComponentPad*%
%ADD12C,0.700000*%
%TD*%
%TA.AperFunction,ComponentPad*%
%ADD13C,4.400000*%
%TD*%
%TA.AperFunction,ComponentPad*%
%ADD14C,1.269000*%
%TD*%
%TA.AperFunction,ViaPad*%
%ADD15C,0.800000*%
%TD*%
G04 APERTURE END LIST*
D10*
%TO.N,GND*%
%TO.C,I2C1*%
X149860000Y-60960000D03*
D11*
%TO.N,VCC*%
X149860000Y-58420000D03*
%TO.N,SCL*%
X149860000Y-55880000D03*
%TO.N,SDA*%
X149860000Y-53340000D03*
%TD*%
D12*
%TO.N,GND*%
%TO.C,H3*%
X149100000Y-118364000D03*
X149583274Y-117197274D03*
X149583274Y-119530726D03*
X150750000Y-116714000D03*
D13*
X150750000Y-118364000D03*
D12*
X150750000Y-120014000D03*
X151916726Y-117197274D03*
X151916726Y-119530726D03*
X152400000Y-118364000D03*
%TD*%
D14*
%TO.N,GND*%
%TO.C,R8*%
X194310000Y-111760000D03*
%TO.N,Net-(U1-IN-)*%
X194310000Y-109220000D03*
X194310000Y-106680000D03*
%TD*%
D10*
%TO.N,UART1RX*%
%TO.C,UART1*%
X149975000Y-78740000D03*
D11*
%TO.N,UART1TX*%
X149975000Y-76200000D03*
%TD*%
D14*
%TO.N,Net-(R2-Pad1)*%
%TO.C,R2*%
X151130000Y-107315000D03*
%TO.N,Net-(U5-FB)*%
X151130000Y-104775000D03*
X151130000Y-102235000D03*
%TD*%
D12*
%TO.N,GND*%
%TO.C,H4*%
X192914000Y-118364000D03*
X193397274Y-117197274D03*
X193397274Y-119530726D03*
X194564000Y-116714000D03*
D13*
X194564000Y-118364000D03*
D12*
X194564000Y-120014000D03*
X195730726Y-117197274D03*
X195730726Y-119530726D03*
X196214000Y-118364000D03*
%TD*%
%TO.N,GND*%
%TO.C,H2*%
X193296000Y-48260000D03*
X193779274Y-47093274D03*
X193779274Y-49426726D03*
X194946000Y-46610000D03*
D13*
X194946000Y-48260000D03*
D12*
X194946000Y-49910000D03*
X196112726Y-47093274D03*
X196112726Y-49426726D03*
X196596000Y-48260000D03*
%TD*%
D10*
%TO.N,VBUS*%
%TO.C,J3*%
X189230000Y-46990000D03*
D11*
%TO.N,VSYS*%
X189230000Y-49530000D03*
%TO.N,GND*%
X189230000Y-52070000D03*
%TD*%
D12*
%TO.N,GND*%
%TO.C,H1*%
X149100000Y-48260000D03*
X149583274Y-47093274D03*
X149583274Y-49426726D03*
X150750000Y-46610000D03*
D13*
X150750000Y-48260000D03*
D12*
X150750000Y-49910000D03*
X151916726Y-47093274D03*
X151916726Y-49426726D03*
X152400000Y-48260000D03*
%TD*%
D10*
%TO.N,CS*%
%TO.C,SPI1*%
X149860000Y-72390000D03*
D11*
%TO.N,RX*%
X149860000Y-69850000D03*
%TO.N,TX*%
X149860000Y-67310000D03*
%TO.N,SCK*%
X149860000Y-64770000D03*
%TD*%
D15*
%TO.N,GND*%
X177800000Y-108585000D03*
X194310000Y-102235000D03*
X189865000Y-91440000D03*
X186055000Y-101600000D03*
X195580000Y-95885000D03*
X187325000Y-75565000D03*
X191770000Y-64770000D03*
X165735000Y-77470000D03*
X153035000Y-97155000D03*
X165100000Y-104140000D03*
X184785000Y-77470000D03*
X156845000Y-114300000D03*
X192405000Y-94615000D03*
X185420000Y-90170000D03*
X154940000Y-98425000D03*
X155575000Y-111760000D03*
X183515000Y-99060000D03*
X163195000Y-110490000D03*
X188595000Y-84455000D03*
X188595000Y-114300000D03*
X184785000Y-96520000D03*
X189865000Y-113665000D03*
X188595000Y-69850000D03*
X182245000Y-114300000D03*
X179705000Y-62230000D03*
X155575000Y-84455000D03*
X155575000Y-107950000D03*
X149225000Y-83185000D03*
X163195000Y-114300000D03*
X188595000Y-110490000D03*
X165735000Y-64770000D03*
X160020000Y-90170000D03*
X175260000Y-100965000D03*
X195580000Y-58420000D03*
X191770000Y-68580000D03*
X165735000Y-52070000D03*
X194310000Y-100330000D03*
%TO.N,VCC*%
X181610000Y-103505000D03*
X196215000Y-66040000D03*
X189865000Y-94615000D03*
X190500000Y-84455000D03*
X189865000Y-99060000D03*
X195580000Y-56515000D03*
%TO.N,VSYS*%
X160020000Y-81280000D03*
X166370000Y-80010000D03*
%TO.N,RST*%
X187325000Y-73660000D03*
X184785000Y-74930000D03*
%TO.N,VREF*%
X180340000Y-106680000D03*
X178435000Y-85725000D03*
%TO.N,Net-(U4-+IN)*%
X193675000Y-80010000D03*
X193040000Y-73025000D03*
%TD*%
%TA.AperFunction,Conductor*%
%TO.N,VCC*%
G36*
X197110061Y-44905097D02*
G01*
X197250947Y-44918973D01*
X197274775Y-44923712D01*
X197404396Y-44963032D01*
X197426844Y-44972331D01*
X197546296Y-45036179D01*
X197566506Y-45049683D01*
X197671204Y-45135605D01*
X197688394Y-45152795D01*
X197774316Y-45257493D01*
X197787820Y-45277703D01*
X197851665Y-45397147D01*
X197860968Y-45419606D01*
X197900285Y-45549217D01*
X197905027Y-45573057D01*
X197918903Y-45713937D01*
X197919500Y-45726092D01*
X197919500Y-120897907D01*
X197918903Y-120910062D01*
X197905027Y-121050941D01*
X197900285Y-121074781D01*
X197860968Y-121204393D01*
X197851665Y-121226852D01*
X197787820Y-121346296D01*
X197774316Y-121366506D01*
X197688394Y-121471204D01*
X197671204Y-121488394D01*
X197566506Y-121574316D01*
X197546296Y-121587820D01*
X197426852Y-121651665D01*
X197404393Y-121660968D01*
X197274781Y-121700285D01*
X197250941Y-121705027D01*
X197147575Y-121715208D01*
X197110060Y-121718903D01*
X197097907Y-121719500D01*
X148342093Y-121719500D01*
X148329939Y-121718903D01*
X148270238Y-121713022D01*
X148189058Y-121705027D01*
X148165218Y-121700285D01*
X148035606Y-121660968D01*
X148013150Y-121651666D01*
X147893703Y-121587820D01*
X147873493Y-121574316D01*
X147768795Y-121488394D01*
X147751605Y-121471204D01*
X147665683Y-121366506D01*
X147652179Y-121346296D01*
X147588331Y-121226844D01*
X147579031Y-121204393D01*
X147574321Y-121188865D01*
X147539712Y-121074775D01*
X147534973Y-121050947D01*
X147521097Y-120910061D01*
X147520500Y-120897907D01*
X147520500Y-118364000D01*
X148044564Y-118364000D01*
X148044790Y-118367736D01*
X148064063Y-118686362D01*
X148064064Y-118686372D01*
X148064290Y-118690104D01*
X148064963Y-118693778D01*
X148064965Y-118693792D01*
X148122502Y-119007762D01*
X148122504Y-119007771D01*
X148123179Y-119011453D01*
X148220373Y-119323361D01*
X148354455Y-119621279D01*
X148356388Y-119624477D01*
X148356392Y-119624484D01*
X148521532Y-119897658D01*
X148521536Y-119897663D01*
X148523470Y-119900863D01*
X148724952Y-120158036D01*
X148955964Y-120389048D01*
X149213137Y-120590530D01*
X149492721Y-120759545D01*
X149790639Y-120893627D01*
X150102547Y-120990821D01*
X150423896Y-121049710D01*
X150750000Y-121069436D01*
X151076104Y-121049710D01*
X151397453Y-120990821D01*
X151709361Y-120893627D01*
X152007279Y-120759545D01*
X152112787Y-120695763D01*
X172634500Y-120695763D01*
X172674212Y-120778224D01*
X172745769Y-120835290D01*
X172797199Y-120847028D01*
X172812409Y-120850500D01*
X172812410Y-120850500D01*
X172857591Y-120850500D01*
X172869974Y-120847673D01*
X172924231Y-120835290D01*
X172995788Y-120778224D01*
X173035500Y-120695763D01*
X173035500Y-120604237D01*
X172995788Y-120521776D01*
X172995786Y-120521774D01*
X172924231Y-120464710D01*
X172857591Y-120449500D01*
X172857590Y-120449500D01*
X172812410Y-120449500D01*
X172812409Y-120449500D01*
X172745768Y-120464710D01*
X172674213Y-120521774D01*
X172674212Y-120521775D01*
X172674212Y-120521776D01*
X172634500Y-120604237D01*
X172634500Y-120695763D01*
X152112787Y-120695763D01*
X152286863Y-120590530D01*
X152544036Y-120389048D01*
X152775048Y-120158036D01*
X152976530Y-119900863D01*
X153145545Y-119621279D01*
X153279627Y-119323361D01*
X153376821Y-119011453D01*
X153435710Y-118690104D01*
X153455436Y-118364000D01*
X191858564Y-118364000D01*
X191858790Y-118367736D01*
X191878063Y-118686362D01*
X191878064Y-118686372D01*
X191878290Y-118690104D01*
X191878963Y-118693778D01*
X191878965Y-118693792D01*
X191936502Y-119007762D01*
X191936504Y-119007771D01*
X191937179Y-119011453D01*
X192034373Y-119323361D01*
X192168455Y-119621279D01*
X192170388Y-119624477D01*
X192170392Y-119624484D01*
X192335532Y-119897658D01*
X192335536Y-119897663D01*
X192337470Y-119900863D01*
X192538952Y-120158036D01*
X192769964Y-120389048D01*
X193027137Y-120590530D01*
X193306721Y-120759545D01*
X193604639Y-120893627D01*
X193916547Y-120990821D01*
X194237896Y-121049710D01*
X194564000Y-121069436D01*
X194890104Y-121049710D01*
X195211453Y-120990821D01*
X195523361Y-120893627D01*
X195821279Y-120759545D01*
X196100863Y-120590530D01*
X196358036Y-120389048D01*
X196589048Y-120158036D01*
X196790530Y-119900863D01*
X196959545Y-119621279D01*
X197093627Y-119323361D01*
X197190821Y-119011453D01*
X197249710Y-118690104D01*
X197269436Y-118364000D01*
X197249710Y-118037896D01*
X197190821Y-117716547D01*
X197093627Y-117404639D01*
X196959545Y-117106721D01*
X196790530Y-116827137D01*
X196589048Y-116569964D01*
X196358036Y-116338952D01*
X196100863Y-116137470D01*
X196097663Y-116135536D01*
X196097658Y-116135532D01*
X195824484Y-115970392D01*
X195824477Y-115970388D01*
X195821279Y-115968455D01*
X195523361Y-115834373D01*
X195211453Y-115737179D01*
X195207771Y-115736504D01*
X195207762Y-115736502D01*
X194893792Y-115678965D01*
X194893778Y-115678963D01*
X194890104Y-115678290D01*
X194886372Y-115678064D01*
X194886362Y-115678063D01*
X194567736Y-115658790D01*
X194564000Y-115658564D01*
X194560264Y-115658790D01*
X194241637Y-115678063D01*
X194241625Y-115678064D01*
X194237896Y-115678290D01*
X194234223Y-115678962D01*
X194234207Y-115678965D01*
X193920237Y-115736502D01*
X193920224Y-115736505D01*
X193916547Y-115737179D01*
X193912967Y-115738294D01*
X193912961Y-115738296D01*
X193608216Y-115833258D01*
X193608210Y-115833260D01*
X193604639Y-115834373D01*
X193601230Y-115835907D01*
X193601228Y-115835908D01*
X193310135Y-115966918D01*
X193310128Y-115966921D01*
X193306721Y-115968455D01*
X193303528Y-115970384D01*
X193303515Y-115970392D01*
X193030341Y-116135532D01*
X193030328Y-116135540D01*
X193027137Y-116137470D01*
X193024195Y-116139774D01*
X193024189Y-116139779D01*
X192772915Y-116336640D01*
X192769964Y-116338952D01*
X192767318Y-116341597D01*
X192767310Y-116341605D01*
X192541605Y-116567310D01*
X192541597Y-116567318D01*
X192538952Y-116569964D01*
X192536640Y-116572914D01*
X192536640Y-116572915D01*
X192339779Y-116824189D01*
X192339774Y-116824195D01*
X192337470Y-116827137D01*
X192335540Y-116830328D01*
X192335532Y-116830341D01*
X192170392Y-117103515D01*
X192170384Y-117103528D01*
X192168455Y-117106721D01*
X192034373Y-117404639D01*
X191937179Y-117716547D01*
X191936505Y-117720224D01*
X191936502Y-117720237D01*
X191878965Y-118034207D01*
X191878962Y-118034223D01*
X191878290Y-118037896D01*
X191878064Y-118041625D01*
X191878063Y-118041637D01*
X191858790Y-118360263D01*
X191858564Y-118364000D01*
X153455436Y-118364000D01*
X153435710Y-118037896D01*
X153376821Y-117716547D01*
X153279627Y-117404639D01*
X153145545Y-117106721D01*
X152976530Y-116827137D01*
X152775048Y-116569964D01*
X152544036Y-116338952D01*
X152286863Y-116137470D01*
X152283663Y-116135536D01*
X152283658Y-116135532D01*
X152010484Y-115970392D01*
X152010477Y-115970388D01*
X152007279Y-115968455D01*
X151709361Y-115834373D01*
X151397453Y-115737179D01*
X151393771Y-115736504D01*
X151393762Y-115736502D01*
X151079792Y-115678965D01*
X151079778Y-115678963D01*
X151076104Y-115678290D01*
X151072372Y-115678064D01*
X151072362Y-115678063D01*
X150753736Y-115658790D01*
X150750000Y-115658564D01*
X150746264Y-115658790D01*
X150427637Y-115678063D01*
X150427625Y-115678064D01*
X150423896Y-115678290D01*
X150420223Y-115678962D01*
X150420207Y-115678965D01*
X150106237Y-115736502D01*
X150106224Y-115736505D01*
X150102547Y-115737179D01*
X150098967Y-115738294D01*
X150098961Y-115738296D01*
X149794216Y-115833258D01*
X149794210Y-115833260D01*
X149790639Y-115834373D01*
X149787230Y-115835907D01*
X149787228Y-115835908D01*
X149496135Y-115966918D01*
X149496128Y-115966921D01*
X149492721Y-115968455D01*
X149489528Y-115970384D01*
X149489515Y-115970392D01*
X149216341Y-116135532D01*
X149216328Y-116135540D01*
X149213137Y-116137470D01*
X149210195Y-116139774D01*
X149210189Y-116139779D01*
X148958915Y-116336640D01*
X148955964Y-116338952D01*
X148953318Y-116341597D01*
X148953310Y-116341605D01*
X148727605Y-116567310D01*
X148727597Y-116567318D01*
X148724952Y-116569964D01*
X148722640Y-116572914D01*
X148722640Y-116572915D01*
X148525779Y-116824189D01*
X148525774Y-116824195D01*
X148523470Y-116827137D01*
X148521540Y-116830328D01*
X148521532Y-116830341D01*
X148356392Y-117103515D01*
X148356384Y-117103528D01*
X148354455Y-117106721D01*
X148220373Y-117404639D01*
X148123179Y-117716547D01*
X148122505Y-117720224D01*
X148122502Y-117720237D01*
X148064965Y-118034207D01*
X148064962Y-118034223D01*
X148064290Y-118037896D01*
X148064064Y-118041625D01*
X148064063Y-118041637D01*
X148044790Y-118360263D01*
X148044564Y-118364000D01*
X147520500Y-118364000D01*
X147520500Y-114299999D01*
X155939540Y-114299999D01*
X155959326Y-114488257D01*
X156017820Y-114668284D01*
X156112466Y-114832216D01*
X156239129Y-114972889D01*
X156392269Y-115084151D01*
X156565197Y-115161144D01*
X156750352Y-115200500D01*
X156750354Y-115200500D01*
X156939648Y-115200500D01*
X157063084Y-115174262D01*
X157124803Y-115161144D01*
X157297730Y-115084151D01*
X157450871Y-114972888D01*
X157577533Y-114832216D01*
X157672179Y-114668284D01*
X157730674Y-114488256D01*
X157750460Y-114300000D01*
X162289540Y-114300000D01*
X162309326Y-114488257D01*
X162367820Y-114668284D01*
X162462466Y-114832216D01*
X162589129Y-114972889D01*
X162742269Y-115084151D01*
X162915197Y-115161144D01*
X163100352Y-115200500D01*
X163100354Y-115200500D01*
X163289648Y-115200500D01*
X163413084Y-115174262D01*
X163474803Y-115161144D01*
X163647730Y-115084151D01*
X163800871Y-114972888D01*
X163927533Y-114832216D01*
X164022179Y-114668284D01*
X164080674Y-114488256D01*
X164100460Y-114300000D01*
X164100460Y-114299999D01*
X181339540Y-114299999D01*
X181359326Y-114488257D01*
X181417820Y-114668284D01*
X181512466Y-114832216D01*
X181639129Y-114972889D01*
X181792269Y-115084151D01*
X181965197Y-115161144D01*
X182150352Y-115200500D01*
X182150354Y-115200500D01*
X182339648Y-115200500D01*
X182463083Y-115174262D01*
X182524803Y-115161144D01*
X182697730Y-115084151D01*
X182850871Y-114972888D01*
X182977533Y-114832216D01*
X183072179Y-114668284D01*
X183130674Y-114488256D01*
X183150460Y-114300000D01*
X183150460Y-114299999D01*
X187689540Y-114299999D01*
X187709326Y-114488257D01*
X187767820Y-114668284D01*
X187862466Y-114832216D01*
X187989129Y-114972889D01*
X188142269Y-115084151D01*
X188315197Y-115161144D01*
X188500352Y-115200500D01*
X188500354Y-115200500D01*
X188689648Y-115200500D01*
X188813083Y-115174262D01*
X188874803Y-115161144D01*
X189047730Y-115084151D01*
X189200871Y-114972888D01*
X189327533Y-114832216D01*
X189422179Y-114668284D01*
X189441408Y-114609101D01*
X189480846Y-114551425D01*
X189545204Y-114524226D01*
X189585121Y-114526128D01*
X189770352Y-114565500D01*
X189770354Y-114565500D01*
X189959648Y-114565500D01*
X190083084Y-114539262D01*
X190144803Y-114526144D01*
X190317730Y-114449151D01*
X190470871Y-114337888D01*
X190597533Y-114197216D01*
X190692179Y-114033284D01*
X190750674Y-113853256D01*
X190770460Y-113665000D01*
X190750674Y-113476744D01*
X190692179Y-113296716D01*
X190692179Y-113296715D01*
X190597533Y-113132783D01*
X190470870Y-112992110D01*
X190317730Y-112880848D01*
X190144802Y-112803855D01*
X189959648Y-112764500D01*
X189959646Y-112764500D01*
X189770354Y-112764500D01*
X189770352Y-112764500D01*
X189585197Y-112803855D01*
X189412269Y-112880848D01*
X189259129Y-112992110D01*
X189132466Y-113132783D01*
X189037821Y-113296714D01*
X189018590Y-113355900D01*
X188979151Y-113413575D01*
X188914793Y-113440773D01*
X188874879Y-113438871D01*
X188689649Y-113399500D01*
X188689646Y-113399500D01*
X188500354Y-113399500D01*
X188500352Y-113399500D01*
X188315197Y-113438855D01*
X188142269Y-113515848D01*
X187989129Y-113627110D01*
X187862466Y-113767783D01*
X187767820Y-113931715D01*
X187709326Y-114111742D01*
X187689540Y-114299999D01*
X183150460Y-114299999D01*
X183130674Y-114111744D01*
X183072179Y-113931716D01*
X183072179Y-113931715D01*
X182977533Y-113767783D01*
X182850870Y-113627110D01*
X182697730Y-113515848D01*
X182524802Y-113438855D01*
X182339648Y-113399500D01*
X182339646Y-113399500D01*
X182150354Y-113399500D01*
X182150352Y-113399500D01*
X181965197Y-113438855D01*
X181792269Y-113515848D01*
X181639129Y-113627110D01*
X181512466Y-113767783D01*
X181417820Y-113931715D01*
X181359326Y-114111742D01*
X181339540Y-114299999D01*
X164100460Y-114299999D01*
X164080674Y-114111744D01*
X164022179Y-113931716D01*
X164022179Y-113931715D01*
X163927533Y-113767783D01*
X163800870Y-113627110D01*
X163647730Y-113515848D01*
X163474802Y-113438855D01*
X163289648Y-113399500D01*
X163289646Y-113399500D01*
X163100354Y-113399500D01*
X163100352Y-113399500D01*
X162915197Y-113438855D01*
X162742269Y-113515848D01*
X162589129Y-113627110D01*
X162462466Y-113767783D01*
X162367820Y-113931715D01*
X162309326Y-114111742D01*
X162289540Y-114300000D01*
X157750460Y-114300000D01*
X157730674Y-114111744D01*
X157672179Y-113931716D01*
X157672179Y-113931715D01*
X157577533Y-113767783D01*
X157450870Y-113627110D01*
X157297730Y-113515848D01*
X157124802Y-113438855D01*
X156939648Y-113399500D01*
X156939646Y-113399500D01*
X156750354Y-113399500D01*
X156750352Y-113399500D01*
X156565197Y-113438855D01*
X156392269Y-113515848D01*
X156239129Y-113627110D01*
X156112466Y-113767783D01*
X156017820Y-113931715D01*
X155959326Y-114111742D01*
X155939540Y-114299999D01*
X147520500Y-114299999D01*
X147520500Y-111759999D01*
X154669540Y-111759999D01*
X154689326Y-111948257D01*
X154747820Y-112128284D01*
X154842466Y-112292216D01*
X154969129Y-112432889D01*
X155122269Y-112544151D01*
X155295197Y-112621144D01*
X155480352Y-112660500D01*
X155480354Y-112660500D01*
X155669648Y-112660500D01*
X155793083Y-112634262D01*
X155854803Y-112621144D01*
X156027730Y-112544151D01*
X156180871Y-112432888D01*
X156307533Y-112292216D01*
X156402179Y-112128284D01*
X156460674Y-111948256D01*
X156480460Y-111760000D01*
X193170138Y-111760000D01*
X193189546Y-111969450D01*
X193247108Y-112171763D01*
X193340871Y-112360062D01*
X193467630Y-112527919D01*
X193623077Y-112669628D01*
X193623079Y-112669629D01*
X193623080Y-112669630D01*
X193801920Y-112780363D01*
X193998062Y-112856349D01*
X194204827Y-112895000D01*
X194204829Y-112895000D01*
X194415171Y-112895000D01*
X194415173Y-112895000D01*
X194621938Y-112856349D01*
X194818080Y-112780363D01*
X194996920Y-112669630D01*
X195152368Y-112527920D01*
X195279130Y-112360060D01*
X195372890Y-112171766D01*
X195430454Y-111969449D01*
X195449862Y-111760000D01*
X195430454Y-111550551D01*
X195385262Y-111391716D01*
X195372891Y-111348236D01*
X195336001Y-111274151D01*
X195279130Y-111159940D01*
X195224133Y-111087112D01*
X195152369Y-110992080D01*
X194996922Y-110850371D01*
X194818080Y-110739637D01*
X194659640Y-110678257D01*
X194621938Y-110663651D01*
X194415173Y-110625000D01*
X194204827Y-110625000D01*
X193998061Y-110663650D01*
X193998062Y-110663651D01*
X193801919Y-110739637D01*
X193623077Y-110850371D01*
X193467630Y-110992080D01*
X193340871Y-111159937D01*
X193247108Y-111348236D01*
X193189546Y-111550549D01*
X193170138Y-111760000D01*
X156480460Y-111760000D01*
X156460674Y-111571744D01*
X156402179Y-111391716D01*
X156402179Y-111391715D01*
X156307533Y-111227783D01*
X156180870Y-111087110D01*
X156027730Y-110975848D01*
X155854802Y-110898855D01*
X155669648Y-110859500D01*
X155669646Y-110859500D01*
X155480354Y-110859500D01*
X155480352Y-110859500D01*
X155295197Y-110898855D01*
X155122269Y-110975848D01*
X154969129Y-111087110D01*
X154842466Y-111227783D01*
X154747820Y-111391715D01*
X154689326Y-111571742D01*
X154669540Y-111759999D01*
X147520500Y-111759999D01*
X147520500Y-110489999D01*
X162289540Y-110489999D01*
X162309326Y-110678257D01*
X162367820Y-110858284D01*
X162462466Y-111022216D01*
X162589129Y-111162889D01*
X162742269Y-111274151D01*
X162915197Y-111351144D01*
X163100352Y-111390500D01*
X163100354Y-111390500D01*
X163289648Y-111390500D01*
X163413084Y-111364262D01*
X163474803Y-111351144D01*
X163647730Y-111274151D01*
X163800871Y-111162888D01*
X163927533Y-111022216D01*
X164022179Y-110858284D01*
X164080674Y-110678256D01*
X164100460Y-110490000D01*
X164100460Y-110489999D01*
X187689540Y-110489999D01*
X187709326Y-110678257D01*
X187767820Y-110858284D01*
X187862466Y-111022216D01*
X187989129Y-111162889D01*
X188142269Y-111274151D01*
X188315197Y-111351144D01*
X188500352Y-111390500D01*
X188500354Y-111390500D01*
X188689648Y-111390500D01*
X188813084Y-111364262D01*
X188874803Y-111351144D01*
X189047730Y-111274151D01*
X189200871Y-111162888D01*
X189327533Y-111022216D01*
X189422179Y-110858284D01*
X189480674Y-110678256D01*
X189500460Y-110490000D01*
X189480674Y-110301744D01*
X189450332Y-110208363D01*
X189422179Y-110121715D01*
X189327533Y-109957783D01*
X189200870Y-109817110D01*
X189047730Y-109705848D01*
X188874802Y-109628855D01*
X188689648Y-109589500D01*
X188689646Y-109589500D01*
X188500354Y-109589500D01*
X188500352Y-109589500D01*
X188315197Y-109628855D01*
X188142269Y-109705848D01*
X187989129Y-109817110D01*
X187862466Y-109957783D01*
X187767820Y-110121715D01*
X187709326Y-110301742D01*
X187689540Y-110489999D01*
X164100460Y-110489999D01*
X164080674Y-110301744D01*
X164050332Y-110208363D01*
X164022179Y-110121715D01*
X163927533Y-109957783D01*
X163800870Y-109817110D01*
X163647730Y-109705848D01*
X163474802Y-109628855D01*
X163289648Y-109589500D01*
X163289646Y-109589500D01*
X163100354Y-109589500D01*
X163100352Y-109589500D01*
X162915197Y-109628855D01*
X162742269Y-109705848D01*
X162589129Y-109817110D01*
X162462466Y-109957783D01*
X162367820Y-110121715D01*
X162309326Y-110301742D01*
X162289540Y-110489999D01*
X147520500Y-110489999D01*
X147520500Y-107315000D01*
X149990138Y-107315000D01*
X150009546Y-107524450D01*
X150067108Y-107726763D01*
X150160871Y-107915062D01*
X150287630Y-108082919D01*
X150443077Y-108224628D01*
X150443079Y-108224629D01*
X150443080Y-108224630D01*
X150621920Y-108335363D01*
X150818062Y-108411349D01*
X151024827Y-108450000D01*
X151024829Y-108450000D01*
X151235171Y-108450000D01*
X151235173Y-108450000D01*
X151441938Y-108411349D01*
X151638080Y-108335363D01*
X151816920Y-108224630D01*
X151972368Y-108082920D01*
X151995127Y-108052783D01*
X152014621Y-108026966D01*
X152072744Y-107950000D01*
X154669540Y-107950000D01*
X154689326Y-108138257D01*
X154747820Y-108318284D01*
X154842466Y-108482216D01*
X154969129Y-108622889D01*
X155122269Y-108734151D01*
X155295197Y-108811144D01*
X155480352Y-108850500D01*
X155480354Y-108850500D01*
X155669648Y-108850500D01*
X155793083Y-108824262D01*
X155854803Y-108811144D01*
X156027730Y-108734151D01*
X156180871Y-108622888D01*
X156214987Y-108584999D01*
X176894540Y-108584999D01*
X176914326Y-108773257D01*
X176972820Y-108953284D01*
X177067466Y-109117216D01*
X177194129Y-109257889D01*
X177347269Y-109369151D01*
X177520197Y-109446144D01*
X177705352Y-109485500D01*
X177705354Y-109485500D01*
X177894648Y-109485500D01*
X178018084Y-109459262D01*
X178079803Y-109446144D01*
X178252730Y-109369151D01*
X178405871Y-109257888D01*
X178439986Y-109220000D01*
X193170138Y-109220000D01*
X193189546Y-109429450D01*
X193247108Y-109631763D01*
X193340871Y-109820062D01*
X193467630Y-109987919D01*
X193623077Y-110129628D01*
X193623079Y-110129629D01*
X193623080Y-110129630D01*
X193801920Y-110240363D01*
X193998062Y-110316349D01*
X194204827Y-110355000D01*
X194204829Y-110355000D01*
X194415171Y-110355000D01*
X194415173Y-110355000D01*
X194621938Y-110316349D01*
X194818080Y-110240363D01*
X194996920Y-110129630D01*
X195152368Y-109987920D01*
X195175127Y-109957783D01*
X195279128Y-109820062D01*
X195279130Y-109820060D01*
X195372890Y-109631766D01*
X195430454Y-109429449D01*
X195449862Y-109220000D01*
X195430454Y-109010551D01*
X195372890Y-108808234D01*
X195279130Y-108619940D01*
X195252744Y-108584999D01*
X195152369Y-108452080D01*
X194996922Y-108310371D01*
X194818080Y-108199637D01*
X194659640Y-108138257D01*
X194621938Y-108123651D01*
X194415173Y-108085000D01*
X194204827Y-108085000D01*
X193998062Y-108123651D01*
X193801919Y-108199637D01*
X193623077Y-108310371D01*
X193467630Y-108452080D01*
X193340871Y-108619937D01*
X193247108Y-108808236D01*
X193189546Y-109010549D01*
X193170138Y-109220000D01*
X178439986Y-109220000D01*
X178532533Y-109117216D01*
X178627179Y-108953284D01*
X178685674Y-108773256D01*
X178705460Y-108585000D01*
X178685674Y-108396744D01*
X178655332Y-108303363D01*
X178627179Y-108216715D01*
X178532533Y-108052783D01*
X178405870Y-107912110D01*
X178252730Y-107800848D01*
X178079802Y-107723855D01*
X177894648Y-107684500D01*
X177894646Y-107684500D01*
X177705354Y-107684500D01*
X177705352Y-107684500D01*
X177520197Y-107723855D01*
X177347269Y-107800848D01*
X177194129Y-107912110D01*
X177067466Y-108052783D01*
X176972820Y-108216715D01*
X176914326Y-108396742D01*
X176894540Y-108584999D01*
X156214987Y-108584999D01*
X156307533Y-108482216D01*
X156402179Y-108318284D01*
X156460674Y-108138256D01*
X156480460Y-107950000D01*
X156460674Y-107761744D01*
X156430332Y-107668363D01*
X156402179Y-107581715D01*
X156307533Y-107417783D01*
X156180870Y-107277110D01*
X156027730Y-107165848D01*
X155854802Y-107088855D01*
X155669648Y-107049500D01*
X155669646Y-107049500D01*
X155480354Y-107049500D01*
X155480352Y-107049500D01*
X155295197Y-107088855D01*
X155122269Y-107165848D01*
X154969129Y-107277110D01*
X154842466Y-107417783D01*
X154747820Y-107581715D01*
X154689326Y-107761742D01*
X154669540Y-107950000D01*
X152072744Y-107950000D01*
X152099130Y-107915060D01*
X152192890Y-107726766D01*
X152250454Y-107524449D01*
X152269862Y-107315000D01*
X152250454Y-107105551D01*
X152192890Y-106903234D01*
X152099130Y-106714940D01*
X152072745Y-106680000D01*
X179434540Y-106680000D01*
X179454326Y-106868257D01*
X179512820Y-107048284D01*
X179607466Y-107212216D01*
X179734129Y-107352889D01*
X179887269Y-107464151D01*
X180060197Y-107541144D01*
X180245352Y-107580500D01*
X180245354Y-107580500D01*
X180434648Y-107580500D01*
X180558083Y-107554262D01*
X180619803Y-107541144D01*
X180792730Y-107464151D01*
X180945871Y-107352888D01*
X181072533Y-107212216D01*
X181167179Y-107048284D01*
X181225674Y-106868256D01*
X181245460Y-106680000D01*
X193170138Y-106680000D01*
X193189546Y-106889450D01*
X193247108Y-107091763D01*
X193340871Y-107280062D01*
X193467630Y-107447919D01*
X193623077Y-107589628D01*
X193623079Y-107589629D01*
X193623080Y-107589630D01*
X193801920Y-107700363D01*
X193998062Y-107776349D01*
X194204827Y-107815000D01*
X194204829Y-107815000D01*
X194415171Y-107815000D01*
X194415173Y-107815000D01*
X194621938Y-107776349D01*
X194818080Y-107700363D01*
X194996920Y-107589630D01*
X195152368Y-107447920D01*
X195175127Y-107417783D01*
X195224133Y-107352888D01*
X195279130Y-107280060D01*
X195372890Y-107091766D01*
X195430454Y-106889449D01*
X195449862Y-106680000D01*
X195430454Y-106470551D01*
X195385262Y-106311716D01*
X195372891Y-106268236D01*
X195328954Y-106180000D01*
X195279130Y-106079940D01*
X195224133Y-106007112D01*
X195152369Y-105912080D01*
X194996922Y-105770371D01*
X194818080Y-105659637D01*
X194621938Y-105583651D01*
X194415173Y-105545000D01*
X194204827Y-105545000D01*
X193998061Y-105583650D01*
X193998062Y-105583651D01*
X193801919Y-105659637D01*
X193623077Y-105770371D01*
X193467630Y-105912080D01*
X193340871Y-106079937D01*
X193247108Y-106268236D01*
X193189546Y-106470549D01*
X193170138Y-106680000D01*
X181245460Y-106680000D01*
X181225674Y-106491744D01*
X181167179Y-106311716D01*
X181167179Y-106311715D01*
X181072533Y-106147783D01*
X180945870Y-106007110D01*
X180792730Y-105895848D01*
X180619802Y-105818855D01*
X180434648Y-105779500D01*
X180434646Y-105779500D01*
X180245354Y-105779500D01*
X180245352Y-105779500D01*
X180060197Y-105818855D01*
X179887269Y-105895848D01*
X179734129Y-106007110D01*
X179607466Y-106147783D01*
X179512820Y-106311715D01*
X179454326Y-106491742D01*
X179434540Y-106680000D01*
X152072745Y-106680000D01*
X152072744Y-106679999D01*
X151972369Y-106547080D01*
X151816922Y-106405371D01*
X151638080Y-106294637D01*
X151569926Y-106268234D01*
X151441938Y-106218651D01*
X151235173Y-106180000D01*
X151024827Y-106180000D01*
X150818061Y-106218651D01*
X150818062Y-106218651D01*
X150621919Y-106294637D01*
X150443077Y-106405371D01*
X150287630Y-106547080D01*
X150160871Y-106714937D01*
X150067108Y-106903236D01*
X150009546Y-107105549D01*
X149990138Y-107315000D01*
X147520500Y-107315000D01*
X147520500Y-104775000D01*
X149990138Y-104775000D01*
X150009546Y-104984450D01*
X150067108Y-105186763D01*
X150160871Y-105375062D01*
X150287630Y-105542919D01*
X150443077Y-105684628D01*
X150443079Y-105684629D01*
X150443080Y-105684630D01*
X150621920Y-105795363D01*
X150818062Y-105871349D01*
X151024827Y-105910000D01*
X151024829Y-105910000D01*
X151235171Y-105910000D01*
X151235173Y-105910000D01*
X151441938Y-105871349D01*
X151638080Y-105795363D01*
X151816920Y-105684630D01*
X151972368Y-105542920D01*
X152099130Y-105375060D01*
X152192890Y-105186766D01*
X152250454Y-104984449D01*
X152269862Y-104775000D01*
X152250454Y-104565551D01*
X152192890Y-104363234D01*
X152099130Y-104174940D01*
X152072745Y-104140000D01*
X164194540Y-104140000D01*
X164214326Y-104328257D01*
X164272820Y-104508284D01*
X164367466Y-104672216D01*
X164494129Y-104812889D01*
X164647269Y-104924151D01*
X164820197Y-105001144D01*
X165005352Y-105040500D01*
X165005354Y-105040500D01*
X165194648Y-105040500D01*
X165318084Y-105014262D01*
X165379803Y-105001144D01*
X165552730Y-104924151D01*
X165705871Y-104812888D01*
X165832533Y-104672216D01*
X165927179Y-104508284D01*
X165985674Y-104328256D01*
X166005460Y-104140000D01*
X165985674Y-103951744D01*
X165927179Y-103771716D01*
X165927179Y-103771715D01*
X165832533Y-103607783D01*
X165705870Y-103467110D01*
X165552730Y-103355848D01*
X165379802Y-103278855D01*
X165194648Y-103239500D01*
X165194646Y-103239500D01*
X165005354Y-103239500D01*
X165005352Y-103239500D01*
X164820197Y-103278855D01*
X164647269Y-103355848D01*
X164494129Y-103467110D01*
X164367466Y-103607783D01*
X164272820Y-103771715D01*
X164214326Y-103951742D01*
X164194540Y-104140000D01*
X152072745Y-104140000D01*
X151972369Y-104007080D01*
X151816922Y-103865371D01*
X151638080Y-103754637D01*
X151638080Y-103754636D01*
X151441938Y-103678651D01*
X151235173Y-103640000D01*
X151024827Y-103640000D01*
X150818062Y-103678650D01*
X150818062Y-103678651D01*
X150621919Y-103754637D01*
X150443077Y-103865371D01*
X150287630Y-104007080D01*
X150160871Y-104174937D01*
X150067108Y-104363236D01*
X150009546Y-104565549D01*
X149990138Y-104775000D01*
X147520500Y-104775000D01*
X147520500Y-102235000D01*
X149990138Y-102235000D01*
X150009546Y-102444450D01*
X150067108Y-102646763D01*
X150160871Y-102835062D01*
X150287630Y-103002919D01*
X150443077Y-103144628D01*
X150443079Y-103144629D01*
X150443080Y-103144630D01*
X150621920Y-103255363D01*
X150818062Y-103331349D01*
X151024827Y-103370000D01*
X151024829Y-103370000D01*
X151235171Y-103370000D01*
X151235173Y-103370000D01*
X151441938Y-103331349D01*
X151638080Y-103255363D01*
X151816920Y-103144630D01*
X151972368Y-103002920D01*
X152099130Y-102835060D01*
X152192890Y-102646766D01*
X152250454Y-102444449D01*
X152269862Y-102235000D01*
X152250454Y-102025551D01*
X152205262Y-101866716D01*
X152192891Y-101823236D01*
X152156001Y-101749151D01*
X152099130Y-101634940D01*
X152044133Y-101562112D01*
X151972369Y-101467080D01*
X151816922Y-101325371D01*
X151638080Y-101214637D01*
X151637652Y-101214471D01*
X151441938Y-101138651D01*
X151235173Y-101100000D01*
X151024827Y-101100000D01*
X150818061Y-101138651D01*
X150818062Y-101138651D01*
X150621919Y-101214637D01*
X150443077Y-101325371D01*
X150287630Y-101467080D01*
X150160871Y-101634937D01*
X150067108Y-101823236D01*
X150009546Y-102025549D01*
X149990138Y-102235000D01*
X147520500Y-102235000D01*
X147520500Y-100965000D01*
X174354540Y-100965000D01*
X174374326Y-101153257D01*
X174432820Y-101333284D01*
X174527466Y-101497216D01*
X174654129Y-101637889D01*
X174807269Y-101749151D01*
X174980197Y-101826144D01*
X175165352Y-101865500D01*
X175165354Y-101865500D01*
X175354648Y-101865500D01*
X175478084Y-101839262D01*
X175539803Y-101826144D01*
X175712730Y-101749151D01*
X175865871Y-101637888D01*
X175899987Y-101599999D01*
X185149540Y-101599999D01*
X185169326Y-101788257D01*
X185227820Y-101968284D01*
X185322466Y-102132216D01*
X185449129Y-102272889D01*
X185602269Y-102384151D01*
X185775197Y-102461144D01*
X185960352Y-102500500D01*
X185960354Y-102500500D01*
X186149648Y-102500500D01*
X186273083Y-102474262D01*
X186334803Y-102461144D01*
X186507730Y-102384151D01*
X186660871Y-102272888D01*
X186694987Y-102234999D01*
X193404540Y-102234999D01*
X193424326Y-102423257D01*
X193482820Y-102603284D01*
X193577466Y-102767216D01*
X193704129Y-102907889D01*
X193857269Y-103019151D01*
X194030197Y-103096144D01*
X194215352Y-103135500D01*
X194215354Y-103135500D01*
X194404648Y-103135500D01*
X194528084Y-103109262D01*
X194589803Y-103096144D01*
X194762730Y-103019151D01*
X194915871Y-102907888D01*
X195042533Y-102767216D01*
X195137179Y-102603284D01*
X195195674Y-102423256D01*
X195215460Y-102235000D01*
X195195674Y-102046744D01*
X195137179Y-101866716D01*
X195137179Y-101866715D01*
X195042533Y-101702783D01*
X194915870Y-101562110D01*
X194762732Y-101450849D01*
X194664159Y-101406962D01*
X194639043Y-101395779D01*
X194585806Y-101350529D01*
X194565485Y-101283680D01*
X194584530Y-101216457D01*
X194636896Y-101170201D01*
X194639042Y-101169221D01*
X194762730Y-101114151D01*
X194762730Y-101114150D01*
X194762732Y-101114150D01*
X194915870Y-101002889D01*
X194949987Y-100964999D01*
X195042533Y-100862216D01*
X195137179Y-100698284D01*
X195195674Y-100518256D01*
X195215460Y-100330000D01*
X195195674Y-100141744D01*
X195137179Y-99961716D01*
X195137179Y-99961715D01*
X195042533Y-99797783D01*
X194915870Y-99657110D01*
X194762730Y-99545848D01*
X194589802Y-99468855D01*
X194404648Y-99429500D01*
X194404646Y-99429500D01*
X194215354Y-99429500D01*
X194215352Y-99429500D01*
X194030197Y-99468855D01*
X193857269Y-99545848D01*
X193704129Y-99657110D01*
X193577466Y-99797783D01*
X193482820Y-99961715D01*
X193424326Y-100141742D01*
X193404540Y-100330000D01*
X193424326Y-100518257D01*
X193482820Y-100698284D01*
X193577466Y-100862216D01*
X193704129Y-101002889D01*
X193857269Y-101114151D01*
X193980956Y-101169221D01*
X194034193Y-101214471D01*
X194054514Y-101281320D01*
X194035469Y-101348544D01*
X193983103Y-101394799D01*
X193980956Y-101395779D01*
X193857269Y-101450848D01*
X193704129Y-101562110D01*
X193577466Y-101702783D01*
X193482820Y-101866715D01*
X193424326Y-102046742D01*
X193404540Y-102234999D01*
X186694987Y-102234999D01*
X186787533Y-102132216D01*
X186882179Y-101968284D01*
X186940674Y-101788256D01*
X186960460Y-101600000D01*
X186940674Y-101411744D01*
X186899063Y-101283680D01*
X186882179Y-101231715D01*
X186787533Y-101067783D01*
X186660870Y-100927110D01*
X186507730Y-100815848D01*
X186334802Y-100738855D01*
X186149648Y-100699500D01*
X186149646Y-100699500D01*
X185960354Y-100699500D01*
X185960352Y-100699500D01*
X185775197Y-100738855D01*
X185602269Y-100815848D01*
X185449129Y-100927110D01*
X185322466Y-101067783D01*
X185227820Y-101231715D01*
X185169326Y-101411742D01*
X185149540Y-101599999D01*
X175899987Y-101599999D01*
X175992533Y-101497216D01*
X176087179Y-101333284D01*
X176145674Y-101153256D01*
X176165460Y-100965000D01*
X176145674Y-100776744D01*
X176087179Y-100596716D01*
X176087179Y-100596715D01*
X175992533Y-100432783D01*
X175865870Y-100292110D01*
X175712730Y-100180848D01*
X175539802Y-100103855D01*
X175354648Y-100064500D01*
X175354646Y-100064500D01*
X175165354Y-100064500D01*
X175165352Y-100064500D01*
X174980197Y-100103855D01*
X174807269Y-100180848D01*
X174654129Y-100292110D01*
X174527466Y-100432783D01*
X174432820Y-100596715D01*
X174374326Y-100776742D01*
X174354540Y-100965000D01*
X147520500Y-100965000D01*
X147520500Y-98425000D01*
X154034540Y-98425000D01*
X154054326Y-98613257D01*
X154112820Y-98793284D01*
X154207466Y-98957216D01*
X154334129Y-99097889D01*
X154487269Y-99209151D01*
X154660197Y-99286144D01*
X154845352Y-99325500D01*
X154845354Y-99325500D01*
X155034648Y-99325500D01*
X155158084Y-99299262D01*
X155219803Y-99286144D01*
X155392730Y-99209151D01*
X155545871Y-99097888D01*
X155579987Y-99059999D01*
X182609540Y-99059999D01*
X182629326Y-99248257D01*
X182687820Y-99428284D01*
X182782466Y-99592216D01*
X182909129Y-99732889D01*
X183062269Y-99844151D01*
X183235197Y-99921144D01*
X183420352Y-99960500D01*
X183420354Y-99960500D01*
X183609648Y-99960500D01*
X183733084Y-99934262D01*
X183794803Y-99921144D01*
X183967730Y-99844151D01*
X184120871Y-99732888D01*
X184247533Y-99592216D01*
X184342179Y-99428284D01*
X184400674Y-99248256D01*
X184420460Y-99060000D01*
X184400674Y-98871744D01*
X184342179Y-98691716D01*
X184342179Y-98691715D01*
X184247533Y-98527783D01*
X184120870Y-98387110D01*
X183967730Y-98275848D01*
X183794802Y-98198855D01*
X183609648Y-98159500D01*
X183609646Y-98159500D01*
X183420354Y-98159500D01*
X183420352Y-98159500D01*
X183235197Y-98198855D01*
X183062269Y-98275848D01*
X182909129Y-98387110D01*
X182782466Y-98527783D01*
X182687820Y-98691715D01*
X182629326Y-98871742D01*
X182609540Y-99059999D01*
X155579987Y-99059999D01*
X155672533Y-98957216D01*
X155767179Y-98793284D01*
X155825674Y-98613256D01*
X155845460Y-98425000D01*
X155825674Y-98236744D01*
X155767179Y-98056716D01*
X155767179Y-98056715D01*
X155672533Y-97892783D01*
X155545870Y-97752110D01*
X155392730Y-97640848D01*
X155219802Y-97563855D01*
X155034648Y-97524500D01*
X155034646Y-97524500D01*
X154845354Y-97524500D01*
X154845352Y-97524500D01*
X154660197Y-97563855D01*
X154487269Y-97640848D01*
X154334129Y-97752110D01*
X154207466Y-97892783D01*
X154112820Y-98056715D01*
X154054326Y-98236742D01*
X154034540Y-98425000D01*
X147520500Y-98425000D01*
X147520500Y-97155000D01*
X152129540Y-97155000D01*
X152149326Y-97343257D01*
X152207820Y-97523284D01*
X152302466Y-97687216D01*
X152429129Y-97827889D01*
X152582269Y-97939151D01*
X152755197Y-98016144D01*
X152940352Y-98055500D01*
X152940354Y-98055500D01*
X153129648Y-98055500D01*
X153253083Y-98029262D01*
X153314803Y-98016144D01*
X153487730Y-97939151D01*
X153640871Y-97827888D01*
X153767533Y-97687216D01*
X153862179Y-97523284D01*
X153920674Y-97343256D01*
X153940460Y-97155000D01*
X153920674Y-96966744D01*
X153862179Y-96786716D01*
X153862179Y-96786715D01*
X153767533Y-96622783D01*
X153640870Y-96482110D01*
X153487730Y-96370848D01*
X153314802Y-96293855D01*
X153129648Y-96254500D01*
X153129646Y-96254500D01*
X152940354Y-96254500D01*
X152940352Y-96254500D01*
X152755197Y-96293855D01*
X152582269Y-96370848D01*
X152429129Y-96482110D01*
X152302466Y-96622783D01*
X152207820Y-96786715D01*
X152149326Y-96966742D01*
X152129540Y-97155000D01*
X147520500Y-97155000D01*
X147520500Y-90170000D01*
X159114540Y-90170000D01*
X159134326Y-90358257D01*
X159192820Y-90538284D01*
X159287466Y-90702216D01*
X159414129Y-90842889D01*
X159567269Y-90954151D01*
X159740197Y-91031144D01*
X159925352Y-91070500D01*
X159925354Y-91070500D01*
X160114648Y-91070500D01*
X160238084Y-91044262D01*
X160299803Y-91031144D01*
X160472730Y-90954151D01*
X160625871Y-90842888D01*
X160752533Y-90702216D01*
X160847179Y-90538284D01*
X160905674Y-90358256D01*
X160925460Y-90170000D01*
X160905674Y-89981744D01*
X160847179Y-89801716D01*
X160847179Y-89801715D01*
X160752533Y-89637783D01*
X160625870Y-89497110D01*
X160472730Y-89385848D01*
X160299802Y-89308855D01*
X160114648Y-89269500D01*
X160114646Y-89269500D01*
X159925354Y-89269500D01*
X159925352Y-89269500D01*
X159740197Y-89308855D01*
X159567269Y-89385848D01*
X159414129Y-89497110D01*
X159287466Y-89637783D01*
X159192820Y-89801715D01*
X159134326Y-89981742D01*
X159114540Y-90170000D01*
X147520500Y-90170000D01*
X147520500Y-88265000D01*
X165735000Y-88265000D01*
X165735000Y-96520000D01*
X179705000Y-96520000D01*
X179705000Y-96519999D01*
X183879540Y-96519999D01*
X183899326Y-96708257D01*
X183957820Y-96888284D01*
X184052466Y-97052216D01*
X184179129Y-97192889D01*
X184332269Y-97304151D01*
X184505197Y-97381144D01*
X184690352Y-97420500D01*
X184690354Y-97420500D01*
X184879648Y-97420500D01*
X185003084Y-97394262D01*
X185064803Y-97381144D01*
X185237730Y-97304151D01*
X185390871Y-97192888D01*
X185517533Y-97052216D01*
X185612179Y-96888284D01*
X185670674Y-96708256D01*
X185690460Y-96520000D01*
X185670674Y-96331744D01*
X185612179Y-96151716D01*
X185612179Y-96151715D01*
X185517533Y-95987783D01*
X185424986Y-95885000D01*
X194674540Y-95885000D01*
X194694326Y-96073257D01*
X194752820Y-96253284D01*
X194847466Y-96417216D01*
X194974129Y-96557889D01*
X195127269Y-96669151D01*
X195300197Y-96746144D01*
X195485352Y-96785500D01*
X195485354Y-96785500D01*
X195674648Y-96785500D01*
X195798083Y-96759262D01*
X195859803Y-96746144D01*
X196032730Y-96669151D01*
X196185871Y-96557888D01*
X196312533Y-96417216D01*
X196407179Y-96253284D01*
X196465674Y-96073256D01*
X196485460Y-95885000D01*
X196465674Y-95696744D01*
X196407179Y-95516716D01*
X196407179Y-95516715D01*
X196312533Y-95352783D01*
X196185870Y-95212110D01*
X196032730Y-95100848D01*
X195859802Y-95023855D01*
X195674648Y-94984500D01*
X195674646Y-94984500D01*
X195485354Y-94984500D01*
X195485352Y-94984500D01*
X195300197Y-95023855D01*
X195127269Y-95100848D01*
X194974129Y-95212110D01*
X194847466Y-95352783D01*
X194752820Y-95516715D01*
X194694326Y-95696742D01*
X194674540Y-95885000D01*
X185424986Y-95885000D01*
X185390870Y-95847110D01*
X185237730Y-95735848D01*
X185064802Y-95658855D01*
X184879648Y-95619500D01*
X184879646Y-95619500D01*
X184690354Y-95619500D01*
X184690352Y-95619500D01*
X184505197Y-95658855D01*
X184332269Y-95735848D01*
X184179129Y-95847110D01*
X184052466Y-95987783D01*
X183957820Y-96151715D01*
X183899326Y-96331742D01*
X183879540Y-96519999D01*
X179705000Y-96519999D01*
X179705000Y-94614999D01*
X191499540Y-94614999D01*
X191519326Y-94803257D01*
X191577820Y-94983284D01*
X191672466Y-95147216D01*
X191799129Y-95287889D01*
X191952269Y-95399151D01*
X192125197Y-95476144D01*
X192310352Y-95515500D01*
X192310354Y-95515500D01*
X192499648Y-95515500D01*
X192623084Y-95489262D01*
X192684803Y-95476144D01*
X192857730Y-95399151D01*
X193010871Y-95287888D01*
X193137533Y-95147216D01*
X193232179Y-94983284D01*
X193290674Y-94803256D01*
X193310460Y-94615000D01*
X193290674Y-94426744D01*
X193232179Y-94246716D01*
X193232179Y-94246715D01*
X193137533Y-94082783D01*
X193010870Y-93942110D01*
X192857730Y-93830848D01*
X192684802Y-93753855D01*
X192499648Y-93714500D01*
X192499646Y-93714500D01*
X192310354Y-93714500D01*
X192310352Y-93714500D01*
X192125197Y-93753855D01*
X191952269Y-93830848D01*
X191799129Y-93942110D01*
X191672466Y-94082783D01*
X191577820Y-94246715D01*
X191519326Y-94426742D01*
X191499540Y-94614999D01*
X179705000Y-94614999D01*
X179705000Y-91439999D01*
X188959540Y-91439999D01*
X188979326Y-91628257D01*
X189037820Y-91808284D01*
X189132466Y-91972216D01*
X189259129Y-92112889D01*
X189412269Y-92224151D01*
X189585197Y-92301144D01*
X189770352Y-92340500D01*
X189770354Y-92340500D01*
X189959648Y-92340500D01*
X190083083Y-92314262D01*
X190144803Y-92301144D01*
X190317730Y-92224151D01*
X190470871Y-92112888D01*
X190597533Y-91972216D01*
X190692179Y-91808284D01*
X190750674Y-91628256D01*
X190770460Y-91440000D01*
X190750674Y-91251744D01*
X190692179Y-91071716D01*
X190692179Y-91071715D01*
X190597533Y-90907783D01*
X190470870Y-90767110D01*
X190317730Y-90655848D01*
X190144802Y-90578855D01*
X189959648Y-90539500D01*
X189959646Y-90539500D01*
X189770354Y-90539500D01*
X189770352Y-90539500D01*
X189585197Y-90578855D01*
X189412269Y-90655848D01*
X189259129Y-90767110D01*
X189132466Y-90907783D01*
X189037820Y-91071715D01*
X188979326Y-91251742D01*
X188959540Y-91439999D01*
X179705000Y-91439999D01*
X179705000Y-90170000D01*
X184514540Y-90170000D01*
X184534326Y-90358257D01*
X184592820Y-90538284D01*
X184687466Y-90702216D01*
X184814129Y-90842889D01*
X184967269Y-90954151D01*
X185140197Y-91031144D01*
X185325352Y-91070500D01*
X185325354Y-91070500D01*
X185514648Y-91070500D01*
X185638084Y-91044262D01*
X185699803Y-91031144D01*
X185872730Y-90954151D01*
X186025871Y-90842888D01*
X186152533Y-90702216D01*
X186247179Y-90538284D01*
X186305674Y-90358256D01*
X186325460Y-90170000D01*
X186305674Y-89981744D01*
X186247179Y-89801716D01*
X186247179Y-89801715D01*
X186152533Y-89637783D01*
X186025870Y-89497110D01*
X185872730Y-89385848D01*
X185699802Y-89308855D01*
X185514648Y-89269500D01*
X185514646Y-89269500D01*
X185325354Y-89269500D01*
X185325352Y-89269500D01*
X185140197Y-89308855D01*
X184967269Y-89385848D01*
X184814129Y-89497110D01*
X184687466Y-89637783D01*
X184592820Y-89801715D01*
X184534326Y-89981742D01*
X184514540Y-90170000D01*
X179705000Y-90170000D01*
X179705000Y-88265000D01*
X165735000Y-88265000D01*
X147520500Y-88265000D01*
X147520500Y-85725000D01*
X177529540Y-85725000D01*
X177549326Y-85913257D01*
X177607820Y-86093284D01*
X177702466Y-86257216D01*
X177829129Y-86397889D01*
X177982269Y-86509151D01*
X178155197Y-86586144D01*
X178340352Y-86625500D01*
X178340354Y-86625500D01*
X178529648Y-86625500D01*
X178653083Y-86599262D01*
X178714803Y-86586144D01*
X178887730Y-86509151D01*
X179040871Y-86397888D01*
X179167533Y-86257216D01*
X179262179Y-86093284D01*
X179320674Y-85913256D01*
X179340460Y-85725000D01*
X179320674Y-85536744D01*
X179262179Y-85356716D01*
X179262179Y-85356715D01*
X179167533Y-85192783D01*
X179040870Y-85052110D01*
X178887730Y-84940848D01*
X178714802Y-84863855D01*
X178529648Y-84824500D01*
X178529646Y-84824500D01*
X178340354Y-84824500D01*
X178340352Y-84824500D01*
X178155197Y-84863855D01*
X177982269Y-84940848D01*
X177829129Y-85052110D01*
X177702466Y-85192783D01*
X177607820Y-85356715D01*
X177549326Y-85536742D01*
X177529540Y-85725000D01*
X147520500Y-85725000D01*
X147520500Y-84454999D01*
X154669540Y-84454999D01*
X154689326Y-84643257D01*
X154747820Y-84823284D01*
X154842466Y-84987216D01*
X154969129Y-85127889D01*
X155122269Y-85239151D01*
X155295197Y-85316144D01*
X155480352Y-85355500D01*
X155480354Y-85355500D01*
X155669648Y-85355500D01*
X155793083Y-85329262D01*
X155854803Y-85316144D01*
X156027730Y-85239151D01*
X156180871Y-85127888D01*
X156307533Y-84987216D01*
X156402179Y-84823284D01*
X156460674Y-84643256D01*
X156480460Y-84455000D01*
X187689540Y-84455000D01*
X187709326Y-84643257D01*
X187767820Y-84823284D01*
X187862466Y-84987216D01*
X187989129Y-85127889D01*
X188142269Y-85239151D01*
X188315197Y-85316144D01*
X188500352Y-85355500D01*
X188500354Y-85355500D01*
X188689648Y-85355500D01*
X188813084Y-85329262D01*
X188874803Y-85316144D01*
X189047730Y-85239151D01*
X189200871Y-85127888D01*
X189327533Y-84987216D01*
X189422179Y-84823284D01*
X189480674Y-84643256D01*
X189500460Y-84455000D01*
X189480674Y-84266744D01*
X189422179Y-84086716D01*
X189422179Y-84086715D01*
X189327533Y-83922783D01*
X189200870Y-83782110D01*
X189047730Y-83670848D01*
X188874802Y-83593855D01*
X188689648Y-83554500D01*
X188689646Y-83554500D01*
X188500354Y-83554500D01*
X188500352Y-83554500D01*
X188315197Y-83593855D01*
X188142269Y-83670848D01*
X187989129Y-83782110D01*
X187862466Y-83922783D01*
X187767820Y-84086715D01*
X187709326Y-84266742D01*
X187689540Y-84455000D01*
X156480460Y-84455000D01*
X156460674Y-84266744D01*
X156402179Y-84086716D01*
X156402179Y-84086715D01*
X156307533Y-83922783D01*
X156180870Y-83782110D01*
X156027730Y-83670848D01*
X155854802Y-83593855D01*
X155669648Y-83554500D01*
X155669646Y-83554500D01*
X155480354Y-83554500D01*
X155480352Y-83554500D01*
X155295197Y-83593855D01*
X155122269Y-83670848D01*
X154969129Y-83782110D01*
X154842466Y-83922783D01*
X154747820Y-84086715D01*
X154689326Y-84266742D01*
X154669540Y-84454999D01*
X147520500Y-84454999D01*
X147520500Y-83184999D01*
X148319540Y-83184999D01*
X148339326Y-83373257D01*
X148397820Y-83553284D01*
X148492466Y-83717216D01*
X148619129Y-83857889D01*
X148772269Y-83969151D01*
X148945197Y-84046144D01*
X149130352Y-84085500D01*
X149130354Y-84085500D01*
X149319648Y-84085500D01*
X149443084Y-84059262D01*
X149504803Y-84046144D01*
X149677730Y-83969151D01*
X149830871Y-83857888D01*
X149957533Y-83717216D01*
X150052179Y-83553284D01*
X150110674Y-83373256D01*
X150130460Y-83185000D01*
X150110674Y-82996744D01*
X150052179Y-82816716D01*
X150052179Y-82816715D01*
X149957533Y-82652783D01*
X149830870Y-82512110D01*
X149677730Y-82400848D01*
X149504802Y-82323855D01*
X149319648Y-82284500D01*
X149319646Y-82284500D01*
X149130354Y-82284500D01*
X149130352Y-82284500D01*
X148945197Y-82323855D01*
X148772269Y-82400848D01*
X148619129Y-82512110D01*
X148492466Y-82652783D01*
X148397820Y-82816715D01*
X148339326Y-82996742D01*
X148319540Y-83184999D01*
X147520500Y-83184999D01*
X147520500Y-81280000D01*
X159114540Y-81280000D01*
X159134326Y-81468257D01*
X159192820Y-81648284D01*
X159287466Y-81812216D01*
X159414129Y-81952889D01*
X159567269Y-82064151D01*
X159740197Y-82141144D01*
X159925352Y-82180500D01*
X159925354Y-82180500D01*
X160114648Y-82180500D01*
X160238083Y-82154262D01*
X160299803Y-82141144D01*
X160472730Y-82064151D01*
X160625871Y-81952888D01*
X160752533Y-81812216D01*
X160847179Y-81648284D01*
X160905674Y-81468256D01*
X160925460Y-81280000D01*
X160905674Y-81091744D01*
X160847179Y-80911716D01*
X160847179Y-80911715D01*
X160752533Y-80747783D01*
X160625870Y-80607110D01*
X160472730Y-80495848D01*
X160299802Y-80418855D01*
X160114648Y-80379500D01*
X160114646Y-80379500D01*
X159925354Y-80379500D01*
X159925352Y-80379500D01*
X159740197Y-80418855D01*
X159567269Y-80495848D01*
X159414129Y-80607110D01*
X159287466Y-80747783D01*
X159192820Y-80911715D01*
X159134326Y-81091742D01*
X159114540Y-81280000D01*
X147520500Y-81280000D01*
X147520500Y-76199999D01*
X148619340Y-76199999D01*
X148639936Y-76435407D01*
X148675866Y-76569500D01*
X148701097Y-76663663D01*
X148800965Y-76877830D01*
X148936505Y-77071401D01*
X148936508Y-77071404D01*
X149058430Y-77193326D01*
X149091915Y-77254649D01*
X149086931Y-77324341D01*
X149045059Y-77380274D01*
X149014083Y-77397189D01*
X148882669Y-77446204D01*
X148767454Y-77532454D01*
X148681204Y-77647668D01*
X148630910Y-77782515D01*
X148630909Y-77782517D01*
X148624500Y-77842127D01*
X148624500Y-77845448D01*
X148624500Y-77845449D01*
X148624500Y-79634560D01*
X148624500Y-79634578D01*
X148624501Y-79637872D01*
X148630909Y-79697483D01*
X148681204Y-79832331D01*
X148767454Y-79947546D01*
X148882669Y-80033796D01*
X149017517Y-80084091D01*
X149077127Y-80090500D01*
X150872872Y-80090499D01*
X150932483Y-80084091D01*
X151067331Y-80033796D01*
X151099118Y-80010000D01*
X165464540Y-80010000D01*
X165484326Y-80198257D01*
X165542820Y-80378284D01*
X165637466Y-80542216D01*
X165764129Y-80682889D01*
X165917269Y-80794151D01*
X166090197Y-80871144D01*
X166275352Y-80910500D01*
X166275354Y-80910500D01*
X166464648Y-80910500D01*
X166588083Y-80884262D01*
X166649803Y-80871144D01*
X166822730Y-80794151D01*
X166975871Y-80682888D01*
X167102533Y-80542216D01*
X167197179Y-80378284D01*
X167255674Y-80198256D01*
X167275460Y-80010000D01*
X167275460Y-80009999D01*
X192769540Y-80009999D01*
X192789326Y-80198257D01*
X192847820Y-80378284D01*
X192942466Y-80542216D01*
X193069129Y-80682889D01*
X193222269Y-80794151D01*
X193395197Y-80871144D01*
X193580352Y-80910500D01*
X193580354Y-80910500D01*
X193769648Y-80910500D01*
X193893084Y-80884262D01*
X193954803Y-80871144D01*
X194127730Y-80794151D01*
X194280871Y-80682888D01*
X194407533Y-80542216D01*
X194502179Y-80378284D01*
X194560674Y-80198256D01*
X194580460Y-80010000D01*
X194560674Y-79821744D01*
X194502179Y-79641716D01*
X194502179Y-79641715D01*
X194407533Y-79477783D01*
X194280870Y-79337110D01*
X194127730Y-79225848D01*
X193954802Y-79148855D01*
X193769648Y-79109500D01*
X193769646Y-79109500D01*
X193580354Y-79109500D01*
X193580352Y-79109500D01*
X193395197Y-79148855D01*
X193222269Y-79225848D01*
X193069129Y-79337110D01*
X192942466Y-79477783D01*
X192847820Y-79641715D01*
X192789326Y-79821742D01*
X192769540Y-80009999D01*
X167275460Y-80009999D01*
X167255674Y-79821744D01*
X167197179Y-79641716D01*
X167197179Y-79641715D01*
X167102533Y-79477783D01*
X166975870Y-79337110D01*
X166822730Y-79225848D01*
X166649802Y-79148855D01*
X166464648Y-79109500D01*
X166464646Y-79109500D01*
X166275354Y-79109500D01*
X166275352Y-79109500D01*
X166090197Y-79148855D01*
X165917269Y-79225848D01*
X165764129Y-79337110D01*
X165637466Y-79477783D01*
X165542820Y-79641715D01*
X165484326Y-79821742D01*
X165464540Y-80010000D01*
X151099118Y-80010000D01*
X151182546Y-79947546D01*
X151268796Y-79832331D01*
X151319091Y-79697483D01*
X151325500Y-79637873D01*
X151325499Y-77842128D01*
X151319091Y-77782517D01*
X151268796Y-77647669D01*
X151182546Y-77532454D01*
X151099118Y-77470000D01*
X164829540Y-77470000D01*
X164849326Y-77658257D01*
X164907820Y-77838284D01*
X165002466Y-78002216D01*
X165129129Y-78142889D01*
X165282269Y-78254151D01*
X165455197Y-78331144D01*
X165640352Y-78370500D01*
X165640354Y-78370500D01*
X165829648Y-78370500D01*
X165953083Y-78344262D01*
X166014803Y-78331144D01*
X166187730Y-78254151D01*
X166340871Y-78142888D01*
X166467533Y-78002216D01*
X166562179Y-77838284D01*
X166620674Y-77658256D01*
X166640460Y-77470000D01*
X183879540Y-77470000D01*
X183899326Y-77658257D01*
X183957820Y-77838284D01*
X184052466Y-78002216D01*
X184179129Y-78142889D01*
X184332269Y-78254151D01*
X184505197Y-78331144D01*
X184690352Y-78370500D01*
X184690354Y-78370500D01*
X184879648Y-78370500D01*
X185003084Y-78344262D01*
X185064803Y-78331144D01*
X185237730Y-78254151D01*
X185390871Y-78142888D01*
X185517533Y-78002216D01*
X185612179Y-77838284D01*
X185670674Y-77658256D01*
X185690460Y-77470000D01*
X185670674Y-77281744D01*
X185612179Y-77101716D01*
X185612179Y-77101715D01*
X185517533Y-76937783D01*
X185390870Y-76797110D01*
X185237730Y-76685848D01*
X185064802Y-76608855D01*
X184879648Y-76569500D01*
X184879646Y-76569500D01*
X184690354Y-76569500D01*
X184690352Y-76569500D01*
X184505197Y-76608855D01*
X184332269Y-76685848D01*
X184179129Y-76797110D01*
X184052466Y-76937783D01*
X183957820Y-77101715D01*
X183899326Y-77281742D01*
X183879540Y-77470000D01*
X166640460Y-77470000D01*
X166620674Y-77281744D01*
X166562179Y-77101716D01*
X166562179Y-77101715D01*
X166467533Y-76937783D01*
X166340870Y-76797110D01*
X166187730Y-76685848D01*
X166014802Y-76608855D01*
X165829648Y-76569500D01*
X165829646Y-76569500D01*
X165640354Y-76569500D01*
X165640352Y-76569500D01*
X165455197Y-76608855D01*
X165282269Y-76685848D01*
X165129129Y-76797110D01*
X165002466Y-76937783D01*
X164907820Y-77101715D01*
X164849326Y-77281742D01*
X164829540Y-77470000D01*
X151099118Y-77470000D01*
X151067331Y-77446204D01*
X151005898Y-77423291D01*
X150935916Y-77397189D01*
X150879983Y-77355317D01*
X150855566Y-77289853D01*
X150870418Y-77221580D01*
X150891563Y-77193332D01*
X151013495Y-77071401D01*
X151149035Y-76877830D01*
X151248903Y-76663663D01*
X151310063Y-76435408D01*
X151330659Y-76200000D01*
X151310063Y-75964592D01*
X151248903Y-75736337D01*
X151149035Y-75522171D01*
X151013495Y-75328599D01*
X150846401Y-75161505D01*
X150652830Y-75025965D01*
X150447033Y-74930000D01*
X183879540Y-74930000D01*
X183899326Y-75118257D01*
X183957820Y-75298284D01*
X184052466Y-75462216D01*
X184179129Y-75602889D01*
X184332269Y-75714151D01*
X184505197Y-75791144D01*
X184690352Y-75830500D01*
X184690354Y-75830500D01*
X184879648Y-75830500D01*
X185003084Y-75804262D01*
X185064803Y-75791144D01*
X185237730Y-75714151D01*
X185390871Y-75602888D01*
X185424987Y-75564999D01*
X186419540Y-75564999D01*
X186439326Y-75753257D01*
X186497820Y-75933284D01*
X186592466Y-76097216D01*
X186719129Y-76237889D01*
X186872269Y-76349151D01*
X187045197Y-76426144D01*
X187230352Y-76465500D01*
X187230354Y-76465500D01*
X187419648Y-76465500D01*
X187561219Y-76435408D01*
X187604803Y-76426144D01*
X187777730Y-76349151D01*
X187930871Y-76237888D01*
X188057533Y-76097216D01*
X188152179Y-75933284D01*
X188210674Y-75753256D01*
X188230460Y-75565000D01*
X188210674Y-75376744D01*
X188152179Y-75196716D01*
X188152179Y-75196715D01*
X188057533Y-75032783D01*
X187930870Y-74892110D01*
X187777732Y-74780849D01*
X187679159Y-74736962D01*
X187654043Y-74725779D01*
X187600806Y-74680529D01*
X187580485Y-74613680D01*
X187599530Y-74546457D01*
X187651896Y-74500201D01*
X187654042Y-74499221D01*
X187777730Y-74444151D01*
X187777730Y-74444150D01*
X187777732Y-74444150D01*
X187930870Y-74332889D01*
X188057533Y-74192216D01*
X188152179Y-74028284D01*
X188152179Y-74028283D01*
X188210674Y-73848256D01*
X188230460Y-73660000D01*
X188210674Y-73471744D01*
X188152179Y-73291716D01*
X188152179Y-73291715D01*
X188057533Y-73127783D01*
X187964986Y-73025000D01*
X192134540Y-73025000D01*
X192154326Y-73213257D01*
X192212820Y-73393284D01*
X192307466Y-73557216D01*
X192434129Y-73697889D01*
X192587269Y-73809151D01*
X192760197Y-73886144D01*
X192945352Y-73925500D01*
X192945354Y-73925500D01*
X193134648Y-73925500D01*
X193258083Y-73899262D01*
X193319803Y-73886144D01*
X193492730Y-73809151D01*
X193492729Y-73809150D01*
X193645870Y-73697889D01*
X193658560Y-73683796D01*
X193772533Y-73557216D01*
X193867179Y-73393284D01*
X193925674Y-73213256D01*
X193945460Y-73025000D01*
X193925674Y-72836744D01*
X193867179Y-72656716D01*
X193867179Y-72656715D01*
X193772533Y-72492783D01*
X193645870Y-72352110D01*
X193492730Y-72240848D01*
X193319802Y-72163855D01*
X193134648Y-72124500D01*
X193134646Y-72124500D01*
X192945354Y-72124500D01*
X192945352Y-72124500D01*
X192760197Y-72163855D01*
X192587269Y-72240848D01*
X192434129Y-72352110D01*
X192307466Y-72492783D01*
X192212820Y-72656715D01*
X192154326Y-72836742D01*
X192134540Y-73025000D01*
X187964986Y-73025000D01*
X187930870Y-72987110D01*
X187777730Y-72875848D01*
X187604802Y-72798855D01*
X187419648Y-72759500D01*
X187419646Y-72759500D01*
X187230354Y-72759500D01*
X187230352Y-72759500D01*
X187045197Y-72798855D01*
X186872269Y-72875848D01*
X186719129Y-72987110D01*
X186592466Y-73127783D01*
X186497820Y-73291715D01*
X186439326Y-73471742D01*
X186419540Y-73659999D01*
X186439326Y-73848257D01*
X186497820Y-74028284D01*
X186592466Y-74192216D01*
X186719129Y-74332889D01*
X186872269Y-74444151D01*
X186995956Y-74499221D01*
X187049193Y-74544471D01*
X187069514Y-74611320D01*
X187050469Y-74678544D01*
X186998103Y-74724799D01*
X186995956Y-74725779D01*
X186872269Y-74780848D01*
X186719129Y-74892110D01*
X186592466Y-75032783D01*
X186497820Y-75196715D01*
X186439326Y-75376742D01*
X186419540Y-75564999D01*
X185424987Y-75564999D01*
X185517533Y-75462216D01*
X185612179Y-75298284D01*
X185670674Y-75118256D01*
X185690460Y-74930000D01*
X185670674Y-74741744D01*
X185629063Y-74613680D01*
X185612179Y-74561715D01*
X185517533Y-74397783D01*
X185390870Y-74257110D01*
X185237730Y-74145848D01*
X185064802Y-74068855D01*
X184879648Y-74029500D01*
X184879646Y-74029500D01*
X184690354Y-74029500D01*
X184690352Y-74029500D01*
X184505197Y-74068855D01*
X184332269Y-74145848D01*
X184179129Y-74257110D01*
X184052466Y-74397783D01*
X183957820Y-74561715D01*
X183899326Y-74741742D01*
X183879540Y-74930000D01*
X150447033Y-74930000D01*
X150438663Y-74926097D01*
X150377501Y-74909709D01*
X150210407Y-74864936D01*
X149974999Y-74844340D01*
X149739592Y-74864936D01*
X149511336Y-74926097D01*
X149297170Y-75025965D01*
X149103598Y-75161505D01*
X148936505Y-75328598D01*
X148800965Y-75522170D01*
X148701097Y-75736336D01*
X148639936Y-75964592D01*
X148619340Y-76199999D01*
X147520500Y-76199999D01*
X147520500Y-69849999D01*
X148504340Y-69849999D01*
X148524936Y-70085407D01*
X148569709Y-70252502D01*
X148586097Y-70313663D01*
X148685965Y-70527830D01*
X148821505Y-70721401D01*
X148821508Y-70721404D01*
X148943430Y-70843326D01*
X148976915Y-70904649D01*
X148971931Y-70974341D01*
X148930059Y-71030274D01*
X148899083Y-71047189D01*
X148767669Y-71096204D01*
X148652454Y-71182454D01*
X148566204Y-71297668D01*
X148515910Y-71432515D01*
X148515909Y-71432517D01*
X148509500Y-71492127D01*
X148509500Y-71495448D01*
X148509500Y-71495449D01*
X148509500Y-73284560D01*
X148509500Y-73284578D01*
X148509501Y-73287872D01*
X148515909Y-73347483D01*
X148566204Y-73482331D01*
X148652454Y-73597546D01*
X148767669Y-73683796D01*
X148902517Y-73734091D01*
X148962127Y-73740500D01*
X150757872Y-73740499D01*
X150817483Y-73734091D01*
X150952331Y-73683796D01*
X151067546Y-73597546D01*
X151153796Y-73482331D01*
X151204091Y-73347483D01*
X151210500Y-73287873D01*
X151210499Y-71492128D01*
X151204091Y-71432517D01*
X151153796Y-71297669D01*
X151067546Y-71182454D01*
X150952331Y-71096204D01*
X150890898Y-71073291D01*
X150820916Y-71047189D01*
X150764983Y-71005317D01*
X150740566Y-70939853D01*
X150755418Y-70871580D01*
X150776563Y-70843332D01*
X150898495Y-70721401D01*
X151034035Y-70527830D01*
X151133903Y-70313663D01*
X151195063Y-70085408D01*
X151215659Y-69850000D01*
X151215659Y-69849999D01*
X187689540Y-69849999D01*
X187709326Y-70038257D01*
X187767820Y-70218284D01*
X187862466Y-70382216D01*
X187989129Y-70522889D01*
X188142269Y-70634151D01*
X188315197Y-70711144D01*
X188500352Y-70750500D01*
X188500354Y-70750500D01*
X188689648Y-70750500D01*
X188826552Y-70721400D01*
X188874803Y-70711144D01*
X189047730Y-70634151D01*
X189200871Y-70522888D01*
X189327533Y-70382216D01*
X189422179Y-70218284D01*
X189480674Y-70038256D01*
X189500460Y-69850000D01*
X189480674Y-69661744D01*
X189422179Y-69481716D01*
X189422179Y-69481715D01*
X189327533Y-69317783D01*
X189200870Y-69177110D01*
X189047730Y-69065848D01*
X188874802Y-68988855D01*
X188689648Y-68949500D01*
X188689646Y-68949500D01*
X188500354Y-68949500D01*
X188500352Y-68949500D01*
X188315197Y-68988855D01*
X188142269Y-69065848D01*
X187989129Y-69177110D01*
X187862466Y-69317783D01*
X187767820Y-69481715D01*
X187709326Y-69661742D01*
X187689540Y-69849999D01*
X151215659Y-69849999D01*
X151195063Y-69614592D01*
X151133903Y-69386337D01*
X151034035Y-69172171D01*
X150898495Y-68978599D01*
X150731401Y-68811505D01*
X150545839Y-68681573D01*
X150502216Y-68626998D01*
X150497351Y-68580000D01*
X190864540Y-68580000D01*
X190884326Y-68768257D01*
X190942820Y-68948284D01*
X191037466Y-69112216D01*
X191164129Y-69252889D01*
X191317269Y-69364151D01*
X191490197Y-69441144D01*
X191675352Y-69480500D01*
X191675354Y-69480500D01*
X191864648Y-69480500D01*
X191988084Y-69454262D01*
X192049803Y-69441144D01*
X192222730Y-69364151D01*
X192375871Y-69252888D01*
X192502533Y-69112216D01*
X192597179Y-68948284D01*
X192655674Y-68768256D01*
X192675460Y-68580000D01*
X192655674Y-68391744D01*
X192597179Y-68211716D01*
X192597179Y-68211715D01*
X192502533Y-68047783D01*
X192375870Y-67907110D01*
X192222730Y-67795848D01*
X192049802Y-67718855D01*
X191864648Y-67679500D01*
X191864646Y-67679500D01*
X191675354Y-67679500D01*
X191675352Y-67679500D01*
X191490197Y-67718855D01*
X191317269Y-67795848D01*
X191164129Y-67907110D01*
X191037466Y-68047783D01*
X190942820Y-68211715D01*
X190884326Y-68391742D01*
X190864540Y-68580000D01*
X150497351Y-68580000D01*
X150495022Y-68557500D01*
X150526545Y-68495145D01*
X150545837Y-68478428D01*
X150731401Y-68348495D01*
X150898495Y-68181401D01*
X151034035Y-67987830D01*
X151133903Y-67773663D01*
X151195063Y-67545408D01*
X151215659Y-67310000D01*
X151195063Y-67074592D01*
X151133903Y-66846337D01*
X151034035Y-66632171D01*
X150898495Y-66438599D01*
X150731401Y-66271505D01*
X150545839Y-66141573D01*
X150502216Y-66086998D01*
X150495022Y-66017500D01*
X150526545Y-65955145D01*
X150545837Y-65938428D01*
X150731401Y-65808495D01*
X150898495Y-65641401D01*
X151034035Y-65447830D01*
X151133903Y-65233663D01*
X151195063Y-65005408D01*
X151215659Y-64770000D01*
X164829540Y-64770000D01*
X164849326Y-64958257D01*
X164907820Y-65138284D01*
X165002466Y-65302216D01*
X165129129Y-65442889D01*
X165282269Y-65554151D01*
X165455197Y-65631144D01*
X165640352Y-65670500D01*
X165640354Y-65670500D01*
X165829648Y-65670500D01*
X165966547Y-65641401D01*
X166014803Y-65631144D01*
X166187730Y-65554151D01*
X166340871Y-65442888D01*
X166467533Y-65302216D01*
X166562179Y-65138284D01*
X166620674Y-64958256D01*
X166640460Y-64770000D01*
X166640460Y-64769999D01*
X190864540Y-64769999D01*
X190884326Y-64958257D01*
X190942820Y-65138284D01*
X191037466Y-65302216D01*
X191164129Y-65442889D01*
X191317269Y-65554151D01*
X191490197Y-65631144D01*
X191675352Y-65670500D01*
X191675354Y-65670500D01*
X191864648Y-65670500D01*
X192001547Y-65641401D01*
X192049803Y-65631144D01*
X192222730Y-65554151D01*
X192375871Y-65442888D01*
X192502533Y-65302216D01*
X192597179Y-65138284D01*
X192655674Y-64958256D01*
X192675460Y-64770000D01*
X192655674Y-64581744D01*
X192597179Y-64401716D01*
X192597179Y-64401715D01*
X192502533Y-64237783D01*
X192375870Y-64097110D01*
X192222730Y-63985848D01*
X192049802Y-63908855D01*
X191864648Y-63869500D01*
X191864646Y-63869500D01*
X191675354Y-63869500D01*
X191675352Y-63869500D01*
X191490197Y-63908855D01*
X191317269Y-63985848D01*
X191164129Y-64097110D01*
X191037466Y-64237783D01*
X190942820Y-64401715D01*
X190884326Y-64581742D01*
X190864540Y-64769999D01*
X166640460Y-64769999D01*
X166620674Y-64581744D01*
X166562179Y-64401716D01*
X166562179Y-64401715D01*
X166467533Y-64237783D01*
X166340870Y-64097110D01*
X166187730Y-63985848D01*
X166014802Y-63908855D01*
X165829648Y-63869500D01*
X165829646Y-63869500D01*
X165640354Y-63869500D01*
X165640352Y-63869500D01*
X165455197Y-63908855D01*
X165282269Y-63985848D01*
X165129129Y-64097110D01*
X165002466Y-64237783D01*
X164907820Y-64401715D01*
X164849326Y-64581742D01*
X164829540Y-64770000D01*
X151215659Y-64770000D01*
X151195063Y-64534592D01*
X151133903Y-64306337D01*
X151034035Y-64092171D01*
X150898495Y-63898599D01*
X150731401Y-63731505D01*
X150537830Y-63595965D01*
X150323663Y-63496097D01*
X150262502Y-63479709D01*
X150095407Y-63434936D01*
X149860000Y-63414340D01*
X149624592Y-63434936D01*
X149396336Y-63496097D01*
X149182170Y-63595965D01*
X148988598Y-63731505D01*
X148821505Y-63898598D01*
X148685965Y-64092170D01*
X148586097Y-64306336D01*
X148524936Y-64534592D01*
X148504340Y-64769999D01*
X148524936Y-65005407D01*
X148569709Y-65172502D01*
X148586097Y-65233663D01*
X148685965Y-65447830D01*
X148821505Y-65641401D01*
X148988599Y-65808495D01*
X149174160Y-65938426D01*
X149217783Y-65993002D01*
X149224976Y-66062501D01*
X149193454Y-66124855D01*
X149174159Y-66141575D01*
X148988595Y-66271508D01*
X148821505Y-66438598D01*
X148685965Y-66632170D01*
X148586097Y-66846336D01*
X148524936Y-67074592D01*
X148504340Y-67309999D01*
X148524936Y-67545407D01*
X148560866Y-67679500D01*
X148586097Y-67773663D01*
X148685965Y-67987830D01*
X148821505Y-68181401D01*
X148988599Y-68348495D01*
X149174160Y-68478426D01*
X149217783Y-68533002D01*
X149224976Y-68602501D01*
X149193454Y-68664855D01*
X149174159Y-68681575D01*
X148988595Y-68811508D01*
X148821505Y-68978598D01*
X148685965Y-69172170D01*
X148586097Y-69386336D01*
X148524936Y-69614592D01*
X148504340Y-69849999D01*
X147520500Y-69849999D01*
X147520500Y-55880000D01*
X148504340Y-55880000D01*
X148524936Y-56115407D01*
X148569709Y-56282501D01*
X148586097Y-56343663D01*
X148685965Y-56557830D01*
X148821505Y-56751401D01*
X148988599Y-56918495D01*
X149174596Y-57048732D01*
X149218219Y-57103307D01*
X149225412Y-57172806D01*
X149193890Y-57235160D01*
X149174595Y-57251880D01*
X148988919Y-57381892D01*
X148821890Y-57548921D01*
X148686400Y-57742421D01*
X148586569Y-57956507D01*
X148529364Y-58169999D01*
X148529364Y-58170000D01*
X149426314Y-58170000D01*
X149400507Y-58210156D01*
X149360000Y-58348111D01*
X149360000Y-58491889D01*
X149400507Y-58629844D01*
X149426314Y-58670000D01*
X148529364Y-58670000D01*
X148586569Y-58883492D01*
X148686399Y-59097576D01*
X148821893Y-59291081D01*
X148943946Y-59413134D01*
X148977431Y-59474457D01*
X148972447Y-59544149D01*
X148930575Y-59600082D01*
X148899599Y-59616997D01*
X148767669Y-59666204D01*
X148652454Y-59752454D01*
X148566204Y-59867668D01*
X148515910Y-60002515D01*
X148515909Y-60002517D01*
X148509500Y-60062127D01*
X148509500Y-60065448D01*
X148509500Y-60065449D01*
X148509500Y-61854560D01*
X148509500Y-61854578D01*
X148509501Y-61857872D01*
X148515909Y-61917483D01*
X148566204Y-62052331D01*
X148652454Y-62167546D01*
X148767669Y-62253796D01*
X148902517Y-62304091D01*
X148962127Y-62310500D01*
X150757872Y-62310499D01*
X150817483Y-62304091D01*
X150952331Y-62253796D01*
X150984118Y-62230000D01*
X178799540Y-62230000D01*
X178819326Y-62418257D01*
X178877820Y-62598284D01*
X178972466Y-62762216D01*
X179099129Y-62902889D01*
X179252269Y-63014151D01*
X179425197Y-63091144D01*
X179610352Y-63130500D01*
X179610354Y-63130500D01*
X179799648Y-63130500D01*
X179923083Y-63104262D01*
X179984803Y-63091144D01*
X180157730Y-63014151D01*
X180310871Y-62902888D01*
X180437533Y-62762216D01*
X180532179Y-62598284D01*
X180590674Y-62418256D01*
X180610460Y-62230000D01*
X180590674Y-62041744D01*
X180532179Y-61861716D01*
X180532179Y-61861715D01*
X180437533Y-61697783D01*
X180310870Y-61557110D01*
X180157730Y-61445848D01*
X179984802Y-61368855D01*
X179799648Y-61329500D01*
X179799646Y-61329500D01*
X179610354Y-61329500D01*
X179610352Y-61329500D01*
X179425197Y-61368855D01*
X179252269Y-61445848D01*
X179099129Y-61557110D01*
X178972466Y-61697783D01*
X178877820Y-61861715D01*
X178819326Y-62041742D01*
X178799540Y-62230000D01*
X150984118Y-62230000D01*
X151067546Y-62167546D01*
X151153796Y-62052331D01*
X151204091Y-61917483D01*
X151210500Y-61857873D01*
X151210499Y-60062128D01*
X151204091Y-60002517D01*
X151153796Y-59867669D01*
X151067546Y-59752454D01*
X150952331Y-59666204D01*
X150820399Y-59616996D01*
X150764467Y-59575125D01*
X150740050Y-59509661D01*
X150754902Y-59441388D01*
X150776053Y-59413133D01*
X150898109Y-59291077D01*
X151033600Y-59097576D01*
X151133430Y-58883492D01*
X151190636Y-58670000D01*
X150293686Y-58670000D01*
X150319493Y-58629844D01*
X150360000Y-58491889D01*
X150360000Y-58419999D01*
X194674540Y-58419999D01*
X194694326Y-58608257D01*
X194752820Y-58788284D01*
X194847466Y-58952216D01*
X194974129Y-59092889D01*
X195127269Y-59204151D01*
X195300197Y-59281144D01*
X195485352Y-59320500D01*
X195485354Y-59320500D01*
X195674648Y-59320500D01*
X195798084Y-59294262D01*
X195859803Y-59281144D01*
X196032730Y-59204151D01*
X196185870Y-59092889D01*
X196312533Y-58952216D01*
X196407179Y-58788284D01*
X196445612Y-58670000D01*
X196465674Y-58608256D01*
X196485460Y-58420000D01*
X196465674Y-58231744D01*
X196407179Y-58051716D01*
X196407179Y-58051715D01*
X196312533Y-57887783D01*
X196185870Y-57747110D01*
X196032730Y-57635848D01*
X195859802Y-57558855D01*
X195674648Y-57519500D01*
X195674646Y-57519500D01*
X195485354Y-57519500D01*
X195485352Y-57519500D01*
X195300197Y-57558855D01*
X195127269Y-57635848D01*
X194974129Y-57747110D01*
X194847466Y-57887783D01*
X194752820Y-58051715D01*
X194694326Y-58231742D01*
X194674540Y-58419999D01*
X150360000Y-58419999D01*
X150360000Y-58348111D01*
X150319493Y-58210156D01*
X150293686Y-58170000D01*
X151190636Y-58170000D01*
X151190635Y-58169999D01*
X151133430Y-57956507D01*
X151033599Y-57742421D01*
X150898109Y-57548921D01*
X150731081Y-57381893D01*
X150545404Y-57251880D01*
X150501780Y-57197303D01*
X150494587Y-57127804D01*
X150526109Y-57065450D01*
X150545399Y-57048734D01*
X150731401Y-56918495D01*
X150898495Y-56751401D01*
X151034035Y-56557830D01*
X151133903Y-56343663D01*
X151195063Y-56115408D01*
X151215659Y-55880000D01*
X151195063Y-55644592D01*
X151133903Y-55416337D01*
X151034035Y-55202171D01*
X150898495Y-55008599D01*
X150731401Y-54841505D01*
X150545839Y-54711573D01*
X150502215Y-54656997D01*
X150495023Y-54587498D01*
X150526545Y-54525144D01*
X150545831Y-54508432D01*
X150731401Y-54378495D01*
X150898495Y-54211401D01*
X151034035Y-54017830D01*
X151133903Y-53803663D01*
X151195063Y-53575408D01*
X151215659Y-53340000D01*
X151195063Y-53104592D01*
X151133903Y-52876337D01*
X151034035Y-52662171D01*
X150898495Y-52468599D01*
X150731401Y-52301505D01*
X150537830Y-52165965D01*
X150332033Y-52070000D01*
X164829540Y-52070000D01*
X164849326Y-52258257D01*
X164907820Y-52438284D01*
X165002466Y-52602216D01*
X165129129Y-52742889D01*
X165282269Y-52854151D01*
X165455197Y-52931144D01*
X165640352Y-52970500D01*
X165640354Y-52970500D01*
X165829648Y-52970500D01*
X165966547Y-52941401D01*
X166014803Y-52931144D01*
X166187730Y-52854151D01*
X166340871Y-52742888D01*
X166467533Y-52602216D01*
X166562179Y-52438284D01*
X166620674Y-52258256D01*
X166640460Y-52070000D01*
X187874340Y-52070000D01*
X187894936Y-52305407D01*
X187938663Y-52468598D01*
X187956097Y-52533663D01*
X188055965Y-52747830D01*
X188191505Y-52941401D01*
X188358599Y-53108495D01*
X188552170Y-53244035D01*
X188766337Y-53343903D01*
X188994592Y-53405062D01*
X188994592Y-53405063D01*
X189229999Y-53425659D01*
X189229999Y-53425658D01*
X189230000Y-53425659D01*
X189465408Y-53405063D01*
X189693663Y-53343903D01*
X189907830Y-53244035D01*
X190101401Y-53108495D01*
X190268495Y-52941401D01*
X190404035Y-52747830D01*
X190503903Y-52533663D01*
X190565063Y-52305408D01*
X190585659Y-52070000D01*
X190565063Y-51834592D01*
X190503903Y-51606337D01*
X190404035Y-51392171D01*
X190268495Y-51198599D01*
X190101401Y-51031505D01*
X189915839Y-50901573D01*
X189872216Y-50846998D01*
X189865022Y-50777500D01*
X189896545Y-50715145D01*
X189915837Y-50698428D01*
X190101401Y-50568495D01*
X190268495Y-50401401D01*
X190404035Y-50207830D01*
X190503903Y-49993663D01*
X190565063Y-49765408D01*
X190585659Y-49530000D01*
X190565063Y-49294592D01*
X190503903Y-49066337D01*
X190404035Y-48852171D01*
X190268495Y-48658599D01*
X190146569Y-48536672D01*
X190113084Y-48475350D01*
X190118068Y-48405658D01*
X190159940Y-48349725D01*
X190190915Y-48332810D01*
X190322331Y-48283796D01*
X190354118Y-48260000D01*
X192240564Y-48260000D01*
X192240790Y-48263736D01*
X192260063Y-48582362D01*
X192260064Y-48582372D01*
X192260290Y-48586104D01*
X192260963Y-48589778D01*
X192260965Y-48589792D01*
X192318502Y-48903762D01*
X192318504Y-48903771D01*
X192319179Y-48907453D01*
X192320295Y-48911036D01*
X192320296Y-48911038D01*
X192370506Y-49072169D01*
X192416373Y-49219361D01*
X192550455Y-49517279D01*
X192552388Y-49520477D01*
X192552392Y-49520484D01*
X192717532Y-49793658D01*
X192717536Y-49793663D01*
X192719470Y-49796863D01*
X192920952Y-50054036D01*
X193151964Y-50285048D01*
X193409137Y-50486530D01*
X193412339Y-50488466D01*
X193412341Y-50488467D01*
X193685515Y-50653607D01*
X193688721Y-50655545D01*
X193986639Y-50789627D01*
X194298547Y-50886821D01*
X194619896Y-50945710D01*
X194946000Y-50965436D01*
X195272104Y-50945710D01*
X195593453Y-50886821D01*
X195905361Y-50789627D01*
X196203279Y-50655545D01*
X196482863Y-50486530D01*
X196740036Y-50285048D01*
X196971048Y-50054036D01*
X197172530Y-49796863D01*
X197341545Y-49517279D01*
X197475627Y-49219361D01*
X197572821Y-48907453D01*
X197631710Y-48586104D01*
X197651436Y-48260000D01*
X197631710Y-47933896D01*
X197572821Y-47612547D01*
X197475627Y-47300639D01*
X197341545Y-47002721D01*
X197287777Y-46913778D01*
X197174467Y-46726341D01*
X197174466Y-46726339D01*
X197172530Y-46723137D01*
X196971048Y-46465964D01*
X196740036Y-46234952D01*
X196482863Y-46033470D01*
X196479663Y-46031536D01*
X196479658Y-46031532D01*
X196206484Y-45866392D01*
X196206477Y-45866388D01*
X196203279Y-45864455D01*
X195905361Y-45730373D01*
X195799579Y-45697410D01*
X195597038Y-45634296D01*
X195597036Y-45634295D01*
X195593453Y-45633179D01*
X195589771Y-45632504D01*
X195589762Y-45632502D01*
X195275792Y-45574965D01*
X195275778Y-45574963D01*
X195272104Y-45574290D01*
X195268372Y-45574064D01*
X195268362Y-45574063D01*
X194949736Y-45554790D01*
X194946000Y-45554564D01*
X194942264Y-45554790D01*
X194623637Y-45574063D01*
X194623625Y-45574064D01*
X194619896Y-45574290D01*
X194616223Y-45574962D01*
X194616207Y-45574965D01*
X194302237Y-45632502D01*
X194302224Y-45632505D01*
X194298547Y-45633179D01*
X194294967Y-45634294D01*
X194294961Y-45634296D01*
X193990216Y-45729258D01*
X193990210Y-45729260D01*
X193986639Y-45730373D01*
X193983230Y-45731907D01*
X193983228Y-45731908D01*
X193692135Y-45862918D01*
X193692128Y-45862921D01*
X193688721Y-45864455D01*
X193685528Y-45866384D01*
X193685515Y-45866392D01*
X193412341Y-46031532D01*
X193412328Y-46031540D01*
X193409137Y-46033470D01*
X193406195Y-46035774D01*
X193406189Y-46035779D01*
X193207581Y-46191379D01*
X193151964Y-46234952D01*
X193149318Y-46237597D01*
X193149310Y-46237605D01*
X192923605Y-46463310D01*
X192923597Y-46463318D01*
X192920952Y-46465964D01*
X192918640Y-46468914D01*
X192918640Y-46468915D01*
X192721779Y-46720189D01*
X192721774Y-46720195D01*
X192719470Y-46723137D01*
X192717540Y-46726328D01*
X192717532Y-46726341D01*
X192552392Y-46999515D01*
X192552384Y-46999528D01*
X192550455Y-47002721D01*
X192548921Y-47006128D01*
X192548918Y-47006135D01*
X192484975Y-47148211D01*
X192416373Y-47300639D01*
X192415260Y-47304210D01*
X192415258Y-47304216D01*
X192320602Y-47607981D01*
X192319179Y-47612547D01*
X192318505Y-47616224D01*
X192318502Y-47616237D01*
X192260965Y-47930207D01*
X192260962Y-47930223D01*
X192260290Y-47933896D01*
X192260064Y-47937625D01*
X192260063Y-47937637D01*
X192247542Y-48144644D01*
X192240564Y-48260000D01*
X190354118Y-48260000D01*
X190437546Y-48197546D01*
X190523796Y-48082331D01*
X190574091Y-47947483D01*
X190580500Y-47887873D01*
X190580499Y-46092128D01*
X190574091Y-46032517D01*
X190523796Y-45897669D01*
X190437546Y-45782454D01*
X190322331Y-45696204D01*
X190187483Y-45645909D01*
X190127873Y-45639500D01*
X190124550Y-45639500D01*
X188335439Y-45639500D01*
X188335420Y-45639500D01*
X188332128Y-45639501D01*
X188328848Y-45639853D01*
X188328840Y-45639854D01*
X188272515Y-45645909D01*
X188137669Y-45696204D01*
X188022454Y-45782454D01*
X187936204Y-45897668D01*
X187885909Y-46032516D01*
X187885807Y-46033470D01*
X187879500Y-46092127D01*
X187879500Y-46095448D01*
X187879500Y-46095449D01*
X187879500Y-47884560D01*
X187879500Y-47884578D01*
X187879501Y-47887872D01*
X187879853Y-47891152D01*
X187879854Y-47891159D01*
X187885909Y-47947484D01*
X187891809Y-47963303D01*
X187936204Y-48082331D01*
X188022454Y-48197546D01*
X188137669Y-48283796D01*
X188224029Y-48316006D01*
X188269082Y-48332810D01*
X188325016Y-48374681D01*
X188349433Y-48440146D01*
X188334581Y-48508419D01*
X188313431Y-48536673D01*
X188191503Y-48658601D01*
X188055965Y-48852170D01*
X187956097Y-49066336D01*
X187894936Y-49294592D01*
X187874340Y-49530000D01*
X187894936Y-49765407D01*
X187933913Y-49910870D01*
X187956097Y-49993663D01*
X188055965Y-50207830D01*
X188191505Y-50401401D01*
X188358599Y-50568495D01*
X188544160Y-50698426D01*
X188587783Y-50753002D01*
X188594976Y-50822501D01*
X188563454Y-50884855D01*
X188544159Y-50901575D01*
X188513738Y-50922875D01*
X188368828Y-51024343D01*
X188358595Y-51031508D01*
X188191505Y-51198598D01*
X188055965Y-51392170D01*
X187956097Y-51606336D01*
X187894936Y-51834592D01*
X187874340Y-52070000D01*
X166640460Y-52070000D01*
X166620674Y-51881744D01*
X166562179Y-51701716D01*
X166562179Y-51701715D01*
X166467533Y-51537783D01*
X166340870Y-51397110D01*
X166187730Y-51285848D01*
X166014802Y-51208855D01*
X165829648Y-51169500D01*
X165829646Y-51169500D01*
X165640354Y-51169500D01*
X165640352Y-51169500D01*
X165455197Y-51208855D01*
X165282269Y-51285848D01*
X165129129Y-51397110D01*
X165002466Y-51537783D01*
X164907820Y-51701715D01*
X164849326Y-51881742D01*
X164829540Y-52070000D01*
X150332033Y-52070000D01*
X150323663Y-52066097D01*
X150262502Y-52049709D01*
X150095407Y-52004936D01*
X149859999Y-51984340D01*
X149624592Y-52004936D01*
X149396336Y-52066097D01*
X149182170Y-52165965D01*
X148988598Y-52301505D01*
X148821505Y-52468598D01*
X148685965Y-52662170D01*
X148586097Y-52876336D01*
X148524936Y-53104592D01*
X148504340Y-53340000D01*
X148524936Y-53575407D01*
X148569709Y-53742502D01*
X148586097Y-53803663D01*
X148685965Y-54017830D01*
X148821505Y-54211401D01*
X148988599Y-54378495D01*
X149174160Y-54508426D01*
X149217783Y-54563002D01*
X149224976Y-54632501D01*
X149193454Y-54694855D01*
X149174159Y-54711575D01*
X148988595Y-54841508D01*
X148821505Y-55008598D01*
X148685965Y-55202170D01*
X148586097Y-55416336D01*
X148524936Y-55644592D01*
X148504340Y-55880000D01*
X147520500Y-55880000D01*
X147520500Y-48260000D01*
X148044564Y-48260000D01*
X148044790Y-48263736D01*
X148064063Y-48582362D01*
X148064064Y-48582372D01*
X148064290Y-48586104D01*
X148064963Y-48589778D01*
X148064965Y-48589792D01*
X148122502Y-48903762D01*
X148122504Y-48903771D01*
X148123179Y-48907453D01*
X148124295Y-48911036D01*
X148124296Y-48911038D01*
X148174506Y-49072169D01*
X148220373Y-49219361D01*
X148354455Y-49517279D01*
X148356388Y-49520477D01*
X148356392Y-49520484D01*
X148521532Y-49793658D01*
X148521536Y-49793663D01*
X148523470Y-49796863D01*
X148724952Y-50054036D01*
X148955964Y-50285048D01*
X149213137Y-50486530D01*
X149216339Y-50488466D01*
X149216341Y-50488467D01*
X149489515Y-50653607D01*
X149492721Y-50655545D01*
X149790639Y-50789627D01*
X150102547Y-50886821D01*
X150423896Y-50945710D01*
X150750000Y-50965436D01*
X151076104Y-50945710D01*
X151397453Y-50886821D01*
X151709361Y-50789627D01*
X152007279Y-50655545D01*
X152286863Y-50486530D01*
X152544036Y-50285048D01*
X152679084Y-50150000D01*
X169039723Y-50150000D01*
X169041332Y-50168400D01*
X169041678Y-50184753D01*
X169040709Y-50206328D01*
X169051444Y-50285576D01*
X169052094Y-50291413D01*
X169058792Y-50367976D01*
X169064461Y-50389132D01*
X169067564Y-50404578D01*
X169070925Y-50429390D01*
X169094573Y-50502170D01*
X169096416Y-50508393D01*
X169115423Y-50579327D01*
X169126135Y-50602298D01*
X169131683Y-50616383D01*
X169140481Y-50643460D01*
X169175128Y-50707847D01*
X169178314Y-50714199D01*
X169207896Y-50777637D01*
X169224406Y-50801215D01*
X169232023Y-50813575D01*
X169247148Y-50841681D01*
X169283146Y-50886821D01*
X169290588Y-50896153D01*
X169295214Y-50902340D01*
X169325109Y-50945034D01*
X169333403Y-50956878D01*
X169356186Y-50979661D01*
X169365452Y-50990029D01*
X169387493Y-51017667D01*
X169437387Y-51061259D01*
X169443484Y-51066959D01*
X169488123Y-51111598D01*
X169517330Y-51132049D01*
X169527793Y-51140244D01*
X169547585Y-51157535D01*
X169557004Y-51165765D01*
X169610940Y-51197990D01*
X169618435Y-51202843D01*
X169667361Y-51237102D01*
X169677490Y-51241825D01*
X169702799Y-51253628D01*
X169713991Y-51259560D01*
X169750236Y-51281215D01*
X169750239Y-51281216D01*
X169805839Y-51302083D01*
X169814669Y-51305792D01*
X169858999Y-51326464D01*
X169865670Y-51329575D01*
X169906757Y-51340584D01*
X169918235Y-51344266D01*
X169929903Y-51348645D01*
X169960976Y-51360307D01*
X170016024Y-51370296D01*
X170025970Y-51372527D01*
X170077023Y-51386207D01*
X170121133Y-51390065D01*
X170122814Y-51390213D01*
X170134148Y-51391733D01*
X170182453Y-51400500D01*
X170234985Y-51400500D01*
X170245791Y-51400971D01*
X170268447Y-51402954D01*
X170294999Y-51405277D01*
X170294999Y-51405276D01*
X170295000Y-51405277D01*
X170348286Y-51400615D01*
X170350025Y-51400500D01*
X170351155Y-51400500D01*
X170405172Y-51395638D01*
X170444803Y-51392171D01*
X170517665Y-51385797D01*
X170519186Y-51385377D01*
X170519188Y-51385377D01*
X170622997Y-51356726D01*
X170724330Y-51329575D01*
X170724330Y-51329574D01*
X170729379Y-51328222D01*
X170734153Y-51326464D01*
X170736168Y-51325493D01*
X170736170Y-51325493D01*
X170830454Y-51280088D01*
X170922639Y-51237102D01*
X170922647Y-51237095D01*
X170924393Y-51236282D01*
X170938155Y-51228222D01*
X170938973Y-51227829D01*
X171021156Y-51168118D01*
X171101877Y-51111598D01*
X171102748Y-51110726D01*
X171117543Y-51098089D01*
X171121078Y-51095522D01*
X171188237Y-51025277D01*
X171190097Y-51023377D01*
X171256593Y-50956882D01*
X171256593Y-50956881D01*
X171256598Y-50956877D01*
X171259285Y-50953039D01*
X171271232Y-50938471D01*
X171276632Y-50932825D01*
X171328288Y-50854566D01*
X171330082Y-50851929D01*
X171382102Y-50777639D01*
X171385539Y-50770267D01*
X171394434Y-50754362D01*
X171395332Y-50753002D01*
X171400635Y-50744968D01*
X171436114Y-50661958D01*
X171437713Y-50658377D01*
X171474575Y-50579330D01*
X171477572Y-50568143D01*
X171483324Y-50551508D01*
X171489102Y-50537990D01*
X171489101Y-50537990D01*
X171489103Y-50537988D01*
X171508434Y-50453291D01*
X171509533Y-50448863D01*
X171514752Y-50429387D01*
X171531207Y-50367977D01*
X171532516Y-50353005D01*
X171535153Y-50336227D01*
X171539191Y-50318537D01*
X171542934Y-50235183D01*
X171543274Y-50230039D01*
X171550277Y-50150000D01*
X173889723Y-50150000D01*
X173891332Y-50168400D01*
X173891678Y-50184753D01*
X173890709Y-50206328D01*
X173901444Y-50285576D01*
X173902094Y-50291413D01*
X173908792Y-50367976D01*
X173914461Y-50389132D01*
X173917564Y-50404578D01*
X173920925Y-50429390D01*
X173944573Y-50502170D01*
X173946416Y-50508393D01*
X173965423Y-50579327D01*
X173976135Y-50602298D01*
X173981683Y-50616383D01*
X173990481Y-50643460D01*
X174025128Y-50707847D01*
X174028314Y-50714199D01*
X174057896Y-50777637D01*
X174074406Y-50801215D01*
X174082023Y-50813575D01*
X174097148Y-50841681D01*
X174133146Y-50886821D01*
X174140588Y-50896153D01*
X174145214Y-50902340D01*
X174175109Y-50945034D01*
X174183403Y-50956878D01*
X174206186Y-50979661D01*
X174215452Y-50990029D01*
X174237493Y-51017667D01*
X174287387Y-51061259D01*
X174293484Y-51066959D01*
X174338123Y-51111598D01*
X174367330Y-51132049D01*
X174377793Y-51140244D01*
X174397585Y-51157535D01*
X174407004Y-51165765D01*
X174460940Y-51197990D01*
X174468435Y-51202843D01*
X174517361Y-51237102D01*
X174527490Y-51241825D01*
X174552799Y-51253628D01*
X174563991Y-51259560D01*
X174600236Y-51281215D01*
X174600239Y-51281216D01*
X174655839Y-51302083D01*
X174664669Y-51305792D01*
X174708999Y-51326464D01*
X174715670Y-51329575D01*
X174756757Y-51340584D01*
X174768235Y-51344266D01*
X174779903Y-51348645D01*
X174810976Y-51360307D01*
X174866024Y-51370296D01*
X174875970Y-51372527D01*
X174927023Y-51386207D01*
X174971133Y-51390065D01*
X174972814Y-51390213D01*
X174984148Y-51391733D01*
X175032453Y-51400500D01*
X175084985Y-51400500D01*
X175095791Y-51400971D01*
X175118447Y-51402954D01*
X175144999Y-51405277D01*
X175144999Y-51405276D01*
X175145000Y-51405277D01*
X175198286Y-51400615D01*
X175200025Y-51400500D01*
X175201155Y-51400500D01*
X175255172Y-51395638D01*
X175294803Y-51392171D01*
X175367665Y-51385797D01*
X175369186Y-51385377D01*
X175369188Y-51385377D01*
X175472997Y-51356726D01*
X175574330Y-51329575D01*
X175574330Y-51329574D01*
X175579379Y-51328222D01*
X175584153Y-51326464D01*
X175586168Y-51325493D01*
X175586170Y-51325493D01*
X175680454Y-51280088D01*
X175772639Y-51237102D01*
X175772647Y-51237095D01*
X175774393Y-51236282D01*
X175788155Y-51228222D01*
X175788973Y-51227829D01*
X175871156Y-51168118D01*
X175951877Y-51111598D01*
X175952748Y-51110726D01*
X175967543Y-51098089D01*
X175971078Y-51095522D01*
X176038237Y-51025277D01*
X176040097Y-51023377D01*
X176106593Y-50956882D01*
X176106593Y-50956881D01*
X176106598Y-50956877D01*
X176109285Y-50953039D01*
X176121232Y-50938471D01*
X176126632Y-50932825D01*
X176178288Y-50854566D01*
X176180082Y-50851929D01*
X176232102Y-50777639D01*
X176235539Y-50770267D01*
X176244434Y-50754362D01*
X176245332Y-50753002D01*
X176250635Y-50744968D01*
X176286114Y-50661958D01*
X176287713Y-50658377D01*
X176324575Y-50579330D01*
X176327572Y-50568143D01*
X176333324Y-50551508D01*
X176339102Y-50537990D01*
X176339101Y-50537990D01*
X176339103Y-50537988D01*
X176358434Y-50453291D01*
X176359533Y-50448863D01*
X176364752Y-50429387D01*
X176381207Y-50367977D01*
X176382516Y-50353005D01*
X176385153Y-50336227D01*
X176389191Y-50318537D01*
X176392934Y-50235183D01*
X176393274Y-50230039D01*
X176400277Y-50150000D01*
X176398667Y-50131608D01*
X176398321Y-50115238D01*
X176399290Y-50093670D01*
X176388549Y-50014385D01*
X176387905Y-50008596D01*
X176382517Y-49946993D01*
X176381208Y-49932027D01*
X176381206Y-49932020D01*
X176375536Y-49910860D01*
X176372434Y-49895414D01*
X176369075Y-49870614D01*
X176361291Y-49846659D01*
X176345421Y-49797816D01*
X176343578Y-49791592D01*
X176324575Y-49720671D01*
X176313867Y-49697708D01*
X176308317Y-49683619D01*
X176299517Y-49656535D01*
X176264869Y-49592148D01*
X176261681Y-49585794D01*
X176232102Y-49522362D01*
X176228543Y-49517279D01*
X176215591Y-49498782D01*
X176207975Y-49486423D01*
X176192852Y-49458319D01*
X176149404Y-49403837D01*
X176144785Y-49397661D01*
X176106598Y-49343123D01*
X176083804Y-49320329D01*
X176074546Y-49309969D01*
X176052506Y-49282332D01*
X176002611Y-49238739D01*
X175996514Y-49233039D01*
X175951878Y-49188402D01*
X175922664Y-49167947D01*
X175912210Y-49159759D01*
X175882996Y-49134235D01*
X175882991Y-49134232D01*
X175829073Y-49102017D01*
X175821550Y-49097145D01*
X175772640Y-49062898D01*
X175751043Y-49052827D01*
X175737201Y-49046372D01*
X175726014Y-49040442D01*
X175689764Y-49018784D01*
X175634171Y-48997921D01*
X175625349Y-48994216D01*
X175574330Y-48970425D01*
X175574328Y-48970424D01*
X175546575Y-48962987D01*
X175533228Y-48959411D01*
X175521762Y-48955732D01*
X175479024Y-48939693D01*
X175435636Y-48931818D01*
X175423964Y-48929700D01*
X175414018Y-48927468D01*
X175362980Y-48913793D01*
X175317175Y-48909785D01*
X175305846Y-48908264D01*
X175257550Y-48899500D01*
X175257547Y-48899500D01*
X175205015Y-48899500D01*
X175194208Y-48899028D01*
X175190485Y-48898702D01*
X175144999Y-48894722D01*
X175091723Y-48899384D01*
X175089970Y-48899500D01*
X175088845Y-48899500D01*
X175086099Y-48899747D01*
X175086078Y-48899748D01*
X175034827Y-48904361D01*
X174922333Y-48914202D01*
X174817002Y-48943273D01*
X174710661Y-48971767D01*
X174705813Y-48973551D01*
X174639451Y-49005509D01*
X174609528Y-49019919D01*
X174575055Y-49035994D01*
X174515634Y-49063703D01*
X174501875Y-49071762D01*
X174501029Y-49072169D01*
X174418830Y-49131889D01*
X174338120Y-49188403D01*
X174337235Y-49189289D01*
X174322467Y-49201901D01*
X174318923Y-49204476D01*
X174251846Y-49274632D01*
X174249903Y-49276619D01*
X174183401Y-49343122D01*
X174180708Y-49346968D01*
X174168776Y-49361517D01*
X174163370Y-49367172D01*
X174111775Y-49445333D01*
X174109866Y-49448141D01*
X174057897Y-49522363D01*
X174054460Y-49529734D01*
X174045571Y-49545629D01*
X174039364Y-49555032D01*
X174003893Y-49638021D01*
X174002260Y-49641676D01*
X173995331Y-49656536D01*
X173965423Y-49720673D01*
X173962426Y-49731856D01*
X173956680Y-49748478D01*
X173950897Y-49762009D01*
X173931576Y-49846659D01*
X173930460Y-49851157D01*
X173908793Y-49932020D01*
X173907483Y-49946993D01*
X173904847Y-49963767D01*
X173900809Y-49981460D01*
X173897066Y-50064777D01*
X173896719Y-50070016D01*
X173891331Y-50131613D01*
X173889723Y-50150000D01*
X171550277Y-50150000D01*
X171548667Y-50131608D01*
X171548321Y-50115238D01*
X171549290Y-50093670D01*
X171538549Y-50014385D01*
X171537905Y-50008596D01*
X171532517Y-49946993D01*
X171531208Y-49932027D01*
X171531206Y-49932020D01*
X171525536Y-49910860D01*
X171522434Y-49895414D01*
X171519075Y-49870614D01*
X171511291Y-49846659D01*
X171495421Y-49797816D01*
X171493578Y-49791592D01*
X171474575Y-49720671D01*
X171463867Y-49697708D01*
X171458317Y-49683619D01*
X171449517Y-49656535D01*
X171414869Y-49592148D01*
X171411681Y-49585794D01*
X171382102Y-49522362D01*
X171378543Y-49517279D01*
X171365591Y-49498782D01*
X171357975Y-49486423D01*
X171342852Y-49458319D01*
X171299404Y-49403837D01*
X171294785Y-49397661D01*
X171256598Y-49343123D01*
X171233804Y-49320329D01*
X171224546Y-49309969D01*
X171202506Y-49282332D01*
X171152611Y-49238739D01*
X171146514Y-49233039D01*
X171101878Y-49188402D01*
X171072664Y-49167947D01*
X171062210Y-49159759D01*
X171032996Y-49134235D01*
X171032991Y-49134232D01*
X170979073Y-49102017D01*
X170971550Y-49097145D01*
X170922640Y-49062898D01*
X170901043Y-49052827D01*
X170887201Y-49046372D01*
X170876014Y-49040442D01*
X170839764Y-49018784D01*
X170784171Y-48997921D01*
X170775349Y-48994216D01*
X170724330Y-48970425D01*
X170724328Y-48970424D01*
X170696575Y-48962987D01*
X170683228Y-48959411D01*
X170671762Y-48955732D01*
X170629024Y-48939693D01*
X170585636Y-48931818D01*
X170573964Y-48929700D01*
X170564018Y-48927468D01*
X170512980Y-48913793D01*
X170467175Y-48909785D01*
X170455846Y-48908264D01*
X170407550Y-48899500D01*
X170407547Y-48899500D01*
X170355015Y-48899500D01*
X170344208Y-48899028D01*
X170340485Y-48898702D01*
X170294999Y-48894722D01*
X170241723Y-48899384D01*
X170239970Y-48899500D01*
X170238845Y-48899500D01*
X170236099Y-48899747D01*
X170236078Y-48899748D01*
X170184827Y-48904361D01*
X170072333Y-48914202D01*
X169967002Y-48943273D01*
X169860661Y-48971767D01*
X169855813Y-48973551D01*
X169789451Y-49005509D01*
X169759528Y-49019919D01*
X169725055Y-49035994D01*
X169665634Y-49063703D01*
X169651875Y-49071762D01*
X169651029Y-49072169D01*
X169568830Y-49131889D01*
X169488120Y-49188403D01*
X169487235Y-49189289D01*
X169472467Y-49201901D01*
X169468923Y-49204476D01*
X169401846Y-49274632D01*
X169399903Y-49276619D01*
X169333401Y-49343122D01*
X169330708Y-49346968D01*
X169318776Y-49361517D01*
X169313370Y-49367172D01*
X169261775Y-49445333D01*
X169259866Y-49448141D01*
X169207897Y-49522363D01*
X169204460Y-49529734D01*
X169195571Y-49545629D01*
X169189364Y-49555032D01*
X169153893Y-49638021D01*
X169152260Y-49641676D01*
X169145331Y-49656536D01*
X169115423Y-49720673D01*
X169112426Y-49731856D01*
X169106680Y-49748478D01*
X169100897Y-49762009D01*
X169081576Y-49846659D01*
X169080460Y-49851157D01*
X169058793Y-49932020D01*
X169057483Y-49946993D01*
X169054847Y-49963767D01*
X169050809Y-49981460D01*
X169047066Y-50064777D01*
X169046719Y-50070016D01*
X169041331Y-50131613D01*
X169039723Y-50150000D01*
X152679084Y-50150000D01*
X152775048Y-50054036D01*
X152976530Y-49796863D01*
X153145545Y-49517279D01*
X153279627Y-49219361D01*
X153376821Y-48907453D01*
X153435710Y-48586104D01*
X153455436Y-48260000D01*
X153435710Y-47933896D01*
X153376821Y-47612547D01*
X153279627Y-47300639D01*
X153198327Y-47119998D01*
X168589699Y-47119998D01*
X168596750Y-47205097D01*
X168597061Y-47210071D01*
X168600820Y-47298532D01*
X168605092Y-47318356D01*
X168607451Y-47334237D01*
X168608865Y-47351301D01*
X168630661Y-47437371D01*
X168631669Y-47441676D01*
X168643630Y-47497171D01*
X168651046Y-47531581D01*
X168657333Y-47547226D01*
X168662479Y-47563017D01*
X168665843Y-47576301D01*
X168702875Y-47660727D01*
X168704377Y-47664301D01*
X168739936Y-47752790D01*
X168746979Y-47764229D01*
X168754945Y-47779431D01*
X168759076Y-47788849D01*
X168811366Y-47868886D01*
X168813147Y-47871693D01*
X168864931Y-47955796D01*
X168871539Y-47963303D01*
X168882268Y-47977409D01*
X168886021Y-47983153D01*
X168953117Y-48056040D01*
X168954930Y-48058054D01*
X169022437Y-48134756D01*
X169027561Y-48138894D01*
X169040886Y-48151382D01*
X169043216Y-48153913D01*
X169124933Y-48217515D01*
X169207920Y-48284523D01*
X169210685Y-48286067D01*
X169226359Y-48296458D01*
X169226374Y-48296470D01*
X169320162Y-48347225D01*
X169416046Y-48400790D01*
X169416051Y-48400791D01*
X169416252Y-48400904D01*
X169427584Y-48405935D01*
X169430492Y-48406933D01*
X169430497Y-48406936D01*
X169534276Y-48442563D01*
X169640829Y-48480211D01*
X169640836Y-48480212D01*
X169643802Y-48481260D01*
X169650015Y-48482296D01*
X169650019Y-48482298D01*
X169761324Y-48500871D01*
X169875799Y-48520500D01*
X169875800Y-48520500D01*
X170111047Y-48520500D01*
X170111049Y-48520500D01*
X170165010Y-48511494D01*
X170174905Y-48510251D01*
X170232541Y-48505346D01*
X170281941Y-48492482D01*
X170292760Y-48490177D01*
X170322221Y-48485261D01*
X170339982Y-48482298D01*
X170394946Y-48463428D01*
X170403949Y-48460714D01*
X170463249Y-48445275D01*
X170506642Y-48425659D01*
X170517443Y-48421374D01*
X170559503Y-48406936D01*
X170613622Y-48377647D01*
X170621530Y-48373726D01*
X170680486Y-48347077D01*
X170717108Y-48322324D01*
X170727515Y-48316011D01*
X170763626Y-48296470D01*
X170814877Y-48256578D01*
X170821589Y-48251706D01*
X170862716Y-48223910D01*
X170878002Y-48213580D01*
X170878776Y-48212837D01*
X170907460Y-48185345D01*
X170917064Y-48177044D01*
X170946784Y-48153913D01*
X170993081Y-48103619D01*
X170998490Y-48098100D01*
X171050118Y-48048621D01*
X171072350Y-48018559D01*
X171080797Y-48008333D01*
X171103979Y-47983153D01*
X171143238Y-47923060D01*
X171147312Y-47917203D01*
X171191879Y-47856947D01*
X171207163Y-47826630D01*
X171214079Y-47814632D01*
X171217704Y-47809082D01*
X171230924Y-47788849D01*
X171261123Y-47720000D01*
X171263927Y-47714045D01*
X171299207Y-47644074D01*
X171308150Y-47614868D01*
X171313158Y-47601374D01*
X171324157Y-47576300D01*
X171343453Y-47500099D01*
X171345088Y-47494255D01*
X171369015Y-47416126D01*
X171369014Y-47416126D01*
X171369016Y-47416123D01*
X171372461Y-47389215D01*
X171375247Y-47374548D01*
X171381134Y-47351305D01*
X171387903Y-47269600D01*
X171388484Y-47264095D01*
X171399298Y-47179654D01*
X171398291Y-47155960D01*
X171398602Y-47140481D01*
X171400300Y-47120000D01*
X171400300Y-47119998D01*
X174039699Y-47119998D01*
X174046750Y-47205097D01*
X174047061Y-47210071D01*
X174050820Y-47298532D01*
X174055092Y-47318356D01*
X174057451Y-47334237D01*
X174058865Y-47351301D01*
X174080661Y-47437371D01*
X174081669Y-47441676D01*
X174093630Y-47497171D01*
X174101046Y-47531581D01*
X174107333Y-47547226D01*
X174112479Y-47563017D01*
X174115843Y-47576301D01*
X174152875Y-47660727D01*
X174154377Y-47664301D01*
X174189936Y-47752790D01*
X174196979Y-47764229D01*
X174204945Y-47779431D01*
X174209076Y-47788849D01*
X174261366Y-47868886D01*
X174263147Y-47871693D01*
X174314931Y-47955796D01*
X174321539Y-47963303D01*
X174332268Y-47977409D01*
X174336021Y-47983153D01*
X174403117Y-48056040D01*
X174404930Y-48058054D01*
X174472437Y-48134756D01*
X174477561Y-48138894D01*
X174490886Y-48151382D01*
X174493216Y-48153913D01*
X174574933Y-48217515D01*
X174657920Y-48284523D01*
X174660685Y-48286067D01*
X174676359Y-48296458D01*
X174676374Y-48296470D01*
X174770162Y-48347225D01*
X174866046Y-48400790D01*
X174866051Y-48400791D01*
X174866252Y-48400904D01*
X174877584Y-48405935D01*
X174880492Y-48406933D01*
X174880497Y-48406936D01*
X174984276Y-48442563D01*
X175090829Y-48480211D01*
X175090836Y-48480212D01*
X175093802Y-48481260D01*
X175100015Y-48482296D01*
X175100019Y-48482298D01*
X175211324Y-48500871D01*
X175325799Y-48520500D01*
X175325800Y-48520500D01*
X175561047Y-48520500D01*
X175561049Y-48520500D01*
X175615010Y-48511494D01*
X175624905Y-48510251D01*
X175682541Y-48505346D01*
X175731941Y-48492482D01*
X175742760Y-48490177D01*
X175772221Y-48485261D01*
X175789982Y-48482298D01*
X175844946Y-48463428D01*
X175853949Y-48460714D01*
X175913249Y-48445275D01*
X175956642Y-48425659D01*
X175967443Y-48421374D01*
X176009503Y-48406936D01*
X176063622Y-48377647D01*
X176071530Y-48373726D01*
X176130486Y-48347077D01*
X176167108Y-48322324D01*
X176177515Y-48316011D01*
X176213626Y-48296470D01*
X176264877Y-48256578D01*
X176271589Y-48251706D01*
X176312716Y-48223910D01*
X176328002Y-48213580D01*
X176328776Y-48212837D01*
X176357460Y-48185345D01*
X176367064Y-48177044D01*
X176396784Y-48153913D01*
X176443081Y-48103619D01*
X176448490Y-48098100D01*
X176500118Y-48048621D01*
X176522350Y-48018559D01*
X176530797Y-48008333D01*
X176553979Y-47983153D01*
X176593238Y-47923060D01*
X176597312Y-47917203D01*
X176641879Y-47856947D01*
X176657163Y-47826630D01*
X176664079Y-47814632D01*
X176667704Y-47809082D01*
X176680924Y-47788849D01*
X176711123Y-47720000D01*
X176713927Y-47714045D01*
X176749207Y-47644074D01*
X176758150Y-47614868D01*
X176763158Y-47601374D01*
X176774157Y-47576300D01*
X176793453Y-47500099D01*
X176795088Y-47494255D01*
X176819015Y-47416126D01*
X176819014Y-47416126D01*
X176819016Y-47416123D01*
X176822461Y-47389215D01*
X176825247Y-47374548D01*
X176831134Y-47351305D01*
X176837903Y-47269600D01*
X176838484Y-47264095D01*
X176849298Y-47179654D01*
X176848291Y-47155960D01*
X176848602Y-47140481D01*
X176850300Y-47120000D01*
X176843248Y-47034902D01*
X176842938Y-47029944D01*
X176839180Y-46941468D01*
X176834907Y-46921642D01*
X176832547Y-46905756D01*
X176831134Y-46888695D01*
X176809328Y-46802589D01*
X176808336Y-46798354D01*
X176788954Y-46708419D01*
X176782665Y-46692770D01*
X176777521Y-46676989D01*
X176774157Y-46663700D01*
X176737102Y-46579224D01*
X176735621Y-46575696D01*
X176700066Y-46487214D01*
X176700064Y-46487210D01*
X176693016Y-46475764D01*
X176685051Y-46460561D01*
X176680924Y-46451151D01*
X176628628Y-46371106D01*
X176626879Y-46368350D01*
X176575069Y-46284205D01*
X176568454Y-46276689D01*
X176557730Y-46262588D01*
X176553980Y-46256849D01*
X176553979Y-46256847D01*
X176486876Y-46183953D01*
X176485068Y-46181944D01*
X176417564Y-46105245D01*
X176416253Y-46104186D01*
X176412439Y-46101106D01*
X176399115Y-46088619D01*
X176396785Y-46086088D01*
X176327956Y-46032517D01*
X176315066Y-46022484D01*
X176232080Y-45955477D01*
X176232079Y-45955476D01*
X176229315Y-45953932D01*
X176213637Y-45943538D01*
X176213626Y-45943529D01*
X176119837Y-45892774D01*
X176119836Y-45892773D01*
X176023954Y-45839210D01*
X176023952Y-45839209D01*
X176023762Y-45839103D01*
X176012401Y-45834059D01*
X175954953Y-45814337D01*
X175905723Y-45797436D01*
X175846658Y-45776567D01*
X175796203Y-45758740D01*
X175678675Y-45739128D01*
X175564202Y-45719500D01*
X175564200Y-45719500D01*
X175561049Y-45719500D01*
X175328951Y-45719500D01*
X175328949Y-45719500D01*
X175274991Y-45728503D01*
X175265102Y-45729747D01*
X175207460Y-45734653D01*
X175158077Y-45747511D01*
X175147249Y-45749819D01*
X175100023Y-45757701D01*
X175100021Y-45757701D01*
X175100019Y-45757702D01*
X175045056Y-45776570D01*
X175036052Y-45779284D01*
X174976748Y-45794725D01*
X174933361Y-45814337D01*
X174922554Y-45818624D01*
X174880496Y-45833063D01*
X174826395Y-45862341D01*
X174818460Y-45866276D01*
X174759509Y-45892925D01*
X174722882Y-45917679D01*
X174712470Y-45923994D01*
X174676373Y-45943529D01*
X174625124Y-45983417D01*
X174618402Y-45988296D01*
X174561999Y-46026418D01*
X174532549Y-46054643D01*
X174522919Y-46062967D01*
X174493216Y-46086087D01*
X174493214Y-46086088D01*
X174493214Y-46086089D01*
X174446926Y-46136369D01*
X174441500Y-46141905D01*
X174389883Y-46191376D01*
X174367659Y-46221426D01*
X174359196Y-46231670D01*
X174336023Y-46256843D01*
X174296782Y-46316905D01*
X174292671Y-46322815D01*
X174248119Y-46383054D01*
X174232826Y-46413384D01*
X174225917Y-46425371D01*
X174209077Y-46451147D01*
X174178887Y-46519974D01*
X174176054Y-46525987D01*
X174140792Y-46595925D01*
X174131847Y-46625131D01*
X174126842Y-46638620D01*
X174115844Y-46663695D01*
X174096552Y-46739871D01*
X174094912Y-46745736D01*
X174070983Y-46823875D01*
X174067538Y-46850775D01*
X174064750Y-46865455D01*
X174058865Y-46888697D01*
X174052097Y-46970377D01*
X174051517Y-46975886D01*
X174040701Y-47060348D01*
X174041707Y-47084025D01*
X174041396Y-47099520D01*
X174039699Y-47119998D01*
X171400300Y-47119998D01*
X171393248Y-47034902D01*
X171392938Y-47029944D01*
X171389180Y-46941468D01*
X171384907Y-46921642D01*
X171382547Y-46905756D01*
X171381134Y-46888695D01*
X171359328Y-46802589D01*
X171358336Y-46798354D01*
X171338954Y-46708419D01*
X171332665Y-46692770D01*
X171327521Y-46676989D01*
X171324157Y-46663700D01*
X171287102Y-46579224D01*
X171285621Y-46575696D01*
X171250066Y-46487214D01*
X171250064Y-46487210D01*
X171243016Y-46475764D01*
X171235051Y-46460561D01*
X171230924Y-46451151D01*
X171178628Y-46371106D01*
X171176879Y-46368350D01*
X171125069Y-46284205D01*
X171118454Y-46276689D01*
X171107730Y-46262588D01*
X171103980Y-46256849D01*
X171103979Y-46256847D01*
X171036876Y-46183953D01*
X171035068Y-46181944D01*
X170967564Y-46105245D01*
X170966253Y-46104186D01*
X170962439Y-46101106D01*
X170949115Y-46088619D01*
X170946785Y-46086088D01*
X170877956Y-46032517D01*
X170865066Y-46022484D01*
X170782080Y-45955477D01*
X170782079Y-45955476D01*
X170779315Y-45953932D01*
X170763637Y-45943538D01*
X170763626Y-45943529D01*
X170669837Y-45892774D01*
X170669837Y-45892773D01*
X170573954Y-45839210D01*
X170573952Y-45839209D01*
X170573762Y-45839103D01*
X170562401Y-45834059D01*
X170504953Y-45814337D01*
X170455723Y-45797436D01*
X170396658Y-45776567D01*
X170346203Y-45758740D01*
X170228675Y-45739128D01*
X170114202Y-45719500D01*
X170114200Y-45719500D01*
X170111049Y-45719500D01*
X169878951Y-45719500D01*
X169878949Y-45719500D01*
X169824991Y-45728503D01*
X169815102Y-45729747D01*
X169757460Y-45734653D01*
X169708077Y-45747511D01*
X169697249Y-45749819D01*
X169650023Y-45757701D01*
X169650021Y-45757701D01*
X169650019Y-45757702D01*
X169595056Y-45776570D01*
X169586052Y-45779284D01*
X169526748Y-45794725D01*
X169483361Y-45814337D01*
X169472554Y-45818624D01*
X169430496Y-45833063D01*
X169376395Y-45862341D01*
X169368460Y-45866276D01*
X169309509Y-45892925D01*
X169272882Y-45917679D01*
X169262470Y-45923994D01*
X169226373Y-45943529D01*
X169175124Y-45983417D01*
X169168402Y-45988296D01*
X169111999Y-46026418D01*
X169082549Y-46054643D01*
X169072919Y-46062967D01*
X169043216Y-46086087D01*
X169043214Y-46086088D01*
X169043214Y-46086089D01*
X168996926Y-46136369D01*
X168991500Y-46141905D01*
X168939883Y-46191376D01*
X168917659Y-46221426D01*
X168909196Y-46231670D01*
X168886023Y-46256843D01*
X168846782Y-46316905D01*
X168842671Y-46322815D01*
X168798119Y-46383054D01*
X168782826Y-46413384D01*
X168775917Y-46425371D01*
X168759077Y-46451147D01*
X168728887Y-46519974D01*
X168726054Y-46525987D01*
X168690792Y-46595925D01*
X168681847Y-46625131D01*
X168676842Y-46638620D01*
X168665844Y-46663695D01*
X168646552Y-46739871D01*
X168644912Y-46745736D01*
X168620983Y-46823875D01*
X168617538Y-46850775D01*
X168614750Y-46865455D01*
X168608865Y-46888697D01*
X168602097Y-46970377D01*
X168601517Y-46975886D01*
X168590701Y-47060348D01*
X168591707Y-47084025D01*
X168591396Y-47099520D01*
X168589699Y-47119998D01*
X153198327Y-47119998D01*
X153145545Y-47002721D01*
X153091777Y-46913778D01*
X152978467Y-46726341D01*
X152978466Y-46726339D01*
X152976530Y-46723137D01*
X152775048Y-46465964D01*
X152544036Y-46234952D01*
X152286863Y-46033470D01*
X152283663Y-46031536D01*
X152283658Y-46031532D01*
X152010484Y-45866392D01*
X152010477Y-45866388D01*
X152007279Y-45864455D01*
X151709361Y-45730373D01*
X151603579Y-45697410D01*
X151401038Y-45634296D01*
X151401036Y-45634295D01*
X151397453Y-45633179D01*
X151393771Y-45632504D01*
X151393762Y-45632502D01*
X151079792Y-45574965D01*
X151079778Y-45574963D01*
X151076104Y-45574290D01*
X151072372Y-45574064D01*
X151072362Y-45574063D01*
X150753736Y-45554790D01*
X150750000Y-45554564D01*
X150746264Y-45554790D01*
X150427637Y-45574063D01*
X150427625Y-45574064D01*
X150423896Y-45574290D01*
X150420223Y-45574962D01*
X150420207Y-45574965D01*
X150106237Y-45632502D01*
X150106224Y-45632505D01*
X150102547Y-45633179D01*
X150098967Y-45634294D01*
X150098961Y-45634296D01*
X149794216Y-45729258D01*
X149794210Y-45729260D01*
X149790639Y-45730373D01*
X149787230Y-45731907D01*
X149787228Y-45731908D01*
X149496135Y-45862918D01*
X149496128Y-45862921D01*
X149492721Y-45864455D01*
X149489528Y-45866384D01*
X149489515Y-45866392D01*
X149216341Y-46031532D01*
X149216328Y-46031540D01*
X149213137Y-46033470D01*
X149210195Y-46035774D01*
X149210189Y-46035779D01*
X149011581Y-46191379D01*
X148955964Y-46234952D01*
X148953318Y-46237597D01*
X148953310Y-46237605D01*
X148727605Y-46463310D01*
X148727597Y-46463318D01*
X148724952Y-46465964D01*
X148722640Y-46468914D01*
X148722640Y-46468915D01*
X148525779Y-46720189D01*
X148525774Y-46720195D01*
X148523470Y-46723137D01*
X148521540Y-46726328D01*
X148521532Y-46726341D01*
X148356392Y-46999515D01*
X148356384Y-46999528D01*
X148354455Y-47002721D01*
X148352921Y-47006128D01*
X148352918Y-47006135D01*
X148288975Y-47148211D01*
X148220373Y-47300639D01*
X148219260Y-47304210D01*
X148219258Y-47304216D01*
X148124602Y-47607981D01*
X148123179Y-47612547D01*
X148122505Y-47616224D01*
X148122502Y-47616237D01*
X148064965Y-47930207D01*
X148064962Y-47930223D01*
X148064290Y-47933896D01*
X148064064Y-47937625D01*
X148064063Y-47937637D01*
X148051542Y-48144644D01*
X148044564Y-48260000D01*
X147520500Y-48260000D01*
X147520500Y-45726092D01*
X147521097Y-45713938D01*
X147527797Y-45645909D01*
X147534973Y-45573049D01*
X147539711Y-45549228D01*
X147579033Y-45419599D01*
X147588329Y-45397158D01*
X147652182Y-45277697D01*
X147665683Y-45257493D01*
X147669349Y-45253026D01*
X147751610Y-45152789D01*
X147768789Y-45135610D01*
X147873495Y-45049681D01*
X147893697Y-45036182D01*
X148013158Y-44972329D01*
X148035599Y-44963033D01*
X148165226Y-44923712D01*
X148189050Y-44918973D01*
X148329938Y-44905097D01*
X148342093Y-44904500D01*
X148375882Y-44904500D01*
X197064118Y-44904500D01*
X197097907Y-44904500D01*
X197110061Y-44905097D01*
G37*
%TD.AperFunction*%
%TD*%
M02*
