%TF.GenerationSoftware,KiCad,Pcbnew,7.0.2-27-g7a50654f3b*%
%TF.CreationDate,2023-07-25T18:12:13-07:00*%
%TF.ProjectId,open_gamma_low_noise_v2,6f70656e-5f67-4616-9d6d-615f6c6f775f,rev?*%
%TF.SameCoordinates,Original*%
%TF.FileFunction,Legend,Top*%
%TF.FilePolarity,Positive*%
%FSLAX46Y46*%
G04 Gerber Fmt 4.6, Leading zero omitted, Abs format (unit mm)*
G04 Created by KiCad (PCBNEW 7.0.2-27-g7a50654f3b) date 2023-07-25 18:12:13*
%MOMM*%
%LPD*%
G01*
G04 APERTURE LIST*
%ADD10C,0.150000*%
%ADD11C,0.254000*%
%ADD12C,0.120000*%
%ADD13C,0.200000*%
%ADD14C,0.100000*%
%ADD15C,0.152400*%
G04 APERTURE END LIST*
D10*
%TO.C,D2*%
X186657619Y-82320594D02*
X185657619Y-82320594D01*
X185657619Y-82320594D02*
X185657619Y-82082499D01*
X185657619Y-82082499D02*
X185705238Y-81939642D01*
X185705238Y-81939642D02*
X185800476Y-81844404D01*
X185800476Y-81844404D02*
X185895714Y-81796785D01*
X185895714Y-81796785D02*
X186086190Y-81749166D01*
X186086190Y-81749166D02*
X186229047Y-81749166D01*
X186229047Y-81749166D02*
X186419523Y-81796785D01*
X186419523Y-81796785D02*
X186514761Y-81844404D01*
X186514761Y-81844404D02*
X186610000Y-81939642D01*
X186610000Y-81939642D02*
X186657619Y-82082499D01*
X186657619Y-82082499D02*
X186657619Y-82320594D01*
X185752857Y-81368213D02*
X185705238Y-81320594D01*
X185705238Y-81320594D02*
X185657619Y-81225356D01*
X185657619Y-81225356D02*
X185657619Y-80987261D01*
X185657619Y-80987261D02*
X185705238Y-80892023D01*
X185705238Y-80892023D02*
X185752857Y-80844404D01*
X185752857Y-80844404D02*
X185848095Y-80796785D01*
X185848095Y-80796785D02*
X185943333Y-80796785D01*
X185943333Y-80796785D02*
X186086190Y-80844404D01*
X186086190Y-80844404D02*
X186657619Y-81415832D01*
X186657619Y-81415832D02*
X186657619Y-80796785D01*
D11*
%TO.C,D1*%
X160722526Y-102537381D02*
X159452526Y-102537381D01*
X159452526Y-102537381D02*
X159452526Y-102235000D01*
X159452526Y-102235000D02*
X159513002Y-102053571D01*
X159513002Y-102053571D02*
X159633954Y-101932619D01*
X159633954Y-101932619D02*
X159754907Y-101872142D01*
X159754907Y-101872142D02*
X159996811Y-101811666D01*
X159996811Y-101811666D02*
X160178240Y-101811666D01*
X160178240Y-101811666D02*
X160420145Y-101872142D01*
X160420145Y-101872142D02*
X160541097Y-101932619D01*
X160541097Y-101932619D02*
X160662050Y-102053571D01*
X160662050Y-102053571D02*
X160722526Y-102235000D01*
X160722526Y-102235000D02*
X160722526Y-102537381D01*
X160722526Y-100602142D02*
X160722526Y-101327857D01*
X160722526Y-100965000D02*
X159452526Y-100965000D01*
X159452526Y-100965000D02*
X159633954Y-101085952D01*
X159633954Y-101085952D02*
X159754907Y-101206904D01*
X159754907Y-101206904D02*
X159815383Y-101327857D01*
%TO.C,U4*%
X193342380Y-70437526D02*
X193342380Y-71465621D01*
X193342380Y-71465621D02*
X193402857Y-71586573D01*
X193402857Y-71586573D02*
X193463333Y-71647050D01*
X193463333Y-71647050D02*
X193584285Y-71707526D01*
X193584285Y-71707526D02*
X193826190Y-71707526D01*
X193826190Y-71707526D02*
X193947142Y-71647050D01*
X193947142Y-71647050D02*
X194007619Y-71586573D01*
X194007619Y-71586573D02*
X194068095Y-71465621D01*
X194068095Y-71465621D02*
X194068095Y-70437526D01*
X195217142Y-70860859D02*
X195217142Y-71707526D01*
X194914761Y-70377050D02*
X194612380Y-71284192D01*
X194612380Y-71284192D02*
X195398571Y-71284192D01*
D10*
%TO.C,H3*%
X153670095Y-120858619D02*
X153670095Y-119858619D01*
X153670095Y-120334809D02*
X154241523Y-120334809D01*
X154241523Y-120858619D02*
X154241523Y-119858619D01*
X154622476Y-119858619D02*
X155241523Y-119858619D01*
X155241523Y-119858619D02*
X154908190Y-120239571D01*
X154908190Y-120239571D02*
X155051047Y-120239571D01*
X155051047Y-120239571D02*
X155146285Y-120287190D01*
X155146285Y-120287190D02*
X155193904Y-120334809D01*
X155193904Y-120334809D02*
X155241523Y-120430047D01*
X155241523Y-120430047D02*
X155241523Y-120668142D01*
X155241523Y-120668142D02*
X155193904Y-120763380D01*
X155193904Y-120763380D02*
X155146285Y-120811000D01*
X155146285Y-120811000D02*
X155051047Y-120858619D01*
X155051047Y-120858619D02*
X154765333Y-120858619D01*
X154765333Y-120858619D02*
X154670095Y-120811000D01*
X154670095Y-120811000D02*
X154622476Y-120763380D01*
%TO.C,R1*%
X188428333Y-72217619D02*
X188095000Y-71741428D01*
X187856905Y-72217619D02*
X187856905Y-71217619D01*
X187856905Y-71217619D02*
X188237857Y-71217619D01*
X188237857Y-71217619D02*
X188333095Y-71265238D01*
X188333095Y-71265238D02*
X188380714Y-71312857D01*
X188380714Y-71312857D02*
X188428333Y-71408095D01*
X188428333Y-71408095D02*
X188428333Y-71550952D01*
X188428333Y-71550952D02*
X188380714Y-71646190D01*
X188380714Y-71646190D02*
X188333095Y-71693809D01*
X188333095Y-71693809D02*
X188237857Y-71741428D01*
X188237857Y-71741428D02*
X187856905Y-71741428D01*
X189380714Y-72217619D02*
X188809286Y-72217619D01*
X189095000Y-72217619D02*
X189095000Y-71217619D01*
X189095000Y-71217619D02*
X188999762Y-71360476D01*
X188999762Y-71360476D02*
X188904524Y-71455714D01*
X188904524Y-71455714D02*
X188809286Y-71503333D01*
%TO.C,R17*%
X187063142Y-109682619D02*
X186729809Y-109206428D01*
X186491714Y-109682619D02*
X186491714Y-108682619D01*
X186491714Y-108682619D02*
X186872666Y-108682619D01*
X186872666Y-108682619D02*
X186967904Y-108730238D01*
X186967904Y-108730238D02*
X187015523Y-108777857D01*
X187015523Y-108777857D02*
X187063142Y-108873095D01*
X187063142Y-108873095D02*
X187063142Y-109015952D01*
X187063142Y-109015952D02*
X187015523Y-109111190D01*
X187015523Y-109111190D02*
X186967904Y-109158809D01*
X186967904Y-109158809D02*
X186872666Y-109206428D01*
X186872666Y-109206428D02*
X186491714Y-109206428D01*
X188015523Y-109682619D02*
X187444095Y-109682619D01*
X187729809Y-109682619D02*
X187729809Y-108682619D01*
X187729809Y-108682619D02*
X187634571Y-108825476D01*
X187634571Y-108825476D02*
X187539333Y-108920714D01*
X187539333Y-108920714D02*
X187444095Y-108968333D01*
X188348857Y-108682619D02*
X189015523Y-108682619D01*
X189015523Y-108682619D02*
X188586952Y-109682619D01*
%TO.C,C4*%
X194778333Y-63867380D02*
X194730714Y-63915000D01*
X194730714Y-63915000D02*
X194587857Y-63962619D01*
X194587857Y-63962619D02*
X194492619Y-63962619D01*
X194492619Y-63962619D02*
X194349762Y-63915000D01*
X194349762Y-63915000D02*
X194254524Y-63819761D01*
X194254524Y-63819761D02*
X194206905Y-63724523D01*
X194206905Y-63724523D02*
X194159286Y-63534047D01*
X194159286Y-63534047D02*
X194159286Y-63391190D01*
X194159286Y-63391190D02*
X194206905Y-63200714D01*
X194206905Y-63200714D02*
X194254524Y-63105476D01*
X194254524Y-63105476D02*
X194349762Y-63010238D01*
X194349762Y-63010238D02*
X194492619Y-62962619D01*
X194492619Y-62962619D02*
X194587857Y-62962619D01*
X194587857Y-62962619D02*
X194730714Y-63010238D01*
X194730714Y-63010238D02*
X194778333Y-63057857D01*
X195635476Y-63295952D02*
X195635476Y-63962619D01*
X195397381Y-62915000D02*
X195159286Y-63629285D01*
X195159286Y-63629285D02*
X195778333Y-63629285D01*
D11*
%TO.C,L1*%
X149013333Y-90122526D02*
X148408571Y-90122526D01*
X148408571Y-90122526D02*
X148408571Y-88852526D01*
X150101905Y-90122526D02*
X149376190Y-90122526D01*
X149739047Y-90122526D02*
X149739047Y-88852526D01*
X149739047Y-88852526D02*
X149618095Y-89033954D01*
X149618095Y-89033954D02*
X149497143Y-89154907D01*
X149497143Y-89154907D02*
X149376190Y-89215383D01*
D10*
%TO.C,R6*%
X182078333Y-105237619D02*
X181745000Y-104761428D01*
X181506905Y-105237619D02*
X181506905Y-104237619D01*
X181506905Y-104237619D02*
X181887857Y-104237619D01*
X181887857Y-104237619D02*
X181983095Y-104285238D01*
X181983095Y-104285238D02*
X182030714Y-104332857D01*
X182030714Y-104332857D02*
X182078333Y-104428095D01*
X182078333Y-104428095D02*
X182078333Y-104570952D01*
X182078333Y-104570952D02*
X182030714Y-104666190D01*
X182030714Y-104666190D02*
X181983095Y-104713809D01*
X181983095Y-104713809D02*
X181887857Y-104761428D01*
X181887857Y-104761428D02*
X181506905Y-104761428D01*
X182935476Y-104237619D02*
X182745000Y-104237619D01*
X182745000Y-104237619D02*
X182649762Y-104285238D01*
X182649762Y-104285238D02*
X182602143Y-104332857D01*
X182602143Y-104332857D02*
X182506905Y-104475714D01*
X182506905Y-104475714D02*
X182459286Y-104666190D01*
X182459286Y-104666190D02*
X182459286Y-105047142D01*
X182459286Y-105047142D02*
X182506905Y-105142380D01*
X182506905Y-105142380D02*
X182554524Y-105190000D01*
X182554524Y-105190000D02*
X182649762Y-105237619D01*
X182649762Y-105237619D02*
X182840238Y-105237619D01*
X182840238Y-105237619D02*
X182935476Y-105190000D01*
X182935476Y-105190000D02*
X182983095Y-105142380D01*
X182983095Y-105142380D02*
X183030714Y-105047142D01*
X183030714Y-105047142D02*
X183030714Y-104809047D01*
X183030714Y-104809047D02*
X182983095Y-104713809D01*
X182983095Y-104713809D02*
X182935476Y-104666190D01*
X182935476Y-104666190D02*
X182840238Y-104618571D01*
X182840238Y-104618571D02*
X182649762Y-104618571D01*
X182649762Y-104618571D02*
X182554524Y-104666190D01*
X182554524Y-104666190D02*
X182506905Y-104713809D01*
X182506905Y-104713809D02*
X182459286Y-104809047D01*
%TO.C,C3*%
X194778333Y-100697380D02*
X194730714Y-100745000D01*
X194730714Y-100745000D02*
X194587857Y-100792619D01*
X194587857Y-100792619D02*
X194492619Y-100792619D01*
X194492619Y-100792619D02*
X194349762Y-100745000D01*
X194349762Y-100745000D02*
X194254524Y-100649761D01*
X194254524Y-100649761D02*
X194206905Y-100554523D01*
X194206905Y-100554523D02*
X194159286Y-100364047D01*
X194159286Y-100364047D02*
X194159286Y-100221190D01*
X194159286Y-100221190D02*
X194206905Y-100030714D01*
X194206905Y-100030714D02*
X194254524Y-99935476D01*
X194254524Y-99935476D02*
X194349762Y-99840238D01*
X194349762Y-99840238D02*
X194492619Y-99792619D01*
X194492619Y-99792619D02*
X194587857Y-99792619D01*
X194587857Y-99792619D02*
X194730714Y-99840238D01*
X194730714Y-99840238D02*
X194778333Y-99887857D01*
X195111667Y-99792619D02*
X195730714Y-99792619D01*
X195730714Y-99792619D02*
X195397381Y-100173571D01*
X195397381Y-100173571D02*
X195540238Y-100173571D01*
X195540238Y-100173571D02*
X195635476Y-100221190D01*
X195635476Y-100221190D02*
X195683095Y-100268809D01*
X195683095Y-100268809D02*
X195730714Y-100364047D01*
X195730714Y-100364047D02*
X195730714Y-100602142D01*
X195730714Y-100602142D02*
X195683095Y-100697380D01*
X195683095Y-100697380D02*
X195635476Y-100745000D01*
X195635476Y-100745000D02*
X195540238Y-100792619D01*
X195540238Y-100792619D02*
X195254524Y-100792619D01*
X195254524Y-100792619D02*
X195159286Y-100745000D01*
X195159286Y-100745000D02*
X195111667Y-100697380D01*
%TO.C,C6*%
X194778333Y-102602380D02*
X194730714Y-102650000D01*
X194730714Y-102650000D02*
X194587857Y-102697619D01*
X194587857Y-102697619D02*
X194492619Y-102697619D01*
X194492619Y-102697619D02*
X194349762Y-102650000D01*
X194349762Y-102650000D02*
X194254524Y-102554761D01*
X194254524Y-102554761D02*
X194206905Y-102459523D01*
X194206905Y-102459523D02*
X194159286Y-102269047D01*
X194159286Y-102269047D02*
X194159286Y-102126190D01*
X194159286Y-102126190D02*
X194206905Y-101935714D01*
X194206905Y-101935714D02*
X194254524Y-101840476D01*
X194254524Y-101840476D02*
X194349762Y-101745238D01*
X194349762Y-101745238D02*
X194492619Y-101697619D01*
X194492619Y-101697619D02*
X194587857Y-101697619D01*
X194587857Y-101697619D02*
X194730714Y-101745238D01*
X194730714Y-101745238D02*
X194778333Y-101792857D01*
X195635476Y-101697619D02*
X195445000Y-101697619D01*
X195445000Y-101697619D02*
X195349762Y-101745238D01*
X195349762Y-101745238D02*
X195302143Y-101792857D01*
X195302143Y-101792857D02*
X195206905Y-101935714D01*
X195206905Y-101935714D02*
X195159286Y-102126190D01*
X195159286Y-102126190D02*
X195159286Y-102507142D01*
X195159286Y-102507142D02*
X195206905Y-102602380D01*
X195206905Y-102602380D02*
X195254524Y-102650000D01*
X195254524Y-102650000D02*
X195349762Y-102697619D01*
X195349762Y-102697619D02*
X195540238Y-102697619D01*
X195540238Y-102697619D02*
X195635476Y-102650000D01*
X195635476Y-102650000D02*
X195683095Y-102602380D01*
X195683095Y-102602380D02*
X195730714Y-102507142D01*
X195730714Y-102507142D02*
X195730714Y-102269047D01*
X195730714Y-102269047D02*
X195683095Y-102173809D01*
X195683095Y-102173809D02*
X195635476Y-102126190D01*
X195635476Y-102126190D02*
X195540238Y-102078571D01*
X195540238Y-102078571D02*
X195349762Y-102078571D01*
X195349762Y-102078571D02*
X195254524Y-102126190D01*
X195254524Y-102126190D02*
X195206905Y-102173809D01*
X195206905Y-102173809D02*
X195159286Y-102269047D01*
%TO.C,R14*%
X193667142Y-98252619D02*
X193333809Y-97776428D01*
X193095714Y-98252619D02*
X193095714Y-97252619D01*
X193095714Y-97252619D02*
X193476666Y-97252619D01*
X193476666Y-97252619D02*
X193571904Y-97300238D01*
X193571904Y-97300238D02*
X193619523Y-97347857D01*
X193619523Y-97347857D02*
X193667142Y-97443095D01*
X193667142Y-97443095D02*
X193667142Y-97585952D01*
X193667142Y-97585952D02*
X193619523Y-97681190D01*
X193619523Y-97681190D02*
X193571904Y-97728809D01*
X193571904Y-97728809D02*
X193476666Y-97776428D01*
X193476666Y-97776428D02*
X193095714Y-97776428D01*
X194619523Y-98252619D02*
X194048095Y-98252619D01*
X194333809Y-98252619D02*
X194333809Y-97252619D01*
X194333809Y-97252619D02*
X194238571Y-97395476D01*
X194238571Y-97395476D02*
X194143333Y-97490714D01*
X194143333Y-97490714D02*
X194048095Y-97538333D01*
X195476666Y-97585952D02*
X195476666Y-98252619D01*
X195238571Y-97205000D02*
X195000476Y-97919285D01*
X195000476Y-97919285D02*
X195619523Y-97919285D01*
%TO.C,C8*%
X188428333Y-70217380D02*
X188380714Y-70265000D01*
X188380714Y-70265000D02*
X188237857Y-70312619D01*
X188237857Y-70312619D02*
X188142619Y-70312619D01*
X188142619Y-70312619D02*
X187999762Y-70265000D01*
X187999762Y-70265000D02*
X187904524Y-70169761D01*
X187904524Y-70169761D02*
X187856905Y-70074523D01*
X187856905Y-70074523D02*
X187809286Y-69884047D01*
X187809286Y-69884047D02*
X187809286Y-69741190D01*
X187809286Y-69741190D02*
X187856905Y-69550714D01*
X187856905Y-69550714D02*
X187904524Y-69455476D01*
X187904524Y-69455476D02*
X187999762Y-69360238D01*
X187999762Y-69360238D02*
X188142619Y-69312619D01*
X188142619Y-69312619D02*
X188237857Y-69312619D01*
X188237857Y-69312619D02*
X188380714Y-69360238D01*
X188380714Y-69360238D02*
X188428333Y-69407857D01*
X188999762Y-69741190D02*
X188904524Y-69693571D01*
X188904524Y-69693571D02*
X188856905Y-69645952D01*
X188856905Y-69645952D02*
X188809286Y-69550714D01*
X188809286Y-69550714D02*
X188809286Y-69503095D01*
X188809286Y-69503095D02*
X188856905Y-69407857D01*
X188856905Y-69407857D02*
X188904524Y-69360238D01*
X188904524Y-69360238D02*
X188999762Y-69312619D01*
X188999762Y-69312619D02*
X189190238Y-69312619D01*
X189190238Y-69312619D02*
X189285476Y-69360238D01*
X189285476Y-69360238D02*
X189333095Y-69407857D01*
X189333095Y-69407857D02*
X189380714Y-69503095D01*
X189380714Y-69503095D02*
X189380714Y-69550714D01*
X189380714Y-69550714D02*
X189333095Y-69645952D01*
X189333095Y-69645952D02*
X189285476Y-69693571D01*
X189285476Y-69693571D02*
X189190238Y-69741190D01*
X189190238Y-69741190D02*
X188999762Y-69741190D01*
X188999762Y-69741190D02*
X188904524Y-69788809D01*
X188904524Y-69788809D02*
X188856905Y-69836428D01*
X188856905Y-69836428D02*
X188809286Y-69931666D01*
X188809286Y-69931666D02*
X188809286Y-70122142D01*
X188809286Y-70122142D02*
X188856905Y-70217380D01*
X188856905Y-70217380D02*
X188904524Y-70265000D01*
X188904524Y-70265000D02*
X188999762Y-70312619D01*
X188999762Y-70312619D02*
X189190238Y-70312619D01*
X189190238Y-70312619D02*
X189285476Y-70265000D01*
X189285476Y-70265000D02*
X189333095Y-70217380D01*
X189333095Y-70217380D02*
X189380714Y-70122142D01*
X189380714Y-70122142D02*
X189380714Y-69931666D01*
X189380714Y-69931666D02*
X189333095Y-69836428D01*
X189333095Y-69836428D02*
X189285476Y-69788809D01*
X189285476Y-69788809D02*
X189190238Y-69741190D01*
%TO.C,R15*%
X180967142Y-107142619D02*
X180633809Y-106666428D01*
X180395714Y-107142619D02*
X180395714Y-106142619D01*
X180395714Y-106142619D02*
X180776666Y-106142619D01*
X180776666Y-106142619D02*
X180871904Y-106190238D01*
X180871904Y-106190238D02*
X180919523Y-106237857D01*
X180919523Y-106237857D02*
X180967142Y-106333095D01*
X180967142Y-106333095D02*
X180967142Y-106475952D01*
X180967142Y-106475952D02*
X180919523Y-106571190D01*
X180919523Y-106571190D02*
X180871904Y-106618809D01*
X180871904Y-106618809D02*
X180776666Y-106666428D01*
X180776666Y-106666428D02*
X180395714Y-106666428D01*
X181919523Y-107142619D02*
X181348095Y-107142619D01*
X181633809Y-107142619D02*
X181633809Y-106142619D01*
X181633809Y-106142619D02*
X181538571Y-106285476D01*
X181538571Y-106285476D02*
X181443333Y-106380714D01*
X181443333Y-106380714D02*
X181348095Y-106428333D01*
X182824285Y-106142619D02*
X182348095Y-106142619D01*
X182348095Y-106142619D02*
X182300476Y-106618809D01*
X182300476Y-106618809D02*
X182348095Y-106571190D01*
X182348095Y-106571190D02*
X182443333Y-106523571D01*
X182443333Y-106523571D02*
X182681428Y-106523571D01*
X182681428Y-106523571D02*
X182776666Y-106571190D01*
X182776666Y-106571190D02*
X182824285Y-106618809D01*
X182824285Y-106618809D02*
X182871904Y-106714047D01*
X182871904Y-106714047D02*
X182871904Y-106952142D01*
X182871904Y-106952142D02*
X182824285Y-107047380D01*
X182824285Y-107047380D02*
X182776666Y-107095000D01*
X182776666Y-107095000D02*
X182681428Y-107142619D01*
X182681428Y-107142619D02*
X182443333Y-107142619D01*
X182443333Y-107142619D02*
X182348095Y-107095000D01*
X182348095Y-107095000D02*
X182300476Y-107047380D01*
%TO.C,C2*%
X163283333Y-110857380D02*
X163235714Y-110905000D01*
X163235714Y-110905000D02*
X163092857Y-110952619D01*
X163092857Y-110952619D02*
X162997619Y-110952619D01*
X162997619Y-110952619D02*
X162854762Y-110905000D01*
X162854762Y-110905000D02*
X162759524Y-110809761D01*
X162759524Y-110809761D02*
X162711905Y-110714523D01*
X162711905Y-110714523D02*
X162664286Y-110524047D01*
X162664286Y-110524047D02*
X162664286Y-110381190D01*
X162664286Y-110381190D02*
X162711905Y-110190714D01*
X162711905Y-110190714D02*
X162759524Y-110095476D01*
X162759524Y-110095476D02*
X162854762Y-110000238D01*
X162854762Y-110000238D02*
X162997619Y-109952619D01*
X162997619Y-109952619D02*
X163092857Y-109952619D01*
X163092857Y-109952619D02*
X163235714Y-110000238D01*
X163235714Y-110000238D02*
X163283333Y-110047857D01*
X163664286Y-110047857D02*
X163711905Y-110000238D01*
X163711905Y-110000238D02*
X163807143Y-109952619D01*
X163807143Y-109952619D02*
X164045238Y-109952619D01*
X164045238Y-109952619D02*
X164140476Y-110000238D01*
X164140476Y-110000238D02*
X164188095Y-110047857D01*
X164188095Y-110047857D02*
X164235714Y-110143095D01*
X164235714Y-110143095D02*
X164235714Y-110238333D01*
X164235714Y-110238333D02*
X164188095Y-110381190D01*
X164188095Y-110381190D02*
X163616667Y-110952619D01*
X163616667Y-110952619D02*
X164235714Y-110952619D01*
D11*
%TO.C,R8*%
X191595526Y-117051666D02*
X190990764Y-117475000D01*
X191595526Y-117777381D02*
X190325526Y-117777381D01*
X190325526Y-117777381D02*
X190325526Y-117293571D01*
X190325526Y-117293571D02*
X190386002Y-117172619D01*
X190386002Y-117172619D02*
X190446478Y-117112142D01*
X190446478Y-117112142D02*
X190567430Y-117051666D01*
X190567430Y-117051666D02*
X190748859Y-117051666D01*
X190748859Y-117051666D02*
X190869811Y-117112142D01*
X190869811Y-117112142D02*
X190930288Y-117172619D01*
X190930288Y-117172619D02*
X190990764Y-117293571D01*
X190990764Y-117293571D02*
X190990764Y-117777381D01*
X190869811Y-116325952D02*
X190809335Y-116446904D01*
X190809335Y-116446904D02*
X190748859Y-116507381D01*
X190748859Y-116507381D02*
X190627907Y-116567857D01*
X190627907Y-116567857D02*
X190567430Y-116567857D01*
X190567430Y-116567857D02*
X190446478Y-116507381D01*
X190446478Y-116507381D02*
X190386002Y-116446904D01*
X190386002Y-116446904D02*
X190325526Y-116325952D01*
X190325526Y-116325952D02*
X190325526Y-116084047D01*
X190325526Y-116084047D02*
X190386002Y-115963095D01*
X190386002Y-115963095D02*
X190446478Y-115902619D01*
X190446478Y-115902619D02*
X190567430Y-115842142D01*
X190567430Y-115842142D02*
X190627907Y-115842142D01*
X190627907Y-115842142D02*
X190748859Y-115902619D01*
X190748859Y-115902619D02*
X190809335Y-115963095D01*
X190809335Y-115963095D02*
X190869811Y-116084047D01*
X190869811Y-116084047D02*
X190869811Y-116325952D01*
X190869811Y-116325952D02*
X190930288Y-116446904D01*
X190930288Y-116446904D02*
X190990764Y-116507381D01*
X190990764Y-116507381D02*
X191111716Y-116567857D01*
X191111716Y-116567857D02*
X191353621Y-116567857D01*
X191353621Y-116567857D02*
X191474573Y-116507381D01*
X191474573Y-116507381D02*
X191535050Y-116446904D01*
X191535050Y-116446904D02*
X191595526Y-116325952D01*
X191595526Y-116325952D02*
X191595526Y-116084047D01*
X191595526Y-116084047D02*
X191535050Y-115963095D01*
X191535050Y-115963095D02*
X191474573Y-115902619D01*
X191474573Y-115902619D02*
X191353621Y-115842142D01*
X191353621Y-115842142D02*
X191111716Y-115842142D01*
X191111716Y-115842142D02*
X190990764Y-115902619D01*
X190990764Y-115902619D02*
X190930288Y-115963095D01*
X190930288Y-115963095D02*
X190869811Y-116084047D01*
D10*
%TO.C,R9*%
X155523333Y-101427619D02*
X155190000Y-100951428D01*
X154951905Y-101427619D02*
X154951905Y-100427619D01*
X154951905Y-100427619D02*
X155332857Y-100427619D01*
X155332857Y-100427619D02*
X155428095Y-100475238D01*
X155428095Y-100475238D02*
X155475714Y-100522857D01*
X155475714Y-100522857D02*
X155523333Y-100618095D01*
X155523333Y-100618095D02*
X155523333Y-100760952D01*
X155523333Y-100760952D02*
X155475714Y-100856190D01*
X155475714Y-100856190D02*
X155428095Y-100903809D01*
X155428095Y-100903809D02*
X155332857Y-100951428D01*
X155332857Y-100951428D02*
X154951905Y-100951428D01*
X155999524Y-101427619D02*
X156190000Y-101427619D01*
X156190000Y-101427619D02*
X156285238Y-101380000D01*
X156285238Y-101380000D02*
X156332857Y-101332380D01*
X156332857Y-101332380D02*
X156428095Y-101189523D01*
X156428095Y-101189523D02*
X156475714Y-100999047D01*
X156475714Y-100999047D02*
X156475714Y-100618095D01*
X156475714Y-100618095D02*
X156428095Y-100522857D01*
X156428095Y-100522857D02*
X156380476Y-100475238D01*
X156380476Y-100475238D02*
X156285238Y-100427619D01*
X156285238Y-100427619D02*
X156094762Y-100427619D01*
X156094762Y-100427619D02*
X155999524Y-100475238D01*
X155999524Y-100475238D02*
X155951905Y-100522857D01*
X155951905Y-100522857D02*
X155904286Y-100618095D01*
X155904286Y-100618095D02*
X155904286Y-100856190D01*
X155904286Y-100856190D02*
X155951905Y-100951428D01*
X155951905Y-100951428D02*
X155999524Y-100999047D01*
X155999524Y-100999047D02*
X156094762Y-101046666D01*
X156094762Y-101046666D02*
X156285238Y-101046666D01*
X156285238Y-101046666D02*
X156380476Y-100999047D01*
X156380476Y-100999047D02*
X156428095Y-100951428D01*
X156428095Y-100951428D02*
X156475714Y-100856190D01*
%TO.C,C14*%
X190232380Y-61602857D02*
X190280000Y-61650476D01*
X190280000Y-61650476D02*
X190327619Y-61793333D01*
X190327619Y-61793333D02*
X190327619Y-61888571D01*
X190327619Y-61888571D02*
X190280000Y-62031428D01*
X190280000Y-62031428D02*
X190184761Y-62126666D01*
X190184761Y-62126666D02*
X190089523Y-62174285D01*
X190089523Y-62174285D02*
X189899047Y-62221904D01*
X189899047Y-62221904D02*
X189756190Y-62221904D01*
X189756190Y-62221904D02*
X189565714Y-62174285D01*
X189565714Y-62174285D02*
X189470476Y-62126666D01*
X189470476Y-62126666D02*
X189375238Y-62031428D01*
X189375238Y-62031428D02*
X189327619Y-61888571D01*
X189327619Y-61888571D02*
X189327619Y-61793333D01*
X189327619Y-61793333D02*
X189375238Y-61650476D01*
X189375238Y-61650476D02*
X189422857Y-61602857D01*
X190327619Y-60650476D02*
X190327619Y-61221904D01*
X190327619Y-60936190D02*
X189327619Y-60936190D01*
X189327619Y-60936190D02*
X189470476Y-61031428D01*
X189470476Y-61031428D02*
X189565714Y-61126666D01*
X189565714Y-61126666D02*
X189613333Y-61221904D01*
X189660952Y-59793333D02*
X190327619Y-59793333D01*
X189280000Y-60031428D02*
X189994285Y-60269523D01*
X189994285Y-60269523D02*
X189994285Y-59650476D01*
%TO.C,UART1*%
X152233571Y-76932619D02*
X152233571Y-77742142D01*
X152233571Y-77742142D02*
X152281190Y-77837380D01*
X152281190Y-77837380D02*
X152328809Y-77885000D01*
X152328809Y-77885000D02*
X152424047Y-77932619D01*
X152424047Y-77932619D02*
X152614523Y-77932619D01*
X152614523Y-77932619D02*
X152709761Y-77885000D01*
X152709761Y-77885000D02*
X152757380Y-77837380D01*
X152757380Y-77837380D02*
X152804999Y-77742142D01*
X152804999Y-77742142D02*
X152804999Y-76932619D01*
X153233571Y-77646904D02*
X153709761Y-77646904D01*
X153138333Y-77932619D02*
X153471666Y-76932619D01*
X153471666Y-76932619D02*
X153804999Y-77932619D01*
X154709761Y-77932619D02*
X154376428Y-77456428D01*
X154138333Y-77932619D02*
X154138333Y-76932619D01*
X154138333Y-76932619D02*
X154519285Y-76932619D01*
X154519285Y-76932619D02*
X154614523Y-76980238D01*
X154614523Y-76980238D02*
X154662142Y-77027857D01*
X154662142Y-77027857D02*
X154709761Y-77123095D01*
X154709761Y-77123095D02*
X154709761Y-77265952D01*
X154709761Y-77265952D02*
X154662142Y-77361190D01*
X154662142Y-77361190D02*
X154614523Y-77408809D01*
X154614523Y-77408809D02*
X154519285Y-77456428D01*
X154519285Y-77456428D02*
X154138333Y-77456428D01*
X154995476Y-76932619D02*
X155566904Y-76932619D01*
X155281190Y-77932619D02*
X155281190Y-76932619D01*
X156424047Y-77932619D02*
X155852619Y-77932619D01*
X156138333Y-77932619D02*
X156138333Y-76932619D01*
X156138333Y-76932619D02*
X156043095Y-77075476D01*
X156043095Y-77075476D02*
X155947857Y-77170714D01*
X155947857Y-77170714D02*
X155852619Y-77218333D01*
D11*
%TO.C,R2*%
X150913333Y-112601526D02*
X150489999Y-111996764D01*
X150187618Y-112601526D02*
X150187618Y-111331526D01*
X150187618Y-111331526D02*
X150671428Y-111331526D01*
X150671428Y-111331526D02*
X150792380Y-111392002D01*
X150792380Y-111392002D02*
X150852857Y-111452478D01*
X150852857Y-111452478D02*
X150913333Y-111573430D01*
X150913333Y-111573430D02*
X150913333Y-111754859D01*
X150913333Y-111754859D02*
X150852857Y-111875811D01*
X150852857Y-111875811D02*
X150792380Y-111936288D01*
X150792380Y-111936288D02*
X150671428Y-111996764D01*
X150671428Y-111996764D02*
X150187618Y-111996764D01*
X151397142Y-111452478D02*
X151457618Y-111392002D01*
X151457618Y-111392002D02*
X151578571Y-111331526D01*
X151578571Y-111331526D02*
X151880952Y-111331526D01*
X151880952Y-111331526D02*
X152001904Y-111392002D01*
X152001904Y-111392002D02*
X152062380Y-111452478D01*
X152062380Y-111452478D02*
X152122857Y-111573430D01*
X152122857Y-111573430D02*
X152122857Y-111694383D01*
X152122857Y-111694383D02*
X152062380Y-111875811D01*
X152062380Y-111875811D02*
X151336666Y-112601526D01*
X151336666Y-112601526D02*
X152122857Y-112601526D01*
%TO.C,U8*%
X186992380Y-98377526D02*
X186992380Y-99405621D01*
X186992380Y-99405621D02*
X187052857Y-99526573D01*
X187052857Y-99526573D02*
X187113333Y-99587050D01*
X187113333Y-99587050D02*
X187234285Y-99647526D01*
X187234285Y-99647526D02*
X187476190Y-99647526D01*
X187476190Y-99647526D02*
X187597142Y-99587050D01*
X187597142Y-99587050D02*
X187657619Y-99526573D01*
X187657619Y-99526573D02*
X187718095Y-99405621D01*
X187718095Y-99405621D02*
X187718095Y-98377526D01*
X188504285Y-98921811D02*
X188383333Y-98861335D01*
X188383333Y-98861335D02*
X188322856Y-98800859D01*
X188322856Y-98800859D02*
X188262380Y-98679907D01*
X188262380Y-98679907D02*
X188262380Y-98619430D01*
X188262380Y-98619430D02*
X188322856Y-98498478D01*
X188322856Y-98498478D02*
X188383333Y-98438002D01*
X188383333Y-98438002D02*
X188504285Y-98377526D01*
X188504285Y-98377526D02*
X188746190Y-98377526D01*
X188746190Y-98377526D02*
X188867142Y-98438002D01*
X188867142Y-98438002D02*
X188927618Y-98498478D01*
X188927618Y-98498478D02*
X188988095Y-98619430D01*
X188988095Y-98619430D02*
X188988095Y-98679907D01*
X188988095Y-98679907D02*
X188927618Y-98800859D01*
X188927618Y-98800859D02*
X188867142Y-98861335D01*
X188867142Y-98861335D02*
X188746190Y-98921811D01*
X188746190Y-98921811D02*
X188504285Y-98921811D01*
X188504285Y-98921811D02*
X188383333Y-98982288D01*
X188383333Y-98982288D02*
X188322856Y-99042764D01*
X188322856Y-99042764D02*
X188262380Y-99163716D01*
X188262380Y-99163716D02*
X188262380Y-99405621D01*
X188262380Y-99405621D02*
X188322856Y-99526573D01*
X188322856Y-99526573D02*
X188383333Y-99587050D01*
X188383333Y-99587050D02*
X188504285Y-99647526D01*
X188504285Y-99647526D02*
X188746190Y-99647526D01*
X188746190Y-99647526D02*
X188867142Y-99587050D01*
X188867142Y-99587050D02*
X188927618Y-99526573D01*
X188927618Y-99526573D02*
X188988095Y-99405621D01*
X188988095Y-99405621D02*
X188988095Y-99163716D01*
X188988095Y-99163716D02*
X188927618Y-99042764D01*
X188927618Y-99042764D02*
X188867142Y-98982288D01*
X188867142Y-98982288D02*
X188746190Y-98921811D01*
D10*
%TO.C,H4*%
X190246095Y-120858619D02*
X190246095Y-119858619D01*
X190246095Y-120334809D02*
X190817523Y-120334809D01*
X190817523Y-120858619D02*
X190817523Y-119858619D01*
X191722285Y-120191952D02*
X191722285Y-120858619D01*
X191484190Y-119811000D02*
X191246095Y-120525285D01*
X191246095Y-120525285D02*
X191865142Y-120525285D01*
%TO.C,D3*%
X182776905Y-99662619D02*
X182776905Y-98662619D01*
X182776905Y-98662619D02*
X183015000Y-98662619D01*
X183015000Y-98662619D02*
X183157857Y-98710238D01*
X183157857Y-98710238D02*
X183253095Y-98805476D01*
X183253095Y-98805476D02*
X183300714Y-98900714D01*
X183300714Y-98900714D02*
X183348333Y-99091190D01*
X183348333Y-99091190D02*
X183348333Y-99234047D01*
X183348333Y-99234047D02*
X183300714Y-99424523D01*
X183300714Y-99424523D02*
X183253095Y-99519761D01*
X183253095Y-99519761D02*
X183157857Y-99615000D01*
X183157857Y-99615000D02*
X183015000Y-99662619D01*
X183015000Y-99662619D02*
X182776905Y-99662619D01*
X183681667Y-98662619D02*
X184300714Y-98662619D01*
X184300714Y-98662619D02*
X183967381Y-99043571D01*
X183967381Y-99043571D02*
X184110238Y-99043571D01*
X184110238Y-99043571D02*
X184205476Y-99091190D01*
X184205476Y-99091190D02*
X184253095Y-99138809D01*
X184253095Y-99138809D02*
X184300714Y-99234047D01*
X184300714Y-99234047D02*
X184300714Y-99472142D01*
X184300714Y-99472142D02*
X184253095Y-99567380D01*
X184253095Y-99567380D02*
X184205476Y-99615000D01*
X184205476Y-99615000D02*
X184110238Y-99662619D01*
X184110238Y-99662619D02*
X183824524Y-99662619D01*
X183824524Y-99662619D02*
X183729286Y-99615000D01*
X183729286Y-99615000D02*
X183681667Y-99567380D01*
%TO.C,H2*%
X191262095Y-46690619D02*
X191262095Y-45690619D01*
X191262095Y-46166809D02*
X191833523Y-46166809D01*
X191833523Y-46690619D02*
X191833523Y-45690619D01*
X192262095Y-45785857D02*
X192309714Y-45738238D01*
X192309714Y-45738238D02*
X192404952Y-45690619D01*
X192404952Y-45690619D02*
X192643047Y-45690619D01*
X192643047Y-45690619D02*
X192738285Y-45738238D01*
X192738285Y-45738238D02*
X192785904Y-45785857D01*
X192785904Y-45785857D02*
X192833523Y-45881095D01*
X192833523Y-45881095D02*
X192833523Y-45976333D01*
X192833523Y-45976333D02*
X192785904Y-46119190D01*
X192785904Y-46119190D02*
X192214476Y-46690619D01*
X192214476Y-46690619D02*
X192833523Y-46690619D01*
%TO.C,ACT1*%
X176204762Y-103046904D02*
X176680952Y-103046904D01*
X176109524Y-103332619D02*
X176442857Y-102332619D01*
X176442857Y-102332619D02*
X176776190Y-103332619D01*
X177680952Y-103237380D02*
X177633333Y-103285000D01*
X177633333Y-103285000D02*
X177490476Y-103332619D01*
X177490476Y-103332619D02*
X177395238Y-103332619D01*
X177395238Y-103332619D02*
X177252381Y-103285000D01*
X177252381Y-103285000D02*
X177157143Y-103189761D01*
X177157143Y-103189761D02*
X177109524Y-103094523D01*
X177109524Y-103094523D02*
X177061905Y-102904047D01*
X177061905Y-102904047D02*
X177061905Y-102761190D01*
X177061905Y-102761190D02*
X177109524Y-102570714D01*
X177109524Y-102570714D02*
X177157143Y-102475476D01*
X177157143Y-102475476D02*
X177252381Y-102380238D01*
X177252381Y-102380238D02*
X177395238Y-102332619D01*
X177395238Y-102332619D02*
X177490476Y-102332619D01*
X177490476Y-102332619D02*
X177633333Y-102380238D01*
X177633333Y-102380238D02*
X177680952Y-102427857D01*
X177966667Y-102332619D02*
X178538095Y-102332619D01*
X178252381Y-103332619D02*
X178252381Y-102332619D01*
X179395238Y-103332619D02*
X178823810Y-103332619D01*
X179109524Y-103332619D02*
X179109524Y-102332619D01*
X179109524Y-102332619D02*
X179014286Y-102475476D01*
X179014286Y-102475476D02*
X178919048Y-102570714D01*
X178919048Y-102570714D02*
X178823810Y-102618333D01*
%TO.C,R11*%
X190327619Y-109227857D02*
X189851428Y-109561190D01*
X190327619Y-109799285D02*
X189327619Y-109799285D01*
X189327619Y-109799285D02*
X189327619Y-109418333D01*
X189327619Y-109418333D02*
X189375238Y-109323095D01*
X189375238Y-109323095D02*
X189422857Y-109275476D01*
X189422857Y-109275476D02*
X189518095Y-109227857D01*
X189518095Y-109227857D02*
X189660952Y-109227857D01*
X189660952Y-109227857D02*
X189756190Y-109275476D01*
X189756190Y-109275476D02*
X189803809Y-109323095D01*
X189803809Y-109323095D02*
X189851428Y-109418333D01*
X189851428Y-109418333D02*
X189851428Y-109799285D01*
X190327619Y-108275476D02*
X190327619Y-108846904D01*
X190327619Y-108561190D02*
X189327619Y-108561190D01*
X189327619Y-108561190D02*
X189470476Y-108656428D01*
X189470476Y-108656428D02*
X189565714Y-108751666D01*
X189565714Y-108751666D02*
X189613333Y-108846904D01*
X190327619Y-107323095D02*
X190327619Y-107894523D01*
X190327619Y-107608809D02*
X189327619Y-107608809D01*
X189327619Y-107608809D02*
X189470476Y-107704047D01*
X189470476Y-107704047D02*
X189565714Y-107799285D01*
X189565714Y-107799285D02*
X189613333Y-107894523D01*
%TO.C,C7*%
X193508333Y-96252380D02*
X193460714Y-96300000D01*
X193460714Y-96300000D02*
X193317857Y-96347619D01*
X193317857Y-96347619D02*
X193222619Y-96347619D01*
X193222619Y-96347619D02*
X193079762Y-96300000D01*
X193079762Y-96300000D02*
X192984524Y-96204761D01*
X192984524Y-96204761D02*
X192936905Y-96109523D01*
X192936905Y-96109523D02*
X192889286Y-95919047D01*
X192889286Y-95919047D02*
X192889286Y-95776190D01*
X192889286Y-95776190D02*
X192936905Y-95585714D01*
X192936905Y-95585714D02*
X192984524Y-95490476D01*
X192984524Y-95490476D02*
X193079762Y-95395238D01*
X193079762Y-95395238D02*
X193222619Y-95347619D01*
X193222619Y-95347619D02*
X193317857Y-95347619D01*
X193317857Y-95347619D02*
X193460714Y-95395238D01*
X193460714Y-95395238D02*
X193508333Y-95442857D01*
X193841667Y-95347619D02*
X194508333Y-95347619D01*
X194508333Y-95347619D02*
X194079762Y-96347619D01*
%TO.C,L2*%
X152348333Y-81742619D02*
X151872143Y-81742619D01*
X151872143Y-81742619D02*
X151872143Y-80742619D01*
X152634048Y-80837857D02*
X152681667Y-80790238D01*
X152681667Y-80790238D02*
X152776905Y-80742619D01*
X152776905Y-80742619D02*
X153015000Y-80742619D01*
X153015000Y-80742619D02*
X153110238Y-80790238D01*
X153110238Y-80790238D02*
X153157857Y-80837857D01*
X153157857Y-80837857D02*
X153205476Y-80933095D01*
X153205476Y-80933095D02*
X153205476Y-81028333D01*
X153205476Y-81028333D02*
X153157857Y-81171190D01*
X153157857Y-81171190D02*
X152586429Y-81742619D01*
X152586429Y-81742619D02*
X153205476Y-81742619D01*
%TO.C,Q1*%
X193247261Y-74857857D02*
X193152023Y-74810238D01*
X193152023Y-74810238D02*
X193056785Y-74715000D01*
X193056785Y-74715000D02*
X192913928Y-74572142D01*
X192913928Y-74572142D02*
X192818690Y-74524523D01*
X192818690Y-74524523D02*
X192723452Y-74524523D01*
X192771071Y-74762619D02*
X192675833Y-74715000D01*
X192675833Y-74715000D02*
X192580595Y-74619761D01*
X192580595Y-74619761D02*
X192532976Y-74429285D01*
X192532976Y-74429285D02*
X192532976Y-74095952D01*
X192532976Y-74095952D02*
X192580595Y-73905476D01*
X192580595Y-73905476D02*
X192675833Y-73810238D01*
X192675833Y-73810238D02*
X192771071Y-73762619D01*
X192771071Y-73762619D02*
X192961547Y-73762619D01*
X192961547Y-73762619D02*
X193056785Y-73810238D01*
X193056785Y-73810238D02*
X193152023Y-73905476D01*
X193152023Y-73905476D02*
X193199642Y-74095952D01*
X193199642Y-74095952D02*
X193199642Y-74429285D01*
X193199642Y-74429285D02*
X193152023Y-74619761D01*
X193152023Y-74619761D02*
X193056785Y-74715000D01*
X193056785Y-74715000D02*
X192961547Y-74762619D01*
X192961547Y-74762619D02*
X192771071Y-74762619D01*
X194152023Y-74762619D02*
X193580595Y-74762619D01*
X193866309Y-74762619D02*
X193866309Y-73762619D01*
X193866309Y-73762619D02*
X193771071Y-73905476D01*
X193771071Y-73905476D02*
X193675833Y-74000714D01*
X193675833Y-74000714D02*
X193580595Y-74048333D01*
%TO.C,JP1*%
X188396666Y-62432619D02*
X188396666Y-63146904D01*
X188396666Y-63146904D02*
X188349047Y-63289761D01*
X188349047Y-63289761D02*
X188253809Y-63385000D01*
X188253809Y-63385000D02*
X188110952Y-63432619D01*
X188110952Y-63432619D02*
X188015714Y-63432619D01*
X188872857Y-63432619D02*
X188872857Y-62432619D01*
X188872857Y-62432619D02*
X189253809Y-62432619D01*
X189253809Y-62432619D02*
X189349047Y-62480238D01*
X189349047Y-62480238D02*
X189396666Y-62527857D01*
X189396666Y-62527857D02*
X189444285Y-62623095D01*
X189444285Y-62623095D02*
X189444285Y-62765952D01*
X189444285Y-62765952D02*
X189396666Y-62861190D01*
X189396666Y-62861190D02*
X189349047Y-62908809D01*
X189349047Y-62908809D02*
X189253809Y-62956428D01*
X189253809Y-62956428D02*
X188872857Y-62956428D01*
X190396666Y-63432619D02*
X189825238Y-63432619D01*
X190110952Y-63432619D02*
X190110952Y-62432619D01*
X190110952Y-62432619D02*
X190015714Y-62575476D01*
X190015714Y-62575476D02*
X189920476Y-62670714D01*
X189920476Y-62670714D02*
X189825238Y-62718333D01*
%TO.C,C10*%
X191902142Y-86092380D02*
X191854523Y-86140000D01*
X191854523Y-86140000D02*
X191711666Y-86187619D01*
X191711666Y-86187619D02*
X191616428Y-86187619D01*
X191616428Y-86187619D02*
X191473571Y-86140000D01*
X191473571Y-86140000D02*
X191378333Y-86044761D01*
X191378333Y-86044761D02*
X191330714Y-85949523D01*
X191330714Y-85949523D02*
X191283095Y-85759047D01*
X191283095Y-85759047D02*
X191283095Y-85616190D01*
X191283095Y-85616190D02*
X191330714Y-85425714D01*
X191330714Y-85425714D02*
X191378333Y-85330476D01*
X191378333Y-85330476D02*
X191473571Y-85235238D01*
X191473571Y-85235238D02*
X191616428Y-85187619D01*
X191616428Y-85187619D02*
X191711666Y-85187619D01*
X191711666Y-85187619D02*
X191854523Y-85235238D01*
X191854523Y-85235238D02*
X191902142Y-85282857D01*
X192854523Y-86187619D02*
X192283095Y-86187619D01*
X192568809Y-86187619D02*
X192568809Y-85187619D01*
X192568809Y-85187619D02*
X192473571Y-85330476D01*
X192473571Y-85330476D02*
X192378333Y-85425714D01*
X192378333Y-85425714D02*
X192283095Y-85473333D01*
X193473571Y-85187619D02*
X193568809Y-85187619D01*
X193568809Y-85187619D02*
X193664047Y-85235238D01*
X193664047Y-85235238D02*
X193711666Y-85282857D01*
X193711666Y-85282857D02*
X193759285Y-85378095D01*
X193759285Y-85378095D02*
X193806904Y-85568571D01*
X193806904Y-85568571D02*
X193806904Y-85806666D01*
X193806904Y-85806666D02*
X193759285Y-85997142D01*
X193759285Y-85997142D02*
X193711666Y-86092380D01*
X193711666Y-86092380D02*
X193664047Y-86140000D01*
X193664047Y-86140000D02*
X193568809Y-86187619D01*
X193568809Y-86187619D02*
X193473571Y-86187619D01*
X193473571Y-86187619D02*
X193378333Y-86140000D01*
X193378333Y-86140000D02*
X193330714Y-86092380D01*
X193330714Y-86092380D02*
X193283095Y-85997142D01*
X193283095Y-85997142D02*
X193235476Y-85806666D01*
X193235476Y-85806666D02*
X193235476Y-85568571D01*
X193235476Y-85568571D02*
X193283095Y-85378095D01*
X193283095Y-85378095D02*
X193330714Y-85282857D01*
X193330714Y-85282857D02*
X193378333Y-85235238D01*
X193378333Y-85235238D02*
X193473571Y-85187619D01*
%TO.C,R12*%
X190492142Y-92377619D02*
X190158809Y-91901428D01*
X189920714Y-92377619D02*
X189920714Y-91377619D01*
X189920714Y-91377619D02*
X190301666Y-91377619D01*
X190301666Y-91377619D02*
X190396904Y-91425238D01*
X190396904Y-91425238D02*
X190444523Y-91472857D01*
X190444523Y-91472857D02*
X190492142Y-91568095D01*
X190492142Y-91568095D02*
X190492142Y-91710952D01*
X190492142Y-91710952D02*
X190444523Y-91806190D01*
X190444523Y-91806190D02*
X190396904Y-91853809D01*
X190396904Y-91853809D02*
X190301666Y-91901428D01*
X190301666Y-91901428D02*
X189920714Y-91901428D01*
X191444523Y-92377619D02*
X190873095Y-92377619D01*
X191158809Y-92377619D02*
X191158809Y-91377619D01*
X191158809Y-91377619D02*
X191063571Y-91520476D01*
X191063571Y-91520476D02*
X190968333Y-91615714D01*
X190968333Y-91615714D02*
X190873095Y-91663333D01*
X191825476Y-91472857D02*
X191873095Y-91425238D01*
X191873095Y-91425238D02*
X191968333Y-91377619D01*
X191968333Y-91377619D02*
X192206428Y-91377619D01*
X192206428Y-91377619D02*
X192301666Y-91425238D01*
X192301666Y-91425238D02*
X192349285Y-91472857D01*
X192349285Y-91472857D02*
X192396904Y-91568095D01*
X192396904Y-91568095D02*
X192396904Y-91663333D01*
X192396904Y-91663333D02*
X192349285Y-91806190D01*
X192349285Y-91806190D02*
X191777857Y-92377619D01*
X191777857Y-92377619D02*
X192396904Y-92377619D01*
%TO.C,L3*%
X187158333Y-56182619D02*
X186682143Y-56182619D01*
X186682143Y-56182619D02*
X186682143Y-55182619D01*
X187396429Y-55182619D02*
X188015476Y-55182619D01*
X188015476Y-55182619D02*
X187682143Y-55563571D01*
X187682143Y-55563571D02*
X187825000Y-55563571D01*
X187825000Y-55563571D02*
X187920238Y-55611190D01*
X187920238Y-55611190D02*
X187967857Y-55658809D01*
X187967857Y-55658809D02*
X188015476Y-55754047D01*
X188015476Y-55754047D02*
X188015476Y-55992142D01*
X188015476Y-55992142D02*
X187967857Y-56087380D01*
X187967857Y-56087380D02*
X187920238Y-56135000D01*
X187920238Y-56135000D02*
X187825000Y-56182619D01*
X187825000Y-56182619D02*
X187539286Y-56182619D01*
X187539286Y-56182619D02*
X187444048Y-56135000D01*
X187444048Y-56135000D02*
X187396429Y-56087380D01*
%TO.C,U3*%
X171958095Y-70582619D02*
X171958095Y-71392142D01*
X171958095Y-71392142D02*
X172005714Y-71487380D01*
X172005714Y-71487380D02*
X172053333Y-71535000D01*
X172053333Y-71535000D02*
X172148571Y-71582619D01*
X172148571Y-71582619D02*
X172339047Y-71582619D01*
X172339047Y-71582619D02*
X172434285Y-71535000D01*
X172434285Y-71535000D02*
X172481904Y-71487380D01*
X172481904Y-71487380D02*
X172529523Y-71392142D01*
X172529523Y-71392142D02*
X172529523Y-70582619D01*
X172910476Y-70582619D02*
X173529523Y-70582619D01*
X173529523Y-70582619D02*
X173196190Y-70963571D01*
X173196190Y-70963571D02*
X173339047Y-70963571D01*
X173339047Y-70963571D02*
X173434285Y-71011190D01*
X173434285Y-71011190D02*
X173481904Y-71058809D01*
X173481904Y-71058809D02*
X173529523Y-71154047D01*
X173529523Y-71154047D02*
X173529523Y-71392142D01*
X173529523Y-71392142D02*
X173481904Y-71487380D01*
X173481904Y-71487380D02*
X173434285Y-71535000D01*
X173434285Y-71535000D02*
X173339047Y-71582619D01*
X173339047Y-71582619D02*
X173053333Y-71582619D01*
X173053333Y-71582619D02*
X172958095Y-71535000D01*
X172958095Y-71535000D02*
X172910476Y-71487380D01*
%TO.C,C9*%
X186523333Y-92442380D02*
X186475714Y-92490000D01*
X186475714Y-92490000D02*
X186332857Y-92537619D01*
X186332857Y-92537619D02*
X186237619Y-92537619D01*
X186237619Y-92537619D02*
X186094762Y-92490000D01*
X186094762Y-92490000D02*
X185999524Y-92394761D01*
X185999524Y-92394761D02*
X185951905Y-92299523D01*
X185951905Y-92299523D02*
X185904286Y-92109047D01*
X185904286Y-92109047D02*
X185904286Y-91966190D01*
X185904286Y-91966190D02*
X185951905Y-91775714D01*
X185951905Y-91775714D02*
X185999524Y-91680476D01*
X185999524Y-91680476D02*
X186094762Y-91585238D01*
X186094762Y-91585238D02*
X186237619Y-91537619D01*
X186237619Y-91537619D02*
X186332857Y-91537619D01*
X186332857Y-91537619D02*
X186475714Y-91585238D01*
X186475714Y-91585238D02*
X186523333Y-91632857D01*
X186999524Y-92537619D02*
X187190000Y-92537619D01*
X187190000Y-92537619D02*
X187285238Y-92490000D01*
X187285238Y-92490000D02*
X187332857Y-92442380D01*
X187332857Y-92442380D02*
X187428095Y-92299523D01*
X187428095Y-92299523D02*
X187475714Y-92109047D01*
X187475714Y-92109047D02*
X187475714Y-91728095D01*
X187475714Y-91728095D02*
X187428095Y-91632857D01*
X187428095Y-91632857D02*
X187380476Y-91585238D01*
X187380476Y-91585238D02*
X187285238Y-91537619D01*
X187285238Y-91537619D02*
X187094762Y-91537619D01*
X187094762Y-91537619D02*
X186999524Y-91585238D01*
X186999524Y-91585238D02*
X186951905Y-91632857D01*
X186951905Y-91632857D02*
X186904286Y-91728095D01*
X186904286Y-91728095D02*
X186904286Y-91966190D01*
X186904286Y-91966190D02*
X186951905Y-92061428D01*
X186951905Y-92061428D02*
X186999524Y-92109047D01*
X186999524Y-92109047D02*
X187094762Y-92156666D01*
X187094762Y-92156666D02*
X187285238Y-92156666D01*
X187285238Y-92156666D02*
X187380476Y-92109047D01*
X187380476Y-92109047D02*
X187428095Y-92061428D01*
X187428095Y-92061428D02*
X187475714Y-91966190D01*
%TO.C,J3*%
X191436666Y-51532619D02*
X191436666Y-52246904D01*
X191436666Y-52246904D02*
X191389047Y-52389761D01*
X191389047Y-52389761D02*
X191293809Y-52485000D01*
X191293809Y-52485000D02*
X191150952Y-52532619D01*
X191150952Y-52532619D02*
X191055714Y-52532619D01*
X191817619Y-51532619D02*
X192436666Y-51532619D01*
X192436666Y-51532619D02*
X192103333Y-51913571D01*
X192103333Y-51913571D02*
X192246190Y-51913571D01*
X192246190Y-51913571D02*
X192341428Y-51961190D01*
X192341428Y-51961190D02*
X192389047Y-52008809D01*
X192389047Y-52008809D02*
X192436666Y-52104047D01*
X192436666Y-52104047D02*
X192436666Y-52342142D01*
X192436666Y-52342142D02*
X192389047Y-52437380D01*
X192389047Y-52437380D02*
X192341428Y-52485000D01*
X192341428Y-52485000D02*
X192246190Y-52532619D01*
X192246190Y-52532619D02*
X191960476Y-52532619D01*
X191960476Y-52532619D02*
X191865238Y-52485000D01*
X191865238Y-52485000D02*
X191817619Y-52437380D01*
%TO.C,L4*%
X163143333Y-107142619D02*
X162667143Y-107142619D01*
X162667143Y-107142619D02*
X162667143Y-106142619D01*
X163905238Y-106475952D02*
X163905238Y-107142619D01*
X163667143Y-106095000D02*
X163429048Y-106809285D01*
X163429048Y-106809285D02*
X164048095Y-106809285D01*
%TO.C,C11*%
X192137380Y-61602857D02*
X192185000Y-61650476D01*
X192185000Y-61650476D02*
X192232619Y-61793333D01*
X192232619Y-61793333D02*
X192232619Y-61888571D01*
X192232619Y-61888571D02*
X192185000Y-62031428D01*
X192185000Y-62031428D02*
X192089761Y-62126666D01*
X192089761Y-62126666D02*
X191994523Y-62174285D01*
X191994523Y-62174285D02*
X191804047Y-62221904D01*
X191804047Y-62221904D02*
X191661190Y-62221904D01*
X191661190Y-62221904D02*
X191470714Y-62174285D01*
X191470714Y-62174285D02*
X191375476Y-62126666D01*
X191375476Y-62126666D02*
X191280238Y-62031428D01*
X191280238Y-62031428D02*
X191232619Y-61888571D01*
X191232619Y-61888571D02*
X191232619Y-61793333D01*
X191232619Y-61793333D02*
X191280238Y-61650476D01*
X191280238Y-61650476D02*
X191327857Y-61602857D01*
X192232619Y-60650476D02*
X192232619Y-61221904D01*
X192232619Y-60936190D02*
X191232619Y-60936190D01*
X191232619Y-60936190D02*
X191375476Y-61031428D01*
X191375476Y-61031428D02*
X191470714Y-61126666D01*
X191470714Y-61126666D02*
X191518333Y-61221904D01*
X192232619Y-59698095D02*
X192232619Y-60269523D01*
X192232619Y-59983809D02*
X191232619Y-59983809D01*
X191232619Y-59983809D02*
X191375476Y-60079047D01*
X191375476Y-60079047D02*
X191470714Y-60174285D01*
X191470714Y-60174285D02*
X191518333Y-60269523D01*
D11*
%TO.C,U6*%
X193977380Y-89487526D02*
X193977380Y-90515621D01*
X193977380Y-90515621D02*
X194037857Y-90636573D01*
X194037857Y-90636573D02*
X194098333Y-90697050D01*
X194098333Y-90697050D02*
X194219285Y-90757526D01*
X194219285Y-90757526D02*
X194461190Y-90757526D01*
X194461190Y-90757526D02*
X194582142Y-90697050D01*
X194582142Y-90697050D02*
X194642619Y-90636573D01*
X194642619Y-90636573D02*
X194703095Y-90515621D01*
X194703095Y-90515621D02*
X194703095Y-89487526D01*
X195852142Y-89487526D02*
X195610237Y-89487526D01*
X195610237Y-89487526D02*
X195489285Y-89548002D01*
X195489285Y-89548002D02*
X195428809Y-89608478D01*
X195428809Y-89608478D02*
X195307856Y-89789907D01*
X195307856Y-89789907D02*
X195247380Y-90031811D01*
X195247380Y-90031811D02*
X195247380Y-90515621D01*
X195247380Y-90515621D02*
X195307856Y-90636573D01*
X195307856Y-90636573D02*
X195368333Y-90697050D01*
X195368333Y-90697050D02*
X195489285Y-90757526D01*
X195489285Y-90757526D02*
X195731190Y-90757526D01*
X195731190Y-90757526D02*
X195852142Y-90697050D01*
X195852142Y-90697050D02*
X195912618Y-90636573D01*
X195912618Y-90636573D02*
X195973095Y-90515621D01*
X195973095Y-90515621D02*
X195973095Y-90213240D01*
X195973095Y-90213240D02*
X195912618Y-90092288D01*
X195912618Y-90092288D02*
X195852142Y-90031811D01*
X195852142Y-90031811D02*
X195731190Y-89971335D01*
X195731190Y-89971335D02*
X195489285Y-89971335D01*
X195489285Y-89971335D02*
X195368333Y-90031811D01*
X195368333Y-90031811D02*
X195307856Y-90092288D01*
X195307856Y-90092288D02*
X195247380Y-90213240D01*
D10*
%TO.C,C5*%
X162508333Y-102827380D02*
X162460714Y-102875000D01*
X162460714Y-102875000D02*
X162317857Y-102922619D01*
X162317857Y-102922619D02*
X162222619Y-102922619D01*
X162222619Y-102922619D02*
X162079762Y-102875000D01*
X162079762Y-102875000D02*
X161984524Y-102779761D01*
X161984524Y-102779761D02*
X161936905Y-102684523D01*
X161936905Y-102684523D02*
X161889286Y-102494047D01*
X161889286Y-102494047D02*
X161889286Y-102351190D01*
X161889286Y-102351190D02*
X161936905Y-102160714D01*
X161936905Y-102160714D02*
X161984524Y-102065476D01*
X161984524Y-102065476D02*
X162079762Y-101970238D01*
X162079762Y-101970238D02*
X162222619Y-101922619D01*
X162222619Y-101922619D02*
X162317857Y-101922619D01*
X162317857Y-101922619D02*
X162460714Y-101970238D01*
X162460714Y-101970238D02*
X162508333Y-102017857D01*
X163413095Y-101922619D02*
X162936905Y-101922619D01*
X162936905Y-101922619D02*
X162889286Y-102398809D01*
X162889286Y-102398809D02*
X162936905Y-102351190D01*
X162936905Y-102351190D02*
X163032143Y-102303571D01*
X163032143Y-102303571D02*
X163270238Y-102303571D01*
X163270238Y-102303571D02*
X163365476Y-102351190D01*
X163365476Y-102351190D02*
X163413095Y-102398809D01*
X163413095Y-102398809D02*
X163460714Y-102494047D01*
X163460714Y-102494047D02*
X163460714Y-102732142D01*
X163460714Y-102732142D02*
X163413095Y-102827380D01*
X163413095Y-102827380D02*
X163365476Y-102875000D01*
X163365476Y-102875000D02*
X163270238Y-102922619D01*
X163270238Y-102922619D02*
X163032143Y-102922619D01*
X163032143Y-102922619D02*
X162936905Y-102875000D01*
X162936905Y-102875000D02*
X162889286Y-102827380D01*
D11*
%TO.C,U5*%
X151432380Y-93932526D02*
X151432380Y-94960621D01*
X151432380Y-94960621D02*
X151492857Y-95081573D01*
X151492857Y-95081573D02*
X151553333Y-95142050D01*
X151553333Y-95142050D02*
X151674285Y-95202526D01*
X151674285Y-95202526D02*
X151916190Y-95202526D01*
X151916190Y-95202526D02*
X152037142Y-95142050D01*
X152037142Y-95142050D02*
X152097619Y-95081573D01*
X152097619Y-95081573D02*
X152158095Y-94960621D01*
X152158095Y-94960621D02*
X152158095Y-93932526D01*
X153367618Y-93932526D02*
X152762856Y-93932526D01*
X152762856Y-93932526D02*
X152702380Y-94537288D01*
X152702380Y-94537288D02*
X152762856Y-94476811D01*
X152762856Y-94476811D02*
X152883809Y-94416335D01*
X152883809Y-94416335D02*
X153186190Y-94416335D01*
X153186190Y-94416335D02*
X153307142Y-94476811D01*
X153307142Y-94476811D02*
X153367618Y-94537288D01*
X153367618Y-94537288D02*
X153428095Y-94658240D01*
X153428095Y-94658240D02*
X153428095Y-94960621D01*
X153428095Y-94960621D02*
X153367618Y-95081573D01*
X153367618Y-95081573D02*
X153307142Y-95142050D01*
X153307142Y-95142050D02*
X153186190Y-95202526D01*
X153186190Y-95202526D02*
X152883809Y-95202526D01*
X152883809Y-95202526D02*
X152762856Y-95142050D01*
X152762856Y-95142050D02*
X152702380Y-95081573D01*
D10*
%TO.C,R10*%
X193502619Y-88907857D02*
X193026428Y-89241190D01*
X193502619Y-89479285D02*
X192502619Y-89479285D01*
X192502619Y-89479285D02*
X192502619Y-89098333D01*
X192502619Y-89098333D02*
X192550238Y-89003095D01*
X192550238Y-89003095D02*
X192597857Y-88955476D01*
X192597857Y-88955476D02*
X192693095Y-88907857D01*
X192693095Y-88907857D02*
X192835952Y-88907857D01*
X192835952Y-88907857D02*
X192931190Y-88955476D01*
X192931190Y-88955476D02*
X192978809Y-89003095D01*
X192978809Y-89003095D02*
X193026428Y-89098333D01*
X193026428Y-89098333D02*
X193026428Y-89479285D01*
X193502619Y-87955476D02*
X193502619Y-88526904D01*
X193502619Y-88241190D02*
X192502619Y-88241190D01*
X192502619Y-88241190D02*
X192645476Y-88336428D01*
X192645476Y-88336428D02*
X192740714Y-88431666D01*
X192740714Y-88431666D02*
X192788333Y-88526904D01*
X192502619Y-87336428D02*
X192502619Y-87241190D01*
X192502619Y-87241190D02*
X192550238Y-87145952D01*
X192550238Y-87145952D02*
X192597857Y-87098333D01*
X192597857Y-87098333D02*
X192693095Y-87050714D01*
X192693095Y-87050714D02*
X192883571Y-87003095D01*
X192883571Y-87003095D02*
X193121666Y-87003095D01*
X193121666Y-87003095D02*
X193312142Y-87050714D01*
X193312142Y-87050714D02*
X193407380Y-87098333D01*
X193407380Y-87098333D02*
X193455000Y-87145952D01*
X193455000Y-87145952D02*
X193502619Y-87241190D01*
X193502619Y-87241190D02*
X193502619Y-87336428D01*
X193502619Y-87336428D02*
X193455000Y-87431666D01*
X193455000Y-87431666D02*
X193407380Y-87479285D01*
X193407380Y-87479285D02*
X193312142Y-87526904D01*
X193312142Y-87526904D02*
X193121666Y-87574523D01*
X193121666Y-87574523D02*
X192883571Y-87574523D01*
X192883571Y-87574523D02*
X192693095Y-87526904D01*
X192693095Y-87526904D02*
X192597857Y-87479285D01*
X192597857Y-87479285D02*
X192550238Y-87431666D01*
X192550238Y-87431666D02*
X192502619Y-87336428D01*
%TO.C,R13*%
X158742142Y-100157619D02*
X158408809Y-99681428D01*
X158170714Y-100157619D02*
X158170714Y-99157619D01*
X158170714Y-99157619D02*
X158551666Y-99157619D01*
X158551666Y-99157619D02*
X158646904Y-99205238D01*
X158646904Y-99205238D02*
X158694523Y-99252857D01*
X158694523Y-99252857D02*
X158742142Y-99348095D01*
X158742142Y-99348095D02*
X158742142Y-99490952D01*
X158742142Y-99490952D02*
X158694523Y-99586190D01*
X158694523Y-99586190D02*
X158646904Y-99633809D01*
X158646904Y-99633809D02*
X158551666Y-99681428D01*
X158551666Y-99681428D02*
X158170714Y-99681428D01*
X159694523Y-100157619D02*
X159123095Y-100157619D01*
X159408809Y-100157619D02*
X159408809Y-99157619D01*
X159408809Y-99157619D02*
X159313571Y-99300476D01*
X159313571Y-99300476D02*
X159218333Y-99395714D01*
X159218333Y-99395714D02*
X159123095Y-99443333D01*
X160027857Y-99157619D02*
X160646904Y-99157619D01*
X160646904Y-99157619D02*
X160313571Y-99538571D01*
X160313571Y-99538571D02*
X160456428Y-99538571D01*
X160456428Y-99538571D02*
X160551666Y-99586190D01*
X160551666Y-99586190D02*
X160599285Y-99633809D01*
X160599285Y-99633809D02*
X160646904Y-99729047D01*
X160646904Y-99729047D02*
X160646904Y-99967142D01*
X160646904Y-99967142D02*
X160599285Y-100062380D01*
X160599285Y-100062380D02*
X160551666Y-100110000D01*
X160551666Y-100110000D02*
X160456428Y-100157619D01*
X160456428Y-100157619D02*
X160170714Y-100157619D01*
X160170714Y-100157619D02*
X160075476Y-100110000D01*
X160075476Y-100110000D02*
X160027857Y-100062380D01*
%TO.C,J1*%
X159801666Y-116556619D02*
X159801666Y-117270904D01*
X159801666Y-117270904D02*
X159754047Y-117413761D01*
X159754047Y-117413761D02*
X159658809Y-117509000D01*
X159658809Y-117509000D02*
X159515952Y-117556619D01*
X159515952Y-117556619D02*
X159420714Y-117556619D01*
X160801666Y-117556619D02*
X160230238Y-117556619D01*
X160515952Y-117556619D02*
X160515952Y-116556619D01*
X160515952Y-116556619D02*
X160420714Y-116699476D01*
X160420714Y-116699476D02*
X160325476Y-116794714D01*
X160325476Y-116794714D02*
X160230238Y-116842333D01*
%TO.C,R16*%
X189946619Y-115577857D02*
X189470428Y-115911190D01*
X189946619Y-116149285D02*
X188946619Y-116149285D01*
X188946619Y-116149285D02*
X188946619Y-115768333D01*
X188946619Y-115768333D02*
X188994238Y-115673095D01*
X188994238Y-115673095D02*
X189041857Y-115625476D01*
X189041857Y-115625476D02*
X189137095Y-115577857D01*
X189137095Y-115577857D02*
X189279952Y-115577857D01*
X189279952Y-115577857D02*
X189375190Y-115625476D01*
X189375190Y-115625476D02*
X189422809Y-115673095D01*
X189422809Y-115673095D02*
X189470428Y-115768333D01*
X189470428Y-115768333D02*
X189470428Y-116149285D01*
X189946619Y-114625476D02*
X189946619Y-115196904D01*
X189946619Y-114911190D02*
X188946619Y-114911190D01*
X188946619Y-114911190D02*
X189089476Y-115006428D01*
X189089476Y-115006428D02*
X189184714Y-115101666D01*
X189184714Y-115101666D02*
X189232333Y-115196904D01*
X188946619Y-113768333D02*
X188946619Y-113958809D01*
X188946619Y-113958809D02*
X188994238Y-114054047D01*
X188994238Y-114054047D02*
X189041857Y-114101666D01*
X189041857Y-114101666D02*
X189184714Y-114196904D01*
X189184714Y-114196904D02*
X189375190Y-114244523D01*
X189375190Y-114244523D02*
X189756142Y-114244523D01*
X189756142Y-114244523D02*
X189851380Y-114196904D01*
X189851380Y-114196904D02*
X189899000Y-114149285D01*
X189899000Y-114149285D02*
X189946619Y-114054047D01*
X189946619Y-114054047D02*
X189946619Y-113863571D01*
X189946619Y-113863571D02*
X189899000Y-113768333D01*
X189899000Y-113768333D02*
X189851380Y-113720714D01*
X189851380Y-113720714D02*
X189756142Y-113673095D01*
X189756142Y-113673095D02*
X189518047Y-113673095D01*
X189518047Y-113673095D02*
X189422809Y-113720714D01*
X189422809Y-113720714D02*
X189375190Y-113768333D01*
X189375190Y-113768333D02*
X189327571Y-113863571D01*
X189327571Y-113863571D02*
X189327571Y-114054047D01*
X189327571Y-114054047D02*
X189375190Y-114149285D01*
X189375190Y-114149285D02*
X189422809Y-114196904D01*
X189422809Y-114196904D02*
X189518047Y-114244523D01*
%TO.C,R19*%
X163492142Y-109047619D02*
X163158809Y-108571428D01*
X162920714Y-109047619D02*
X162920714Y-108047619D01*
X162920714Y-108047619D02*
X163301666Y-108047619D01*
X163301666Y-108047619D02*
X163396904Y-108095238D01*
X163396904Y-108095238D02*
X163444523Y-108142857D01*
X163444523Y-108142857D02*
X163492142Y-108238095D01*
X163492142Y-108238095D02*
X163492142Y-108380952D01*
X163492142Y-108380952D02*
X163444523Y-108476190D01*
X163444523Y-108476190D02*
X163396904Y-108523809D01*
X163396904Y-108523809D02*
X163301666Y-108571428D01*
X163301666Y-108571428D02*
X162920714Y-108571428D01*
X164444523Y-109047619D02*
X163873095Y-109047619D01*
X164158809Y-109047619D02*
X164158809Y-108047619D01*
X164158809Y-108047619D02*
X164063571Y-108190476D01*
X164063571Y-108190476D02*
X163968333Y-108285714D01*
X163968333Y-108285714D02*
X163873095Y-108333333D01*
X164920714Y-109047619D02*
X165111190Y-109047619D01*
X165111190Y-109047619D02*
X165206428Y-109000000D01*
X165206428Y-109000000D02*
X165254047Y-108952380D01*
X165254047Y-108952380D02*
X165349285Y-108809523D01*
X165349285Y-108809523D02*
X165396904Y-108619047D01*
X165396904Y-108619047D02*
X165396904Y-108238095D01*
X165396904Y-108238095D02*
X165349285Y-108142857D01*
X165349285Y-108142857D02*
X165301666Y-108095238D01*
X165301666Y-108095238D02*
X165206428Y-108047619D01*
X165206428Y-108047619D02*
X165015952Y-108047619D01*
X165015952Y-108047619D02*
X164920714Y-108095238D01*
X164920714Y-108095238D02*
X164873095Y-108142857D01*
X164873095Y-108142857D02*
X164825476Y-108238095D01*
X164825476Y-108238095D02*
X164825476Y-108476190D01*
X164825476Y-108476190D02*
X164873095Y-108571428D01*
X164873095Y-108571428D02*
X164920714Y-108619047D01*
X164920714Y-108619047D02*
X165015952Y-108666666D01*
X165015952Y-108666666D02*
X165206428Y-108666666D01*
X165206428Y-108666666D02*
X165301666Y-108619047D01*
X165301666Y-108619047D02*
X165349285Y-108571428D01*
X165349285Y-108571428D02*
X165396904Y-108476190D01*
%TO.C,R3*%
X191603333Y-78694619D02*
X191270000Y-78218428D01*
X191031905Y-78694619D02*
X191031905Y-77694619D01*
X191031905Y-77694619D02*
X191412857Y-77694619D01*
X191412857Y-77694619D02*
X191508095Y-77742238D01*
X191508095Y-77742238D02*
X191555714Y-77789857D01*
X191555714Y-77789857D02*
X191603333Y-77885095D01*
X191603333Y-77885095D02*
X191603333Y-78027952D01*
X191603333Y-78027952D02*
X191555714Y-78123190D01*
X191555714Y-78123190D02*
X191508095Y-78170809D01*
X191508095Y-78170809D02*
X191412857Y-78218428D01*
X191412857Y-78218428D02*
X191031905Y-78218428D01*
X191936667Y-77694619D02*
X192555714Y-77694619D01*
X192555714Y-77694619D02*
X192222381Y-78075571D01*
X192222381Y-78075571D02*
X192365238Y-78075571D01*
X192365238Y-78075571D02*
X192460476Y-78123190D01*
X192460476Y-78123190D02*
X192508095Y-78170809D01*
X192508095Y-78170809D02*
X192555714Y-78266047D01*
X192555714Y-78266047D02*
X192555714Y-78504142D01*
X192555714Y-78504142D02*
X192508095Y-78599380D01*
X192508095Y-78599380D02*
X192460476Y-78647000D01*
X192460476Y-78647000D02*
X192365238Y-78694619D01*
X192365238Y-78694619D02*
X192079524Y-78694619D01*
X192079524Y-78694619D02*
X191984286Y-78647000D01*
X191984286Y-78647000D02*
X191936667Y-78599380D01*
%TO.C,R5*%
X178268333Y-98887619D02*
X177935000Y-98411428D01*
X177696905Y-98887619D02*
X177696905Y-97887619D01*
X177696905Y-97887619D02*
X178077857Y-97887619D01*
X178077857Y-97887619D02*
X178173095Y-97935238D01*
X178173095Y-97935238D02*
X178220714Y-97982857D01*
X178220714Y-97982857D02*
X178268333Y-98078095D01*
X178268333Y-98078095D02*
X178268333Y-98220952D01*
X178268333Y-98220952D02*
X178220714Y-98316190D01*
X178220714Y-98316190D02*
X178173095Y-98363809D01*
X178173095Y-98363809D02*
X178077857Y-98411428D01*
X178077857Y-98411428D02*
X177696905Y-98411428D01*
X179173095Y-97887619D02*
X178696905Y-97887619D01*
X178696905Y-97887619D02*
X178649286Y-98363809D01*
X178649286Y-98363809D02*
X178696905Y-98316190D01*
X178696905Y-98316190D02*
X178792143Y-98268571D01*
X178792143Y-98268571D02*
X179030238Y-98268571D01*
X179030238Y-98268571D02*
X179125476Y-98316190D01*
X179125476Y-98316190D02*
X179173095Y-98363809D01*
X179173095Y-98363809D02*
X179220714Y-98459047D01*
X179220714Y-98459047D02*
X179220714Y-98697142D01*
X179220714Y-98697142D02*
X179173095Y-98792380D01*
X179173095Y-98792380D02*
X179125476Y-98840000D01*
X179125476Y-98840000D02*
X179030238Y-98887619D01*
X179030238Y-98887619D02*
X178792143Y-98887619D01*
X178792143Y-98887619D02*
X178696905Y-98840000D01*
X178696905Y-98840000D02*
X178649286Y-98792380D01*
%TO.C,C13*%
X154412142Y-81647380D02*
X154364523Y-81695000D01*
X154364523Y-81695000D02*
X154221666Y-81742619D01*
X154221666Y-81742619D02*
X154126428Y-81742619D01*
X154126428Y-81742619D02*
X153983571Y-81695000D01*
X153983571Y-81695000D02*
X153888333Y-81599761D01*
X153888333Y-81599761D02*
X153840714Y-81504523D01*
X153840714Y-81504523D02*
X153793095Y-81314047D01*
X153793095Y-81314047D02*
X153793095Y-81171190D01*
X153793095Y-81171190D02*
X153840714Y-80980714D01*
X153840714Y-80980714D02*
X153888333Y-80885476D01*
X153888333Y-80885476D02*
X153983571Y-80790238D01*
X153983571Y-80790238D02*
X154126428Y-80742619D01*
X154126428Y-80742619D02*
X154221666Y-80742619D01*
X154221666Y-80742619D02*
X154364523Y-80790238D01*
X154364523Y-80790238D02*
X154412142Y-80837857D01*
X155364523Y-81742619D02*
X154793095Y-81742619D01*
X155078809Y-81742619D02*
X155078809Y-80742619D01*
X155078809Y-80742619D02*
X154983571Y-80885476D01*
X154983571Y-80885476D02*
X154888333Y-80980714D01*
X154888333Y-80980714D02*
X154793095Y-81028333D01*
X155697857Y-80742619D02*
X156316904Y-80742619D01*
X156316904Y-80742619D02*
X155983571Y-81123571D01*
X155983571Y-81123571D02*
X156126428Y-81123571D01*
X156126428Y-81123571D02*
X156221666Y-81171190D01*
X156221666Y-81171190D02*
X156269285Y-81218809D01*
X156269285Y-81218809D02*
X156316904Y-81314047D01*
X156316904Y-81314047D02*
X156316904Y-81552142D01*
X156316904Y-81552142D02*
X156269285Y-81647380D01*
X156269285Y-81647380D02*
X156221666Y-81695000D01*
X156221666Y-81695000D02*
X156126428Y-81742619D01*
X156126428Y-81742619D02*
X155840714Y-81742619D01*
X155840714Y-81742619D02*
X155745476Y-81695000D01*
X155745476Y-81695000D02*
X155697857Y-81647380D01*
%TO.C,C1*%
X155789333Y-112889380D02*
X155741714Y-112937000D01*
X155741714Y-112937000D02*
X155598857Y-112984619D01*
X155598857Y-112984619D02*
X155503619Y-112984619D01*
X155503619Y-112984619D02*
X155360762Y-112937000D01*
X155360762Y-112937000D02*
X155265524Y-112841761D01*
X155265524Y-112841761D02*
X155217905Y-112746523D01*
X155217905Y-112746523D02*
X155170286Y-112556047D01*
X155170286Y-112556047D02*
X155170286Y-112413190D01*
X155170286Y-112413190D02*
X155217905Y-112222714D01*
X155217905Y-112222714D02*
X155265524Y-112127476D01*
X155265524Y-112127476D02*
X155360762Y-112032238D01*
X155360762Y-112032238D02*
X155503619Y-111984619D01*
X155503619Y-111984619D02*
X155598857Y-111984619D01*
X155598857Y-111984619D02*
X155741714Y-112032238D01*
X155741714Y-112032238D02*
X155789333Y-112079857D01*
X156741714Y-112984619D02*
X156170286Y-112984619D01*
X156456000Y-112984619D02*
X156456000Y-111984619D01*
X156456000Y-111984619D02*
X156360762Y-112127476D01*
X156360762Y-112127476D02*
X156265524Y-112222714D01*
X156265524Y-112222714D02*
X156170286Y-112270333D01*
%TO.C,C15*%
X149332142Y-81647380D02*
X149284523Y-81695000D01*
X149284523Y-81695000D02*
X149141666Y-81742619D01*
X149141666Y-81742619D02*
X149046428Y-81742619D01*
X149046428Y-81742619D02*
X148903571Y-81695000D01*
X148903571Y-81695000D02*
X148808333Y-81599761D01*
X148808333Y-81599761D02*
X148760714Y-81504523D01*
X148760714Y-81504523D02*
X148713095Y-81314047D01*
X148713095Y-81314047D02*
X148713095Y-81171190D01*
X148713095Y-81171190D02*
X148760714Y-80980714D01*
X148760714Y-80980714D02*
X148808333Y-80885476D01*
X148808333Y-80885476D02*
X148903571Y-80790238D01*
X148903571Y-80790238D02*
X149046428Y-80742619D01*
X149046428Y-80742619D02*
X149141666Y-80742619D01*
X149141666Y-80742619D02*
X149284523Y-80790238D01*
X149284523Y-80790238D02*
X149332142Y-80837857D01*
X150284523Y-81742619D02*
X149713095Y-81742619D01*
X149998809Y-81742619D02*
X149998809Y-80742619D01*
X149998809Y-80742619D02*
X149903571Y-80885476D01*
X149903571Y-80885476D02*
X149808333Y-80980714D01*
X149808333Y-80980714D02*
X149713095Y-81028333D01*
X151189285Y-80742619D02*
X150713095Y-80742619D01*
X150713095Y-80742619D02*
X150665476Y-81218809D01*
X150665476Y-81218809D02*
X150713095Y-81171190D01*
X150713095Y-81171190D02*
X150808333Y-81123571D01*
X150808333Y-81123571D02*
X151046428Y-81123571D01*
X151046428Y-81123571D02*
X151141666Y-81171190D01*
X151141666Y-81171190D02*
X151189285Y-81218809D01*
X151189285Y-81218809D02*
X151236904Y-81314047D01*
X151236904Y-81314047D02*
X151236904Y-81552142D01*
X151236904Y-81552142D02*
X151189285Y-81647380D01*
X151189285Y-81647380D02*
X151141666Y-81695000D01*
X151141666Y-81695000D02*
X151046428Y-81742619D01*
X151046428Y-81742619D02*
X150808333Y-81742619D01*
X150808333Y-81742619D02*
X150713095Y-81695000D01*
X150713095Y-81695000D02*
X150665476Y-81647380D01*
%TO.C,R7*%
X187793333Y-108158619D02*
X187460000Y-107682428D01*
X187221905Y-108158619D02*
X187221905Y-107158619D01*
X187221905Y-107158619D02*
X187602857Y-107158619D01*
X187602857Y-107158619D02*
X187698095Y-107206238D01*
X187698095Y-107206238D02*
X187745714Y-107253857D01*
X187745714Y-107253857D02*
X187793333Y-107349095D01*
X187793333Y-107349095D02*
X187793333Y-107491952D01*
X187793333Y-107491952D02*
X187745714Y-107587190D01*
X187745714Y-107587190D02*
X187698095Y-107634809D01*
X187698095Y-107634809D02*
X187602857Y-107682428D01*
X187602857Y-107682428D02*
X187221905Y-107682428D01*
X188126667Y-107158619D02*
X188793333Y-107158619D01*
X188793333Y-107158619D02*
X188364762Y-108158619D01*
D11*
%TO.C,U1*%
X185702380Y-92982526D02*
X185702380Y-94010621D01*
X185702380Y-94010621D02*
X185762857Y-94131573D01*
X185762857Y-94131573D02*
X185823333Y-94192050D01*
X185823333Y-94192050D02*
X185944285Y-94252526D01*
X185944285Y-94252526D02*
X186186190Y-94252526D01*
X186186190Y-94252526D02*
X186307142Y-94192050D01*
X186307142Y-94192050D02*
X186367619Y-94131573D01*
X186367619Y-94131573D02*
X186428095Y-94010621D01*
X186428095Y-94010621D02*
X186428095Y-92982526D01*
X187698095Y-94252526D02*
X186972380Y-94252526D01*
X187335237Y-94252526D02*
X187335237Y-92982526D01*
X187335237Y-92982526D02*
X187214285Y-93163954D01*
X187214285Y-93163954D02*
X187093333Y-93284907D01*
X187093333Y-93284907D02*
X186972380Y-93345383D01*
%TO.C,U2*%
X179118380Y-112093526D02*
X179118380Y-113121621D01*
X179118380Y-113121621D02*
X179178857Y-113242573D01*
X179178857Y-113242573D02*
X179239333Y-113303050D01*
X179239333Y-113303050D02*
X179360285Y-113363526D01*
X179360285Y-113363526D02*
X179602190Y-113363526D01*
X179602190Y-113363526D02*
X179723142Y-113303050D01*
X179723142Y-113303050D02*
X179783619Y-113242573D01*
X179783619Y-113242573D02*
X179844095Y-113121621D01*
X179844095Y-113121621D02*
X179844095Y-112093526D01*
X180388380Y-112214478D02*
X180448856Y-112154002D01*
X180448856Y-112154002D02*
X180569809Y-112093526D01*
X180569809Y-112093526D02*
X180872190Y-112093526D01*
X180872190Y-112093526D02*
X180993142Y-112154002D01*
X180993142Y-112154002D02*
X181053618Y-112214478D01*
X181053618Y-112214478D02*
X181114095Y-112335430D01*
X181114095Y-112335430D02*
X181114095Y-112456383D01*
X181114095Y-112456383D02*
X181053618Y-112637811D01*
X181053618Y-112637811D02*
X180327904Y-113363526D01*
X180327904Y-113363526D02*
X181114095Y-113363526D01*
D10*
%TO.C,R4*%
X183983333Y-110952619D02*
X183650000Y-110476428D01*
X183411905Y-110952619D02*
X183411905Y-109952619D01*
X183411905Y-109952619D02*
X183792857Y-109952619D01*
X183792857Y-109952619D02*
X183888095Y-110000238D01*
X183888095Y-110000238D02*
X183935714Y-110047857D01*
X183935714Y-110047857D02*
X183983333Y-110143095D01*
X183983333Y-110143095D02*
X183983333Y-110285952D01*
X183983333Y-110285952D02*
X183935714Y-110381190D01*
X183935714Y-110381190D02*
X183888095Y-110428809D01*
X183888095Y-110428809D02*
X183792857Y-110476428D01*
X183792857Y-110476428D02*
X183411905Y-110476428D01*
X184840476Y-110285952D02*
X184840476Y-110952619D01*
X184602381Y-109905000D02*
X184364286Y-110619285D01*
X184364286Y-110619285D02*
X184983333Y-110619285D01*
%TO.C,H1*%
X153162095Y-47198619D02*
X153162095Y-46198619D01*
X153162095Y-46674809D02*
X153733523Y-46674809D01*
X153733523Y-47198619D02*
X153733523Y-46198619D01*
X154733523Y-47198619D02*
X154162095Y-47198619D01*
X154447809Y-47198619D02*
X154447809Y-46198619D01*
X154447809Y-46198619D02*
X154352571Y-46341476D01*
X154352571Y-46341476D02*
X154257333Y-46436714D01*
X154257333Y-46436714D02*
X154162095Y-46484333D01*
%TO.C,C16*%
X156317142Y-108727380D02*
X156269523Y-108775000D01*
X156269523Y-108775000D02*
X156126666Y-108822619D01*
X156126666Y-108822619D02*
X156031428Y-108822619D01*
X156031428Y-108822619D02*
X155888571Y-108775000D01*
X155888571Y-108775000D02*
X155793333Y-108679761D01*
X155793333Y-108679761D02*
X155745714Y-108584523D01*
X155745714Y-108584523D02*
X155698095Y-108394047D01*
X155698095Y-108394047D02*
X155698095Y-108251190D01*
X155698095Y-108251190D02*
X155745714Y-108060714D01*
X155745714Y-108060714D02*
X155793333Y-107965476D01*
X155793333Y-107965476D02*
X155888571Y-107870238D01*
X155888571Y-107870238D02*
X156031428Y-107822619D01*
X156031428Y-107822619D02*
X156126666Y-107822619D01*
X156126666Y-107822619D02*
X156269523Y-107870238D01*
X156269523Y-107870238D02*
X156317142Y-107917857D01*
X157269523Y-108822619D02*
X156698095Y-108822619D01*
X156983809Y-108822619D02*
X156983809Y-107822619D01*
X156983809Y-107822619D02*
X156888571Y-107965476D01*
X156888571Y-107965476D02*
X156793333Y-108060714D01*
X156793333Y-108060714D02*
X156698095Y-108108333D01*
X158126666Y-107822619D02*
X157936190Y-107822619D01*
X157936190Y-107822619D02*
X157840952Y-107870238D01*
X157840952Y-107870238D02*
X157793333Y-107917857D01*
X157793333Y-107917857D02*
X157698095Y-108060714D01*
X157698095Y-108060714D02*
X157650476Y-108251190D01*
X157650476Y-108251190D02*
X157650476Y-108632142D01*
X157650476Y-108632142D02*
X157698095Y-108727380D01*
X157698095Y-108727380D02*
X157745714Y-108775000D01*
X157745714Y-108775000D02*
X157840952Y-108822619D01*
X157840952Y-108822619D02*
X158031428Y-108822619D01*
X158031428Y-108822619D02*
X158126666Y-108775000D01*
X158126666Y-108775000D02*
X158174285Y-108727380D01*
X158174285Y-108727380D02*
X158221904Y-108632142D01*
X158221904Y-108632142D02*
X158221904Y-108394047D01*
X158221904Y-108394047D02*
X158174285Y-108298809D01*
X158174285Y-108298809D02*
X158126666Y-108251190D01*
X158126666Y-108251190D02*
X158031428Y-108203571D01*
X158031428Y-108203571D02*
X157840952Y-108203571D01*
X157840952Y-108203571D02*
X157745714Y-108251190D01*
X157745714Y-108251190D02*
X157698095Y-108298809D01*
X157698095Y-108298809D02*
X157650476Y-108394047D01*
%TO.C,SPI1*%
X152170000Y-71535000D02*
X152312857Y-71582619D01*
X152312857Y-71582619D02*
X152550952Y-71582619D01*
X152550952Y-71582619D02*
X152646190Y-71535000D01*
X152646190Y-71535000D02*
X152693809Y-71487380D01*
X152693809Y-71487380D02*
X152741428Y-71392142D01*
X152741428Y-71392142D02*
X152741428Y-71296904D01*
X152741428Y-71296904D02*
X152693809Y-71201666D01*
X152693809Y-71201666D02*
X152646190Y-71154047D01*
X152646190Y-71154047D02*
X152550952Y-71106428D01*
X152550952Y-71106428D02*
X152360476Y-71058809D01*
X152360476Y-71058809D02*
X152265238Y-71011190D01*
X152265238Y-71011190D02*
X152217619Y-70963571D01*
X152217619Y-70963571D02*
X152170000Y-70868333D01*
X152170000Y-70868333D02*
X152170000Y-70773095D01*
X152170000Y-70773095D02*
X152217619Y-70677857D01*
X152217619Y-70677857D02*
X152265238Y-70630238D01*
X152265238Y-70630238D02*
X152360476Y-70582619D01*
X152360476Y-70582619D02*
X152598571Y-70582619D01*
X152598571Y-70582619D02*
X152741428Y-70630238D01*
X153170000Y-71582619D02*
X153170000Y-70582619D01*
X153170000Y-70582619D02*
X153550952Y-70582619D01*
X153550952Y-70582619D02*
X153646190Y-70630238D01*
X153646190Y-70630238D02*
X153693809Y-70677857D01*
X153693809Y-70677857D02*
X153741428Y-70773095D01*
X153741428Y-70773095D02*
X153741428Y-70915952D01*
X153741428Y-70915952D02*
X153693809Y-71011190D01*
X153693809Y-71011190D02*
X153646190Y-71058809D01*
X153646190Y-71058809D02*
X153550952Y-71106428D01*
X153550952Y-71106428D02*
X153170000Y-71106428D01*
X154170000Y-71582619D02*
X154170000Y-70582619D01*
X155169999Y-71582619D02*
X154598571Y-71582619D01*
X154884285Y-71582619D02*
X154884285Y-70582619D01*
X154884285Y-70582619D02*
X154789047Y-70725476D01*
X154789047Y-70725476D02*
X154693809Y-70820714D01*
X154693809Y-70820714D02*
X154598571Y-70868333D01*
D11*
%TO.C,U7*%
X185087380Y-85042526D02*
X185087380Y-86070621D01*
X185087380Y-86070621D02*
X185147857Y-86191573D01*
X185147857Y-86191573D02*
X185208333Y-86252050D01*
X185208333Y-86252050D02*
X185329285Y-86312526D01*
X185329285Y-86312526D02*
X185571190Y-86312526D01*
X185571190Y-86312526D02*
X185692142Y-86252050D01*
X185692142Y-86252050D02*
X185752619Y-86191573D01*
X185752619Y-86191573D02*
X185813095Y-86070621D01*
X185813095Y-86070621D02*
X185813095Y-85042526D01*
X186296904Y-85042526D02*
X187143571Y-85042526D01*
X187143571Y-85042526D02*
X186599285Y-86312526D01*
D10*
%TO.C,C12*%
X194042380Y-61602857D02*
X194090000Y-61650476D01*
X194090000Y-61650476D02*
X194137619Y-61793333D01*
X194137619Y-61793333D02*
X194137619Y-61888571D01*
X194137619Y-61888571D02*
X194090000Y-62031428D01*
X194090000Y-62031428D02*
X193994761Y-62126666D01*
X193994761Y-62126666D02*
X193899523Y-62174285D01*
X193899523Y-62174285D02*
X193709047Y-62221904D01*
X193709047Y-62221904D02*
X193566190Y-62221904D01*
X193566190Y-62221904D02*
X193375714Y-62174285D01*
X193375714Y-62174285D02*
X193280476Y-62126666D01*
X193280476Y-62126666D02*
X193185238Y-62031428D01*
X193185238Y-62031428D02*
X193137619Y-61888571D01*
X193137619Y-61888571D02*
X193137619Y-61793333D01*
X193137619Y-61793333D02*
X193185238Y-61650476D01*
X193185238Y-61650476D02*
X193232857Y-61602857D01*
X194137619Y-60650476D02*
X194137619Y-61221904D01*
X194137619Y-60936190D02*
X193137619Y-60936190D01*
X193137619Y-60936190D02*
X193280476Y-61031428D01*
X193280476Y-61031428D02*
X193375714Y-61126666D01*
X193375714Y-61126666D02*
X193423333Y-61221904D01*
X193232857Y-60269523D02*
X193185238Y-60221904D01*
X193185238Y-60221904D02*
X193137619Y-60126666D01*
X193137619Y-60126666D02*
X193137619Y-59888571D01*
X193137619Y-59888571D02*
X193185238Y-59793333D01*
X193185238Y-59793333D02*
X193232857Y-59745714D01*
X193232857Y-59745714D02*
X193328095Y-59698095D01*
X193328095Y-59698095D02*
X193423333Y-59698095D01*
X193423333Y-59698095D02*
X193566190Y-59745714D01*
X193566190Y-59745714D02*
X194137619Y-60317142D01*
X194137619Y-60317142D02*
X194137619Y-59698095D01*
%TO.C,J2*%
X185340666Y-116556619D02*
X185340666Y-117270904D01*
X185340666Y-117270904D02*
X185293047Y-117413761D01*
X185293047Y-117413761D02*
X185197809Y-117509000D01*
X185197809Y-117509000D02*
X185054952Y-117556619D01*
X185054952Y-117556619D02*
X184959714Y-117556619D01*
X185769238Y-116651857D02*
X185816857Y-116604238D01*
X185816857Y-116604238D02*
X185912095Y-116556619D01*
X185912095Y-116556619D02*
X186150190Y-116556619D01*
X186150190Y-116556619D02*
X186245428Y-116604238D01*
X186245428Y-116604238D02*
X186293047Y-116651857D01*
X186293047Y-116651857D02*
X186340666Y-116747095D01*
X186340666Y-116747095D02*
X186340666Y-116842333D01*
X186340666Y-116842333D02*
X186293047Y-116985190D01*
X186293047Y-116985190D02*
X185721619Y-117556619D01*
X185721619Y-117556619D02*
X186340666Y-117556619D01*
D12*
%TO.C,D2*%
X187035000Y-81582500D02*
X187035000Y-83257500D01*
X187035000Y-81582500D02*
X187035000Y-80932500D01*
X190155000Y-81582500D02*
X190155000Y-82232500D01*
X190155000Y-81582500D02*
X190155000Y-80932500D01*
%TO.C,I2C1*%
X151190000Y-59690000D02*
X151190000Y-52010000D01*
X151190000Y-59690000D02*
X148530000Y-59690000D01*
X151190000Y-52010000D02*
X148530000Y-52010000D01*
X149860000Y-62290000D02*
X148530000Y-62290000D01*
X148530000Y-62290000D02*
X148530000Y-60960000D01*
X148530000Y-59690000D02*
X148530000Y-52010000D01*
D13*
%TO.C,D1*%
X157430000Y-104880000D02*
X157430000Y-101570000D01*
X159030000Y-104170000D02*
X159030000Y-101570000D01*
%TO.C,U4*%
X193095000Y-66980000D02*
X194295000Y-66980000D01*
X194645000Y-67130000D02*
X195245000Y-67130000D01*
X194645000Y-70030000D02*
X194645000Y-67130000D01*
X195245000Y-67130000D02*
X195245000Y-70030000D01*
X195245000Y-70030000D02*
X194645000Y-70030000D01*
D12*
%TO.C,R1*%
X191372258Y-72277500D02*
X190897742Y-72277500D01*
X191372258Y-71232500D02*
X190897742Y-71232500D01*
%TO.C,R17*%
X184547742Y-108062500D02*
X185022258Y-108062500D01*
X184547742Y-109107500D02*
X185022258Y-109107500D01*
%TO.C,C4*%
X195085580Y-65280000D02*
X194804420Y-65280000D01*
X195085580Y-64260000D02*
X194804420Y-64260000D01*
D14*
%TO.C,L1*%
X154900000Y-92035000D02*
X154900000Y-92035000D01*
X154900000Y-92035000D02*
X153900000Y-92035000D01*
X154900000Y-87035000D02*
X154900000Y-87035000D01*
X154900000Y-87035000D02*
X153900000Y-87035000D01*
X153900000Y-92035000D02*
X154900000Y-92035000D01*
X153900000Y-92035000D02*
X153900000Y-92035000D01*
X153900000Y-87035000D02*
X154900000Y-87035000D01*
X153900000Y-87035000D02*
X153900000Y-87035000D01*
D12*
%TO.C,R6*%
X184547742Y-104252500D02*
X185022258Y-104252500D01*
X184547742Y-105297500D02*
X185022258Y-105297500D01*
%TO.C,C3*%
X192264420Y-99820000D02*
X192545580Y-99820000D01*
X192264420Y-100840000D02*
X192545580Y-100840000D01*
%TO.C,C6*%
X192264420Y-101725000D02*
X192545580Y-101725000D01*
X192264420Y-102745000D02*
X192545580Y-102745000D01*
%TO.C,R14*%
X190897742Y-97267500D02*
X191372258Y-97267500D01*
X190897742Y-98312500D02*
X191372258Y-98312500D01*
%TO.C,C8*%
X191275580Y-70360000D02*
X190994420Y-70360000D01*
X191275580Y-69340000D02*
X190994420Y-69340000D01*
%TO.C,R15*%
X184547742Y-106157500D02*
X185022258Y-106157500D01*
X184547742Y-107202500D02*
X185022258Y-107202500D01*
%TO.C,C2*%
X160769420Y-109980000D02*
X161050580Y-109980000D01*
X160769420Y-111000000D02*
X161050580Y-111000000D01*
D14*
%TO.C,R8*%
X194310000Y-114460000D02*
X194310000Y-114460000D01*
X194310000Y-114360000D02*
X194310000Y-114360000D01*
X191890000Y-113985000D02*
X191890000Y-104455000D01*
X196720000Y-113985000D02*
X191890000Y-113985000D01*
X191890000Y-104455000D02*
X196720000Y-104455000D01*
X196720000Y-104455000D02*
X196720000Y-113985000D01*
X194310000Y-114360000D02*
G75*
G03*
X194310000Y-114460000I0J-50000D01*
G01*
X194310000Y-114460000D02*
G75*
G03*
X194310000Y-114360000I0J50000D01*
G01*
D12*
%TO.C,R9*%
X155167500Y-103932258D02*
X155167500Y-103457742D01*
X156212500Y-103932258D02*
X156212500Y-103457742D01*
%TO.C,C14*%
X190375000Y-57644420D02*
X190375000Y-57925580D01*
X189355000Y-57644420D02*
X189355000Y-57925580D01*
%TO.C,UART1*%
X151305000Y-77470000D02*
X151305000Y-74870000D01*
X151305000Y-77470000D02*
X148645000Y-77470000D01*
X151305000Y-74870000D02*
X148645000Y-74870000D01*
X149975000Y-80070000D02*
X148645000Y-80070000D01*
X148645000Y-80070000D02*
X148645000Y-78740000D01*
X148645000Y-77470000D02*
X148645000Y-74870000D01*
D14*
%TO.C,R2*%
X151130000Y-110015000D02*
X151130000Y-110015000D01*
X151130000Y-109915000D02*
X151130000Y-109915000D01*
X148710000Y-109540000D02*
X148710000Y-100010000D01*
X153540000Y-109540000D02*
X148710000Y-109540000D01*
X148710000Y-100010000D02*
X153540000Y-100010000D01*
X153540000Y-100010000D02*
X153540000Y-109540000D01*
X151130000Y-109915000D02*
G75*
G03*
X151130000Y-110015000I0J-50000D01*
G01*
X151130000Y-110015000D02*
G75*
G03*
X151130000Y-109915000I0J50000D01*
G01*
D13*
%TO.C,U8*%
X186745000Y-100000000D02*
X187945000Y-100000000D01*
X188295000Y-100150000D02*
X188895000Y-100150000D01*
X188295000Y-103050000D02*
X188295000Y-100150000D01*
X188895000Y-100150000D02*
X188895000Y-103050000D01*
X188895000Y-103050000D02*
X188295000Y-103050000D01*
D12*
%TO.C,D3*%
X183515000Y-100040000D02*
X181840000Y-100040000D01*
X183515000Y-100040000D02*
X184165000Y-100040000D01*
X183515000Y-103160000D02*
X182865000Y-103160000D01*
X183515000Y-103160000D02*
X184165000Y-103160000D01*
%TO.C,ACT1*%
X176115000Y-100005000D02*
X176115000Y-101925000D01*
X176115000Y-101925000D02*
X178800000Y-101925000D01*
X178800000Y-100005000D02*
X176115000Y-100005000D01*
%TO.C,R11*%
X190387500Y-105172742D02*
X190387500Y-105647258D01*
X189342500Y-105172742D02*
X189342500Y-105647258D01*
%TO.C,C7*%
X190994420Y-95375000D02*
X191275580Y-95375000D01*
X190994420Y-96395000D02*
X191275580Y-96395000D01*
%TO.C,L2*%
X152005000Y-83982779D02*
X152005000Y-83657221D01*
X153025000Y-83982779D02*
X153025000Y-83657221D01*
%TO.C,Q1*%
X190167500Y-73055000D02*
X188492500Y-73055000D01*
X190167500Y-73055000D02*
X190817500Y-73055000D01*
X190167500Y-76175000D02*
X189517500Y-76175000D01*
X190167500Y-76175000D02*
X190817500Y-76175000D01*
%TO.C,JP1*%
X187830000Y-65070000D02*
X187830000Y-64470000D01*
X188530000Y-63770000D02*
X189930000Y-63770000D01*
X189930000Y-65770000D02*
X188530000Y-65770000D01*
X190630000Y-64470000D02*
X190630000Y-65070000D01*
X188530000Y-63770000D02*
G75*
G03*
X187830000Y-64470000I-1J-699999D01*
G01*
X187830000Y-65070000D02*
G75*
G03*
X188530000Y-65770000I699999J-1D01*
G01*
X190630000Y-64470000D02*
G75*
G03*
X189930000Y-63770000I-700000J0D01*
G01*
X189930000Y-65770000D02*
G75*
G03*
X190630000Y-65070000I0J700000D01*
G01*
%TO.C,C10*%
X189370580Y-86235000D02*
X189089420Y-86235000D01*
X189370580Y-85215000D02*
X189089420Y-85215000D01*
%TO.C,R12*%
X190897742Y-92822500D02*
X191372258Y-92822500D01*
X190897742Y-93867500D02*
X191372258Y-93867500D01*
%TO.C,L3*%
X187162221Y-56640000D02*
X187487779Y-56640000D01*
X187162221Y-57660000D02*
X187487779Y-57660000D01*
%TO.C,U3*%
X162220000Y-45620000D02*
X162220000Y-45920000D01*
X162220000Y-45620000D02*
X183220000Y-45620000D01*
X162220000Y-48020000D02*
X162220000Y-48420000D01*
X162220000Y-48287000D02*
X165227000Y-48287000D01*
X162220000Y-50620000D02*
X162220000Y-51020000D01*
X162220000Y-53120000D02*
X162220000Y-53520000D01*
X162220000Y-55720000D02*
X162220000Y-56120000D01*
X162220000Y-58220000D02*
X162220000Y-58620000D01*
X162220000Y-60720000D02*
X162220000Y-61120000D01*
X162220000Y-63320000D02*
X162220000Y-63720000D01*
X162220000Y-65820000D02*
X162220000Y-66220000D01*
X162220000Y-68420000D02*
X162220000Y-68820000D01*
X162220000Y-70920000D02*
X162220000Y-71320000D01*
X162220000Y-73420000D02*
X162220000Y-73820000D01*
X162220000Y-76020000D02*
X162220000Y-76420000D01*
X162220000Y-78520000D02*
X162220000Y-78920000D01*
X162220000Y-81120000D02*
X162220000Y-81520000D01*
X162220000Y-83620000D02*
X162220000Y-84020000D01*
X162220000Y-86220000D02*
X162220000Y-86620000D01*
X162220000Y-88720000D02*
X162220000Y-89120000D01*
X162220000Y-91220000D02*
X162220000Y-91620000D01*
X162220000Y-93820000D02*
X162220000Y-94220000D01*
X165227000Y-48287000D02*
X165227000Y-45620000D01*
X169020000Y-96620000D02*
X162220000Y-96620000D01*
X171220000Y-96620000D02*
X171620000Y-96620000D01*
X173820000Y-96620000D02*
X174220000Y-96620000D01*
X183220000Y-45620000D02*
X183220000Y-45920000D01*
X183220000Y-48020000D02*
X183220000Y-48420000D01*
X183220000Y-50620000D02*
X183220000Y-51020000D01*
X183220000Y-53120000D02*
X183220000Y-53520000D01*
X183220000Y-55720000D02*
X183220000Y-56120000D01*
X183220000Y-58220000D02*
X183220000Y-58620000D01*
X183220000Y-60720000D02*
X183220000Y-61120000D01*
X183220000Y-63320000D02*
X183220000Y-63720000D01*
X183220000Y-65820000D02*
X183220000Y-66220000D01*
X183220000Y-68420000D02*
X183220000Y-68820000D01*
X183220000Y-70920000D02*
X183220000Y-71320000D01*
X183220000Y-73420000D02*
X183220000Y-73820000D01*
X183220000Y-76020000D02*
X183220000Y-76420000D01*
X183220000Y-78520000D02*
X183220000Y-78920000D01*
X183220000Y-81120000D02*
X183220000Y-81520000D01*
X183220000Y-83620000D02*
X183220000Y-84020000D01*
X183220000Y-86220000D02*
X183220000Y-86620000D01*
X183220000Y-88720000D02*
X183220000Y-89120000D01*
X183220000Y-91220000D02*
X183220000Y-91620000D01*
X183220000Y-93820000D02*
X183220000Y-94220000D01*
X183220000Y-96620000D02*
X176420000Y-96620000D01*
%TO.C,C9*%
X188085000Y-92850580D02*
X188085000Y-92569420D01*
X189105000Y-92850580D02*
X189105000Y-92569420D01*
%TO.C,J3*%
X187900000Y-48260000D02*
X187900000Y-53400000D01*
X187900000Y-48260000D02*
X190560000Y-48260000D01*
X187900000Y-53400000D02*
X190560000Y-53400000D01*
X189230000Y-45660000D02*
X190560000Y-45660000D01*
X190560000Y-45660000D02*
X190560000Y-46990000D01*
X190560000Y-48260000D02*
X190560000Y-53400000D01*
%TO.C,L4*%
X160932779Y-107190000D02*
X160607221Y-107190000D01*
X160932779Y-106170000D02*
X160607221Y-106170000D01*
%TO.C,C11*%
X192280000Y-57644420D02*
X192280000Y-57925580D01*
X191260000Y-57644420D02*
X191260000Y-57925580D01*
D13*
%TO.C,U6*%
X193445000Y-95020000D02*
X193445000Y-93770000D01*
X193485000Y-93420000D02*
X193485000Y-93270000D01*
X196405000Y-93420000D02*
X193485000Y-93420000D01*
X193485000Y-93270000D02*
X196405000Y-93270000D01*
X196405000Y-93270000D02*
X196405000Y-93420000D01*
D12*
%TO.C,C5*%
X162413748Y-103405000D02*
X162936252Y-103405000D01*
X162413748Y-104875000D02*
X162936252Y-104875000D01*
D13*
%TO.C,U5*%
X153975000Y-97735000D02*
X153975000Y-96535000D01*
X154125000Y-96185000D02*
X154125000Y-95585000D01*
X157025000Y-96185000D02*
X154125000Y-96185000D01*
X154125000Y-95585000D02*
X157025000Y-95585000D01*
X157025000Y-95585000D02*
X157025000Y-96185000D01*
D12*
%TO.C,R10*%
X192292500Y-88027742D02*
X192292500Y-88502258D01*
X191247500Y-88027742D02*
X191247500Y-88502258D01*
%TO.C,R13*%
X156447258Y-100217500D02*
X155972742Y-100217500D01*
X156447258Y-99172500D02*
X155972742Y-99172500D01*
D15*
%TO.C,J1*%
X161762000Y-112673000D02*
X160963040Y-112673000D01*
X159306960Y-112673000D02*
X158508000Y-112673000D01*
X158508000Y-115927000D02*
X161762000Y-115927000D01*
X160211200Y-111760000D02*
G75*
G03*
X160211200Y-111760000I-76200J0D01*
G01*
D12*
%TO.C,R16*%
X189342500Y-111997258D02*
X189342500Y-111522742D01*
X190387500Y-111997258D02*
X190387500Y-111522742D01*
%TO.C,R19*%
X161197258Y-109107500D02*
X160722742Y-109107500D01*
X161197258Y-108062500D02*
X160722742Y-108062500D01*
%TO.C,R3*%
X188992742Y-77582500D02*
X189467258Y-77582500D01*
X188992742Y-78627500D02*
X189467258Y-78627500D01*
%TO.C,R5*%
X181212258Y-98947500D02*
X180737742Y-98947500D01*
X181212258Y-97902500D02*
X180737742Y-97902500D01*
%TO.C,C13*%
X154930000Y-83679420D02*
X154930000Y-83960580D01*
X153910000Y-83679420D02*
X153910000Y-83960580D01*
%TO.C,C1*%
X157221252Y-111225000D02*
X156698748Y-111225000D01*
X157221252Y-109755000D02*
X156698748Y-109755000D01*
%TO.C,C15*%
X150100000Y-83960580D02*
X150100000Y-83679420D01*
X151120000Y-83960580D02*
X151120000Y-83679420D01*
%TO.C,R7*%
X187437500Y-105647258D02*
X187437500Y-105172742D01*
X188482500Y-105647258D02*
X188482500Y-105172742D01*
D13*
%TO.C,U1*%
X185475000Y-95020000D02*
X186675000Y-95020000D01*
X187025000Y-95070000D02*
X187625000Y-95070000D01*
X187025000Y-97970000D02*
X187025000Y-95070000D01*
X187625000Y-95070000D02*
X187625000Y-97970000D01*
X187625000Y-97970000D02*
X187025000Y-97970000D01*
%TO.C,U2*%
X181840000Y-108180000D02*
X181840000Y-109430000D01*
X181800000Y-109780000D02*
X181800000Y-109930000D01*
X178880000Y-109780000D02*
X181800000Y-109780000D01*
X181800000Y-109930000D02*
X178880000Y-109930000D01*
X178880000Y-109930000D02*
X178880000Y-109780000D01*
D12*
%TO.C,R4*%
X186262742Y-109967500D02*
X186737258Y-109967500D01*
X186262742Y-111012500D02*
X186737258Y-111012500D01*
%TO.C,C16*%
X157221252Y-107415000D02*
X156698748Y-107415000D01*
X157221252Y-105945000D02*
X156698748Y-105945000D01*
%TO.C,SPI1*%
X151190000Y-71120000D02*
X151190000Y-63440000D01*
X151190000Y-71120000D02*
X148530000Y-71120000D01*
X151190000Y-63440000D02*
X148530000Y-63440000D01*
X149860000Y-73720000D02*
X148530000Y-73720000D01*
X148530000Y-73720000D02*
X148530000Y-72390000D01*
X148530000Y-71120000D02*
X148530000Y-63440000D01*
D13*
%TO.C,U7*%
X186745000Y-86665000D02*
X187945000Y-86665000D01*
X188295000Y-86815000D02*
X188895000Y-86815000D01*
X188295000Y-89715000D02*
X188295000Y-86815000D01*
X188895000Y-86815000D02*
X188895000Y-89715000D01*
X188895000Y-89715000D02*
X188295000Y-89715000D01*
D12*
%TO.C,C12*%
X194185000Y-57644420D02*
X194185000Y-57925580D01*
X193165000Y-57644420D02*
X193165000Y-57925580D01*
D15*
%TO.C,J2*%
X187162000Y-112673000D02*
X186363040Y-112673000D01*
X184706960Y-112673000D02*
X183908000Y-112673000D01*
X183908000Y-115927000D02*
X187162000Y-115927000D01*
X185611200Y-111760000D02*
G75*
G03*
X185611200Y-111760000I-76200J0D01*
G01*
%TD*%
M02*
