%TF.GenerationSoftware,KiCad,Pcbnew,7.0.2-27-g7a50654f3b*%
%TF.CreationDate,2023-07-25T18:12:13-07:00*%
%TF.ProjectId,open_gamma_low_noise_v2,6f70656e-5f67-4616-9d6d-615f6c6f775f,rev?*%
%TF.SameCoordinates,Original*%
%TF.FileFunction,Soldermask,Bot*%
%TF.FilePolarity,Negative*%
%FSLAX46Y46*%
G04 Gerber Fmt 4.6, Leading zero omitted, Abs format (unit mm)*
G04 Created by KiCad (PCBNEW 7.0.2-27-g7a50654f3b) date 2023-07-25 18:12:13*
%MOMM*%
%LPD*%
G01*
G04 APERTURE LIST*
%ADD10R,1.700000X1.700000*%
%ADD11O,1.700000X1.700000*%
%ADD12C,0.700000*%
%ADD13C,4.400000*%
%ADD14C,1.269000*%
%ADD15O,1.800000X1.800000*%
%ADD16O,1.500000X1.500000*%
G04 APERTURE END LIST*
D10*
%TO.C,I2C1*%
X149860000Y-60960000D03*
D11*
X149860000Y-58420000D03*
X149860000Y-55880000D03*
X149860000Y-53340000D03*
%TD*%
D12*
%TO.C,H3*%
X149100000Y-118364000D03*
X149583274Y-117197274D03*
X149583274Y-119530726D03*
X150750000Y-116714000D03*
D13*
X150750000Y-118364000D03*
D12*
X150750000Y-120014000D03*
X151916726Y-117197274D03*
X151916726Y-119530726D03*
X152400000Y-118364000D03*
%TD*%
D14*
%TO.C,R8*%
X194310000Y-111760000D03*
X194310000Y-109220000D03*
X194310000Y-106680000D03*
%TD*%
D10*
%TO.C,UART1*%
X149975000Y-78740000D03*
D11*
X149975000Y-76200000D03*
%TD*%
D14*
%TO.C,R2*%
X151130000Y-107315000D03*
X151130000Y-104775000D03*
X151130000Y-102235000D03*
%TD*%
D12*
%TO.C,H4*%
X192914000Y-118364000D03*
X193397274Y-117197274D03*
X193397274Y-119530726D03*
X194564000Y-116714000D03*
D13*
X194564000Y-118364000D03*
D12*
X194564000Y-120014000D03*
X195730726Y-117197274D03*
X195730726Y-119530726D03*
X196214000Y-118364000D03*
%TD*%
%TO.C,H2*%
X193296000Y-48260000D03*
X193779274Y-47093274D03*
X193779274Y-49426726D03*
X194946000Y-46610000D03*
D13*
X194946000Y-48260000D03*
D12*
X194946000Y-49910000D03*
X196112726Y-47093274D03*
X196112726Y-49426726D03*
X196596000Y-48260000D03*
%TD*%
D15*
%TO.C,U3*%
X169995000Y-47120000D03*
D16*
X170295000Y-50150000D03*
X175145000Y-50150000D03*
D15*
X175445000Y-47120000D03*
%TD*%
D10*
%TO.C,J3*%
X189230000Y-46990000D03*
D11*
X189230000Y-49530000D03*
X189230000Y-52070000D03*
%TD*%
D12*
%TO.C,H1*%
X149100000Y-48260000D03*
X149583274Y-47093274D03*
X149583274Y-49426726D03*
X150750000Y-46610000D03*
D13*
X150750000Y-48260000D03*
D12*
X150750000Y-49910000D03*
X151916726Y-47093274D03*
X151916726Y-49426726D03*
X152400000Y-48260000D03*
%TD*%
D10*
%TO.C,SPI1*%
X149860000Y-72390000D03*
D11*
X149860000Y-69850000D03*
X149860000Y-67310000D03*
X149860000Y-64770000D03*
%TD*%
M02*
